<svg id="kity_svg_6" xmlns="http://www.w3.org/2000/svg" xmlns:xlink="http://www.w3.org/1999/xlink" version="1.1" width="1150" height="1695" style="background: rgb(251, 251, 251); visibility: visible;" viewBox="0 0 1150 1695"><defs id="kity_defs_7"><linearGradient id="kity_linearGradient_17" x1="0" y1="0" x2="0" y2="1"><stop id="kity_stop_18" offset="0" stop-color="rgb(255, 255, 255)"></stop><stop id="kity_stop_19" offset="1" stop-color="rgb(204, 204, 204)"></stop></linearGradient><marker id="kity_marker_2" orient="auto" refX="6" refY="0" viewBox="-7 -7 14 14" markerWidth="7" markerHeight="7" markerUnits="userSpaceOnUse"><path id="kity_path_3" fill="rgb(115, 161, 191)" stroke="none" d="M6,0A6,6,0,1,1,-6,0A6,6,0,1,1,6,0"></path></marker></defs><g id="kity_g_8"><g id="minder1" text-rendering="geometricPrecision"><g id="minder_connect_group1"><path id="kity_path_31" fill="none" stroke="rgb(115, 161, 191)" stroke-width="1" d="M561.5000207871199,871.5000200420618A208,763,0,0,1,769.5000207871199,108.5000200420618"></path><path id="kity_path_79" fill="none" stroke="rgb(115, 161, 191)" stroke-width="1" d="M561.5000207871199,871.5000200420618A208,480,0,0,1,769.5000207871199,391.5000200420618"></path><path id="kity_path_140" fill="none" stroke="rgb(115, 161, 191)" stroke-width="1" d="M561.5000207871199,871.5000200420618A208,171,0,0,1,769.5000207871199,700.5000200420618"></path><path id="kity_path_194" fill="none" stroke="rgb(115, 161, 191)" stroke-width="1" d="M561.5000207871199,871.5000200420618A208,21,0,0,0,769.5000207871199,892.5000200420618"></path><path id="kity_path_226" fill="none" stroke="rgb(115, 161, 191)" stroke-width="1" d="M561.5000207871199,871.5000200420618A208,265,0,0,0,769.5000207871199,1136.5000200420618"></path><path id="kity_path_350" fill="none" stroke="rgb(115, 161, 191)" stroke-width="1" d="M561.5000207871199,871.5000200420618A208,483,0,0,0,769.5000207871199,1354.5000200420618"></path><path id="kity_path_374" fill="none" stroke="rgb(115, 161, 191)" stroke-width="1" d="M561.5000207871199,871.5000200420618A208,623,0,0,0,769.5000207871199,1494.5000200420618"></path><path id="kity_path_381" fill="none" stroke="rgb(115, 161, 191)" stroke-width="1" d="M931.5000207871199,1354.5000200420618C946.5000207871199,1354.5000200420618,946.5000207871199,1342.5000200420618,961.5000207871199,1342.5000200420618L1017.5000207871199,1342.5000200420618"></path><path id="kity_path_382" fill="none" stroke="rgb(115, 161, 191)" stroke-width="1" d="M931.5000207871199,1354.5000200420618C946.5000207871199,1354.5000200420618,946.5000207871199,1394.5000200420618,961.5000207871199,1394.5000200420618L1017.5000207871199,1394.5000200420618"></path><path id="kity_path_408" fill="none" stroke="rgb(115, 161, 191)" stroke-width="1" d="M561.5000207871199,871.5000200420618A208,763,0,0,0,769.5000207871199,1634.5000200420618"></path><path id="kity_path_434" fill="none" stroke="rgb(115, 161, 191)" stroke-width="1" d="M561.5000207871199,871.5000200420618A208,405,0,0,0,353.50002078711987,466.5000200420618"></path><path id="kity_path_469" fill="none" stroke="rgb(115, 161, 191)" stroke-width="1" d="M561.5000207871199,871.5000200420618A208,239,0,0,0,353.50002078711987,632.5000200420618"></path><path id="kity_path_504" fill="none" stroke="rgb(115, 161, 191)" stroke-width="1" d="M561.5000207871199,871.5000200420618A208,123,0,0,0,353.50002078711987,748.5000200420618"></path><path id="kity_path_512" fill="none" stroke="rgb(115, 161, 191)" stroke-width="1" d="M561.5000207871199,871.5000200420618A208,57,0,0,0,353.50002078711987,814.5000200420618"></path><path id="kity_path_520" fill="none" stroke="rgb(115, 161, 191)" stroke-width="1" d="M561.5000207871199,871.5000200420618A208,59,0,0,1,353.50002078711987,930.5000200420618"></path><path id="kity_path_552" fill="none" stroke="rgb(115, 161, 191)" stroke-width="1" d="M561.5000207871199,871.5000200420618A208,199,0,0,1,353.50002078711987,1070.5000200420618"></path><path id="kity_path_584" fill="none" stroke="rgb(115, 161, 191)" stroke-width="1" d="M561.5000207871199,871.5000200420618A208,289,0,0,1,353.50002078711987,1160.5000200420618"></path><path id="kity_path_599" fill="none" stroke="rgb(115, 161, 191)" stroke-width="1" d="M196.50002078711987,466.5000200420618C181.50002078711987,466.5000200420618,181.50002078711987,428.5000200420618,166.50002078711987,428.5000200420618L81.50002078711987,428.5000200420618"></path><path id="kity_path_600" fill="none" stroke="rgb(115, 161, 191)" stroke-width="1" d="M196.50002078711987,466.5000200420618C181.50002078711987,466.5000200420618,181.50002078711987,480.5000200420618,166.50002078711987,480.5000200420618L99.50002078711987,480.5000200420618"></path><path id="kity_path_601" fill="none" stroke="rgb(115, 161, 191)" stroke-width="1" d="M196.50002078711987,466.5000200420618C181.50002078711987,466.5000200420618,181.50002078711987,532.5000200420618,166.50002078711987,532.5000200420618L101.50002078711987,532.5000200420618"></path><path id="kity_path_602" fill="none" stroke="rgb(115, 161, 191)" stroke-width="1" d="M236.50002078711987,632.5000200420618C221.50002078711987,632.5000200420618,221.50002078711987,594.5000200420618,206.50002078711987,594.5000200420618L144.50002078711987,594.5000200420618"></path><path id="kity_path_603" fill="none" stroke="rgb(115, 161, 191)" stroke-width="1" d="M236.50002078711987,632.5000200420618C221.50002078711987,632.5000200420618,221.50002078711987,646.5000200420618,206.50002078711987,646.5000200420618L129.50002078711987,646.5000200420618"></path><path id="kity_path_604" fill="none" stroke="rgb(115, 161, 191)" stroke-width="1" d="M236.50002078711987,632.5000200420618C221.50002078711987,632.5000200420618,221.50002078711987,698.5000200420618,206.50002078711987,698.5000200420618L152.50002078711987,698.5000200420618"></path><path id="kity_path_605" fill="none" stroke="rgb(115, 161, 191)" stroke-width="1" d="M250.50002078711987,930.5000200420618C235.50002078711987,930.5000200420618,235.50002078711987,892.5000200420618,220.50002078711987,892.5000200420618L143.50002078711987,892.5000200420618"></path><path id="kity_path_606" fill="none" stroke="rgb(115, 161, 191)" stroke-width="1" d="M250.50002078711987,930.5000200420618C235.50002078711987,930.5000200420618,235.50002078711987,944.5000200420618,220.50002078711987,944.5000200420618L153.50002078711987,944.5000200420618"></path><path id="kity_path_607" fill="none" stroke="rgb(115, 161, 191)" stroke-width="1" d="M250.50002078711987,930.5000200420618C235.50002078711987,930.5000200420618,235.50002078711987,996.5000200420618,220.50002078711987,996.5000200420618L167.50002078711987,996.5000200420618"></path><path id="kity_path_608" fill="none" stroke="rgb(115, 161, 191)" stroke-width="1" d="M214.50002078711987,1070.5000200420618C199.50002078711987,1070.5000200420618,199.50002078711987,1058.5000200420618,184.50002078711987,1058.5000200420618L130.50002078711987,1058.5000200420618"></path><path id="kity_path_609" fill="none" stroke="rgb(115, 161, 191)" stroke-width="1" d="M214.50002078711987,1070.5000200420618C199.50002078711987,1070.5000200420618,199.50002078711987,1110.5000200420618,184.50002078711987,1110.5000200420618L128.50002078711987,1110.5000200420618"></path><path id="kity_path_610" fill="none" stroke="rgb(115, 161, 191)" stroke-width="1" d="M167.50002078711987,1160.5000200420618C152.50002078711987,1160.5000200420618,152.50002078711987,1174.5000200420618,137.50002078711987,1174.5000200420618L20.500020787119865,1174.5000200420618"></path><path id="kity_path_611" fill="none" stroke="rgb(115, 161, 191)" stroke-width="1" d="M935.5000207871199,892.5000200420618C950.5000207871199,892.5000200420618,950.5000207871199,854.5000200420618,965.5000207871199,854.5000200420618L1049.5000207871199,854.5000200420618"></path><path id="kity_path_612" fill="none" stroke="rgb(115, 161, 191)" stroke-width="1" d="M935.5000207871199,892.5000200420618C950.5000207871199,892.5000200420618,950.5000207871199,906.5000200420618,965.5000207871199,906.5000200420618L1042.5000207871199,906.5000200420618"></path><path id="kity_path_613" fill="none" stroke="rgb(115, 161, 191)" stroke-width="1" d="M935.5000207871199,892.5000200420618C950.5000207871199,892.5000200420618,950.5000207871199,958.5000200420618,965.5000207871199,958.5000200420618L1020.5000207871199,958.5000200420618"></path><path id="kity_path_614" fill="none" stroke="rgb(115, 161, 191)" stroke-width="1" d="M837.5000207871199,700.5000200420618C852.5000207871199,700.5000200420618,852.5000207871199,636.5000200420618,867.5000207871199,636.5000200420618L926.5000207871199,636.5000200420618"></path><path id="kity_path_615" fill="none" stroke="rgb(115, 161, 191)" stroke-width="1" d="M837.5000207871199,700.5000200420618C852.5000207871199,700.5000200420618,852.5000207871199,688.5000200420618,867.5000207871199,688.5000200420618L1117.5000207871199,688.5000200420618"></path><path id="kity_path_616" fill="none" stroke="rgb(115, 161, 191)" stroke-width="1" d="M837.5000207871199,700.5000200420618C852.5000207871199,700.5000200420618,852.5000207871199,740.5000200420618,867.5000207871199,740.5000200420618L942.5000207871199,740.5000200420618"></path><path id="kity_path_617" fill="none" stroke="rgb(115, 161, 191)" stroke-width="1" d="M837.5000207871199,700.5000200420618C852.5000207871199,700.5000200420618,852.5000207871199,792.5000200420618,867.5000207871199,792.5000200420618L958.5000207871199,792.5000200420618"></path><path id="kity_path_629" fill="none" stroke="rgb(115, 161, 191)" stroke-width="1" d="M869.5000207871199,108.5000200420618C884.5000207871199,108.5000200420618,884.5000207871199,44.500020042061806,899.5000207871199,44.500020042061806L960.5000207871199,44.500020042061806"></path><path id="kity_path_630" fill="none" stroke="rgb(115, 161, 191)" stroke-width="1" d="M869.5000207871199,108.5000200420618C884.5000207871199,108.5000200420618,884.5000207871199,96.5000200420618,899.5000207871199,96.5000200420618L953.5000207871199,96.5000200420618"></path><path id="kity_path_631" fill="none" stroke="rgb(115, 161, 191)" stroke-width="1" d="M869.5000207871199,108.5000200420618C884.5000207871199,108.5000200420618,884.5000207871199,148.5000200420618,899.5000207871199,148.5000200420618L955.5000207871199,148.5000200420618"></path><path id="kity_path_638" fill="none" stroke="rgb(115, 161, 191)" stroke-width="1" d="M879.5000207871199,1136.5000200420618C894.5000207871199,1136.5000200420618,894.5000207871199,1020.5000200420618,909.5000207871199,1020.5000200420618L1094.5000207871199,1020.5000200420618"></path><path id="kity_path_639" fill="none" stroke="rgb(115, 161, 191)" stroke-width="1" d="M879.5000207871199,1136.5000200420618C894.5000207871199,1136.5000200420618,894.5000207871199,1072.5000200420618,909.5000207871199,1072.5000200420618L1050.5000207871199,1072.5000200420618"></path><path id="kity_path_640" fill="none" stroke="rgb(115, 161, 191)" stroke-width="1" d="M879.5000207871199,1136.5000200420618C894.5000207871199,1136.5000200420618,894.5000207871199,1124.5000200420618,909.5000207871199,1124.5000200420618L1048.5000207871199,1124.5000200420618"></path><path id="kity_path_641" fill="none" stroke="rgb(115, 161, 191)" stroke-width="1" d="M879.5000207871199,1136.5000200420618C894.5000207871199,1136.5000200420618,894.5000207871199,1176.5000200420618,909.5000207871199,1176.5000200420618L1067.5000207871199,1176.5000200420618"></path><path id="kity_path_642" fill="none" stroke="rgb(115, 161, 191)" stroke-width="1" d="M879.5000207871199,1136.5000200420618C894.5000207871199,1136.5000200420618,894.5000207871199,1228.5000200420618,909.5000207871199,1228.5000200420618L968.5000207871199,1228.5000200420618"></path><path id="kity_path_643" fill="none" stroke="rgb(115, 161, 191)" stroke-width="1" d="M879.5000207871199,1136.5000200420618C894.5000207871199,1136.5000200420618,894.5000207871199,1280.5000200420618,909.5000207871199,1280.5000200420618L1049.5000207871199,1280.5000200420618"></path><path id="kity_path_647" fill="none" stroke="rgb(115, 161, 191)" stroke-width="1" d="M901.5000207871199,1494.5000200420618C916.5000207871199,1494.5000200420618,916.5000207871199,1456.5000200420618,931.5000207871199,1456.5000200420618L998.5000207871199,1456.5000200420618"></path><path id="kity_path_648" fill="none" stroke="rgb(115, 161, 191)" stroke-width="1" d="M901.5000207871199,1494.5000200420618C916.5000207871199,1494.5000200420618,916.5000207871199,1508.5000200420618,931.5000207871199,1508.5000200420618L1094.5000207871199,1508.5000200420618"></path><path id="kity_path_649" fill="none" stroke="rgb(115, 161, 191)" stroke-width="1" d="M901.5000207871199,1494.5000200420618C916.5000207871199,1494.5000200420618,916.5000207871199,1560.5000200420618,931.5000207871199,1560.5000200420618L994.5000207871199,1560.5000200420618"></path><path id="kity_path_655" fill="none" stroke="rgb(115, 161, 191)" stroke-width="1" d="M561.5000207871199,871.5000200420618A208,405,0,0,1,353.50002078711987,1276.5000200420618"></path><path id="kity_path_686" fill="none" stroke="rgb(115, 161, 191)" stroke-width="1" d="M969.5000207871199,1634.5000200420618C984.5000207871199,1634.5000200420618,984.5000207871199,1622.5000200420618,999.5000207871199,1622.5000200420618L1046.5000207871199,1622.5000200420618"></path><path id="kity_path_687" fill="none" stroke="rgb(115, 161, 191)" stroke-width="1" d="M969.5000207871199,1634.5000200420618C984.5000207871199,1634.5000200420618,984.5000207871199,1674.5000200420618,999.5000207871199,1674.5000200420618L1054.5000207871199,1674.5000200420618"></path><path id="kity_path_688" fill="none" stroke="rgb(115, 161, 191)" stroke-width="1" d="M274.50002078711987,1276.5000200420618C259.50002078711987,1276.5000200420618,259.50002078711987,1238.5000200420618,244.50002078711987,1238.5000200420618L164.50002078711987,1238.5000200420618"></path><path id="kity_path_689" fill="none" stroke="rgb(115, 161, 191)" stroke-width="1" d="M274.50002078711987,1276.5000200420618C259.50002078711987,1276.5000200420618,259.50002078711987,1290.5000200420618,244.50002078711987,1290.5000200420618L174.50002078711987,1290.5000200420618"></path><path id="kity_path_690" fill="none" stroke="rgb(115, 161, 191)" stroke-width="1" d="M274.50002078711987,1276.5000200420618C259.50002078711987,1276.5000200420618,259.50002078711987,1342.5000200420618,244.50002078711987,1342.5000200420618L160.50002078711987,1342.5000200420618"></path><path id="kity_path_754" fill="none" stroke="rgb(115, 161, 191)" stroke-width="1" d="M859.5000207871199,391.5000200420618C874.5000207871199,391.5000200420618,874.5000207871199,262.5000200420618,889.5000207871199,262.5000200420618L948.5000207871199,262.5000200420618"></path><path id="kity_path_755" fill="none" stroke="rgb(115, 161, 191)" stroke-width="1" d="M859.5000207871199,391.5000200420618C874.5000207871199,391.5000200420618,874.5000207871199,314.5000200420618,889.5000207871199,314.5000200420618L1016.5000207871199,314.5000200420618"></path><path id="kity_path_756" fill="none" stroke="rgb(115, 161, 191)" stroke-width="1" d="M859.5000207871199,391.5000200420618C874.5000207871199,391.5000200420618,874.5000207871199,366.5000200420618,889.5000207871199,366.5000200420618L1047.5000207871199,366.5000200420618"></path><path id="kity_path_757" fill="none" stroke="rgb(115, 161, 191)" stroke-width="1" d="M859.5000207871199,391.5000200420618C874.5000207871199,391.5000200420618,874.5000207871199,418.5000200420618,889.5000207871199,418.5000200420618L990.5000207871199,418.5000200420618"></path><path id="kity_path_758" fill="none" stroke="rgb(115, 161, 191)" stroke-width="1" d="M859.5000207871199,391.5000200420618C874.5000207871199,391.5000200420618,874.5000207871199,470.5000200420618,889.5000207871199,470.5000200420618L943.5000207871199,470.5000200420618"></path><path id="kity_path_761" fill="none" stroke="rgb(115, 161, 191)" stroke-width="1" d="M859.5000207871199,391.5000200420618C874.5000207871199,391.5000200420618,874.5000207871199,548.5000200420618,889.5000207871199,548.5000200420618L995.5000207871199,548.5000200420618"></path><path id="kity_path_764" fill="none" stroke="rgb(115, 161, 191)" stroke-width="1" d="M995.5000207871199,548.5000200420618C1010.5000207871199,548.5000200420618,1010.5000207871199,522.5000200420618,1025.5000207871199,522.5000200420618L1118.5000207871199,522.5000200420618"></path><path id="kity_path_765" fill="none" stroke="rgb(115, 161, 191)" stroke-width="1" d="M995.5000207871199,548.5000200420618C1010.5000207871199,548.5000200420618,1010.5000207871199,574.5000200420618,1025.5000207871199,574.5000200420618L1130.5000207871199,574.5000200420618"></path><path id="kity_path_767" fill="none" stroke="rgb(115, 161, 191)" stroke-width="1" d="M869.5000207871199,108.5000200420618C884.5000207871199,108.5000200420618,884.5000207871199,200.5000200420618,899.5000207871199,200.5000200420618L941.5000207871199,200.5000200420618"></path></g><g id="minder_node1"><path id="kity_path_707" fill="rgba(0, 0, 0, .25)" stroke="none" d="M479.50002078711987,849.5000200420618h238a5,5,0,0,1,5,5v44a5,5,0,0,1,-5,5h-238a5,5,0,0,1,-5,-5v-44a5,5,0,0,1,5,-5z" display="none"></path><path id="node_outline1" fill="rgb(115, 161, 191)" stroke="rgb(115, 161, 191)" d="M476.50002078711987,851.5000200420618h170a5,5,0,0,1,5,5v30a5,5,0,0,1,-5,5h-170a5,5,0,0,1,-5,-5v-30a5,5,0,0,1,5,-5z" stroke-width="3"></path><g id="node_text1" fill="white"><text id="kity_text_22" text-rendering="inherit" font-size="16" dy=".8em" y="861.1000198751688" x="495.50002078711987">Front-End Recipe</text></g></g><g id="kity_g_14" display="none"><path id="kity_path_15" fill="rgba(0, 92, 153, 0.5)" stroke="none" d="M216.50002078711987,1215.5000200420618h137v20h-137z"></path><path id="kity_path_16" fill="none" stroke="rgb(0, 76, 128)" d="M216.50002078711987,1215.5000200420618L353.50002078711987,1215.5000200420618" stroke-width="1"></path></g><g id="minder_node2" opacity="1"><path id="kity_path_691" fill="rgba(0, 0, 0, .25)" stroke="none" d="M780.5000296086073,99.49999730288982h97a5,5,0,0,1,5,5v18a5,5,0,0,1,-5,5h-97a5,5,0,0,1,-5,-5v-18a5,5,0,0,1,5,-5z" display="none"></path><g id="node_expander1" style="cursor: pointer;"><path id="kity_path_36" fill="white" stroke="gray" d="M770.5000288039446,108.49999730288982A6,6,0,1,1,758.5000288039446,108.49999730288982A6,6,0,1,1,770.5000288039446,108.49999730288982"></path><path id="kity_path_37" fill="none" stroke="gray" d="M760.0000288039446,108.49999730288982L769.0000288039446,108.49999730288982"></path></g><path id="node_outline2" fill="rgb(238, 243, 246)" stroke="rgb(115, 161, 191)" d="M774.5000296086073,95.49999730288982h92a3,3,0,0,1,3,3v20a3,3,0,0,1,-3,3h-92a3,3,0,0,1,-3,-3v-20a3,3,0,0,1,3,-3z" stroke-width="1"></path><g id="node_text2" fill="black"><text id="kity_text_33" text-rendering="inherit" font-size="14" dy=".8em" y="99.39999733567238" x="791.5000296086073">Network</text></g></g><g id="minder_node8" opacity="1"><path id="kity_path_692" fill="rgba(0, 0, 0, .25)" stroke="none" d="M780.5000296086073,382.50000573694706h85a5,5,0,0,1,5,5v18a5,5,0,0,1,-5,5h-85a5,5,0,0,1,-5,-5v-18a5,5,0,0,1,5,-5z" display="none"></path><g id="node_expander7" style="cursor: pointer;"><path id="kity_path_84" fill="white" stroke="gray" d="M770.5000288039446,391.50000573694706A6,6,0,1,1,758.5000288039446,391.50000573694706A6,6,0,1,1,770.5000288039446,391.50000573694706"></path><path id="kity_path_85" fill="none" stroke="gray" d="M760.0000288039446,391.50000573694706L769.0000288039446,391.50000573694706"></path></g><path id="node_outline8" fill="rgb(238, 243, 246)" stroke="rgb(115, 161, 191)" d="M774.5000296086073,378.50000573694706h82a3,3,0,0,1,3,3v20a3,3,0,0,1,-3,3h-82a3,3,0,0,1,-3,-3v-20a3,3,0,0,1,3,-3z" stroke-width="1"></path><g id="node_text8" fill="black"><text id="kity_text_81" text-rendering="inherit" font-size="14" dy=".8em" y="382.4000057697296" x="791.5000296086073">HTML5</text></g></g><g id="minder_node14" opacity="1"><path id="kity_path_693" fill="rgba(0, 0, 0, .25)" stroke="none" d="M780.5000296086073,691.5000149458647h59a5,5,0,0,1,5,5v18a5,5,0,0,1,-5,5h-59a5,5,0,0,1,-5,-5v-18a5,5,0,0,1,5,-5z" display="none"></path><g id="node_expander13" style="cursor: pointer;"><path id="kity_path_145" fill="white" stroke="gray" d="M770.5000288039446,700.5000149458647A6,6,0,1,1,758.5000288039446,700.5000149458647A6,6,0,1,1,770.5000288039446,700.5000149458647"></path><path id="kity_path_146" fill="none" stroke="gray" d="M760.0000288039446,700.5000149458647L769.0000288039446,700.5000149458647"></path></g><path id="node_outline14" fill="rgb(238, 243, 246)" stroke="rgb(115, 161, 191)" d="M774.5000296086073,687.5000149458647h60a3,3,0,0,1,3,3v20a3,3,0,0,1,-3,3h-60a3,3,0,0,1,-3,-3v-20a3,3,0,0,1,3,-3z" stroke-width="1"></path><g id="node_text14" fill="black"><text id="kity_text_142" text-rendering="inherit" font-size="14" dy=".8em" y="691.4000149786473" x="791.5000296086073">CSS</text></g></g><g id="minder_node19" opacity="1"><path id="kity_path_694" fill="rgba(0, 0, 0, .25)" stroke="none" d="M780.5000296086073,883.5000206679106h172a5,5,0,0,1,5,5v18a5,5,0,0,1,-5,5h-172a5,5,0,0,1,-5,-5v-18a5,5,0,0,1,5,-5z" display="none"></path><g id="node_expander18" style="cursor: pointer;"><path id="kity_path_199" fill="white" stroke="gray" d="M770.5000288039446,892.5000206679106A6,6,0,1,1,758.5000288039446,892.5000206679106A6,6,0,1,1,770.5000288039446,892.5000206679106"></path><path id="kity_path_200" fill="none" stroke="gray" d="M760.0000288039446,892.5000206679106L769.0000288039446,892.5000206679106"></path></g><path id="node_outline19" fill="rgb(238, 243, 246)" stroke="rgb(115, 161, 191)" d="M774.5000296086073,879.5000206679106h158a3,3,0,0,1,3,3v20a3,3,0,0,1,-3,3h-158a3,3,0,0,1,-3,-3v-20a3,3,0,0,1,3,-3z" stroke-width="1"></path><g id="node_text19" fill="black"><text id="kity_text_196" text-rendering="inherit" font-size="14" dy=".8em" y="883.4000207006932" x="791.5000296086073">CSS Preprocessors</text></g></g><g id="minder_node23" opacity="1"><path id="kity_path_695" fill="rgba(0, 0, 0, .25)" stroke="none" d="M780.5000296086073,1127.5000279396772h107a5,5,0,0,1,5,5v18a5,5,0,0,1,-5,5h-107a5,5,0,0,1,-5,-5v-18a5,5,0,0,1,5,-5z" display="none"></path><g id="node_expander22" style="cursor: pointer;"><path id="kity_path_231" fill="white" stroke="gray" d="M770.5000288039446,1136.5000279396772A6,6,0,1,1,758.5000288039446,1136.5000279396772A6,6,0,1,1,770.5000288039446,1136.5000279396772"></path><path id="kity_path_232" fill="none" stroke="gray" d="M760.0000288039446,1136.5000279396772L769.0000288039446,1136.5000279396772"></path></g><path id="node_outline23" fill="rgb(238, 243, 246)" stroke="rgb(115, 161, 191)" d="M774.5000296086073,1123.5000279396772h102a3,3,0,0,1,3,3v20a3,3,0,0,1,-3,3h-102a3,3,0,0,1,-3,-3v-20a3,3,0,0,1,3,-3z" stroke-width="1"></path><g id="node_text23" fill="black"><text id="kity_text_228" text-rendering="inherit" font-size="14" dy=".8em" y="1127.4000279724598" x="791.5000296086073">JavaScript</text></g></g><g id="minder_node33" opacity="1"><path id="kity_path_696" fill="rgba(0, 0, 0, .25)" stroke="none" d="M780.5000296086073,1345.5000344365835h168a5,5,0,0,1,5,5v18a5,5,0,0,1,-5,5h-168a5,5,0,0,1,-5,-5v-18a5,5,0,0,1,5,-5z" display="none"></path><g id="node_expander32" style="cursor: pointer;"><path id="kity_path_355" fill="white" stroke="gray" d="M770.5000288039446,1354.5000344365835A6,6,0,1,1,758.5000288039446,1354.5000344365835A6,6,0,1,1,770.5000288039446,1354.5000344365835"></path><path id="kity_path_356" fill="none" stroke="gray" d="M760.0000288039446,1354.5000344365835L769.0000288039446,1354.5000344365835"></path></g><path id="node_outline33" fill="rgb(238, 243, 246)" stroke="rgb(115, 161, 191)" d="M774.5000296086073,1341.5000344365835h154a3,3,0,0,1,3,3v20a3,3,0,0,1,-3,3h-154a3,3,0,0,1,-3,-3v-20a3,3,0,0,1,3,-3z" stroke-width="1"></path><g id="node_text33" fill="black"><text id="kity_text_352" text-rendering="inherit" font-size="14" dy=".8em" y="1345.4000344693661" x="791.5000296086073">Package Manager</text></g></g><g id="minder_node36" opacity="1"><path id="kity_path_697" fill="rgba(0, 0, 0, .25)" stroke="none" d="M780.5000296086073,1485.5000386089087h133a5,5,0,0,1,5,5v18a5,5,0,0,1,-5,5h-133a5,5,0,0,1,-5,-5v-18a5,5,0,0,1,5,-5z" display="none"></path><g id="node_expander35" style="cursor: pointer;"><path id="kity_path_379" fill="white" stroke="gray" d="M770.5000288039446,1494.5000386089087A6,6,0,1,1,758.5000288039446,1494.5000386089087A6,6,0,1,1,770.5000288039446,1494.5000386089087"></path><path id="kity_path_380" fill="none" stroke="gray" d="M760.0000288039446,1494.5000386089087L769.0000288039446,1494.5000386089087"></path></g><path id="node_outline36" fill="rgb(238, 243, 246)" stroke="rgb(115, 161, 191)" d="M774.5000296086073,1481.5000386089087h124a3,3,0,0,1,3,3v20a3,3,0,0,1,-3,3h-124a3,3,0,0,1,-3,-3v-20a3,3,0,0,1,3,-3z" stroke-width="1"></path><g id="node_text36" fill="black"><text id="kity_text_376" text-rendering="inherit" font-size="14" dy=".8em" y="1485.4000386416913" x="791.5000296086073">Web Security</text></g></g><g id="minder_node34"><path id="kity_path_732" fill="rgba(0, 0, 0, .25)" stroke="none" d="M1000.0000352710485,1311.0000336617231h0a23,23,0,0,1,23,23v0a23,23,0,0,1,-23,23h0a23,23,0,0,1,-23,-23v0a23,23,0,0,1,23,-23z" display="none"></path><g id="node_expander33" style="cursor: pointer;" display="none"><path id="kity_path_363" fill="white" stroke="gray" d="M971.5000347942114,1328.5000336617231A6,6,0,1,1,959.5000347942114,1328.5000336617231A6,6,0,1,1,971.5000347942114,1328.5000336617231"></path><path id="kity_path_364" fill="none" stroke="gray"></path></g><path id="node_outline34" fill="none" stroke="none" d="M976.5000352710485,1317.5000336617231h36a5,5,0,0,1,5,5v12a5,5,0,0,1,-5,5h-36a5,5,0,0,1,-5,-5v-12a5,5,0,0,1,5,-5z" stroke-width="3"></path><g id="node_text34" fill="black"><text id="kity_text_360" text-rendering="inherit" font-size="12" dy=".8em" y="1320.7000337352356" x="981.5000352710485">npm</text></g></g><g id="minder_node35"><path id="kity_path_733" fill="rgba(0, 0, 0, .25)" stroke="none" d="M999.5000352710485,1364.000035211444h0a22,22,0,0,1,22,22v0a22,22,0,0,1,-22,22h0a22,22,0,0,1,-22,-22v0a22,22,0,0,1,22,-22z" display="none"></path><g id="node_expander34" style="cursor: pointer;" display="none"><path id="kity_path_371" fill="white" stroke="gray" d="M971.5000347942114,1380.500035211444A6,6,0,1,1,959.5000347942114,1380.500035211444A6,6,0,1,1,971.5000347942114,1380.500035211444"></path><path id="kity_path_372" fill="none" stroke="gray"></path></g><path id="node_outline35" fill="none" stroke="none" d="M976.5000352710485,1369.500035211444h36a5,5,0,0,1,5,5v12a5,5,0,0,1,-5,5h-36a5,5,0,0,1,-5,-5v-12a5,5,0,0,1,5,-5z" stroke-width="3"></path><g id="node_text35" fill="black"><text id="kity_text_368" text-rendering="inherit" font-size="12" dy=".8em" y="1372.7000352849564" x="981.5000352710485">yarn</text></g></g><g id="minder_node40" opacity="1"><path id="kity_path_698" fill="rgba(0, 0, 0, .25)" stroke="none" d="M780.5000296086073,1625.5000427812338h211a5,5,0,0,1,5,5v18a5,5,0,0,1,-5,5h-211a5,5,0,0,1,-5,-5v-18a5,5,0,0,1,5,-5z" display="none"></path><g id="node_expander39" style="cursor: pointer;"><path id="kity_path_413" fill="white" stroke="gray" d="M770.5000288039446,1634.5000427812338A6,6,0,1,1,758.5000288039446,1634.5000427812338A6,6,0,1,1,770.5000288039446,1634.5000427812338"></path><path id="kity_path_414" fill="none" stroke="gray" d="M760.0000288039446,1634.5000427812338L769.0000288039446,1634.5000427812338"></path></g><path id="node_outline40" fill="rgb(238, 243, 246)" stroke="rgb(115, 161, 191)" d="M774.5000296086073,1621.5000427812338h192a3,3,0,0,1,3,3v20a3,3,0,0,1,-3,3h-192a3,3,0,0,1,-3,-3v-20a3,3,0,0,1,3,-3z" stroke-width="1"></path><g id="node_text40" fill="black"><text id="kity_text_410" text-rendering="inherit" font-size="14" dy=".8em" y="1625.4000428140164" x="791.5000296086073">Version Control System</text></g></g><g id="minder_node43" opacity="1"><path id="kity_path_699" fill="rgba(0, 0, 0, .25)" stroke="none" d="M205.50001247227192,457.50000797212124h161a5,5,0,0,1,5,5v18a5,5,0,0,1,-5,5h-161a5,5,0,0,1,-5,-5v-18a5,5,0,0,1,5,-5z" display="none"></path><g id="node_expander42" style="cursor: pointer;"><path id="kity_path_439" fill="white" stroke="gray" d="M364.5000167042017,466.50000797212124A6,6,0,1,1,352.5000167042017,466.50000797212124A6,6,0,1,1,364.5000167042017,466.50000797212124"></path><path id="kity_path_440" fill="none" stroke="gray" d="M354.0000167042017,466.50000797212124L363.0000167042017,466.50000797212124"></path></g><path id="node_outline43" fill="rgb(238, 243, 246)" stroke="rgb(115, 161, 191)" d="M199.50001247227192,453.50000797212124h149a3,3,0,0,1,3,3v20a3,3,0,0,1,-3,3h-149a3,3,0,0,1,-3,-3v-20a3,3,0,0,1,3,-3z" stroke-width="1"></path><g id="node_text43" fill="black"><text id="kity_text_436" text-rendering="inherit" font-size="14" dy=".8em" y="457.4000080049038" x="216.50001247227192">Module Bundlers</text></g></g><g id="minder_node47" opacity="1"><path id="kity_path_700" fill="rgba(0, 0, 0, .25)" stroke="none" d="M245.50001366436481,623.5000129193068h116a5,5,0,0,1,5,5v18a5,5,0,0,1,-5,5h-116a5,5,0,0,1,-5,-5v-18a5,5,0,0,1,5,-5z" display="none"></path><g id="node_expander46" style="cursor: pointer;"><path id="kity_path_474" fill="white" stroke="gray" d="M364.5000167042017,632.5000129193068A6,6,0,1,1,352.5000167042017,632.5000129193068A6,6,0,1,1,364.5000167042017,632.5000129193068"></path><path id="kity_path_475" fill="none" stroke="gray" d="M354.0000167042017,632.5000129193068L363.0000167042017,632.5000129193068"></path></g><path id="node_outline47" fill="rgb(238, 243, 246)" stroke="rgb(115, 161, 191)" d="M239.50001366436481,619.5000129193068h109a3,3,0,0,1,3,3v20a3,3,0,0,1,-3,3h-109a3,3,0,0,1,-3,-3v-20a3,3,0,0,1,3,-3z" stroke-width="1"></path><g id="node_text47" fill="black"><text id="kity_text_471" text-rendering="inherit" font-size="14" dy=".8em" y="623.4000129520894" x="256.5000136643648">Framework</text></g></g><g id="minder_node51" opacity="1"><path id="kity_path_701" fill="rgba(0, 0, 0, .25)" stroke="none" d="M249.5000137835741,739.5000163763762h111a5,5,0,0,1,5,5v18a5,5,0,0,1,-5,5h-111a5,5,0,0,1,-5,-5v-18a5,5,0,0,1,5,-5z" display="none"></path><g id="node_expander50" style="cursor: pointer;" display="none"><path id="kity_path_509" fill="white" stroke="gray" d="M364.5000167042017,748.5000163763762A6,6,0,1,1,352.5000167042017,748.5000163763762A6,6,0,1,1,364.5000167042017,748.5000163763762"></path><path id="kity_path_510" fill="none" stroke="gray"></path></g><path id="node_outline51" fill="rgb(238, 243, 246)" stroke="rgb(115, 161, 191)" d="M243.5000137835741,735.5000163763762h105a3,3,0,0,1,3,3v20a3,3,0,0,1,-3,3h-105a3,3,0,0,1,-3,-3v-20a3,3,0,0,1,3,-3z" stroke-width="1"></path><g id="node_text51" fill="black"><text id="kity_text_506" text-rendering="inherit" font-size="14" dy=".8em" y="739.4000164091588" x="260.5000137835741">TypeScript</text></g></g><g id="minder_node52" opacity="1"><path id="kity_path_702" fill="rgba(0, 0, 0, .25)" stroke="none" d="M219.50001288950443,805.5000183433294h145a5,5,0,0,1,5,5v18a5,5,0,0,1,-5,5h-145a5,5,0,0,1,-5,-5v-18a5,5,0,0,1,5,-5z" display="none"></path><g id="node_expander51" style="cursor: pointer;" display="none"><path id="kity_path_517" fill="white" stroke="gray" d="M364.5000167042017,814.5000183433294A6,6,0,1,1,352.5000167042017,814.5000183433294A6,6,0,1,1,364.5000167042017,814.5000183433294"></path><path id="kity_path_518" fill="none" stroke="gray"></path></g><path id="node_outline52" fill="rgb(238, 243, 246)" stroke="rgb(115, 161, 191)" d="M213.50001288950443,801.5000183433294h135a3,3,0,0,1,3,3v20a3,3,0,0,1,-3,3h-135a3,3,0,0,1,-3,-3v-20a3,3,0,0,1,3,-3z" stroke-width="1"></path><g id="node_text52" fill="black"><text id="kity_text_514" text-rendering="inherit" font-size="14" dy=".8em" y="805.400018376112" x="230.50001288950443">Web Assembly</text></g></g><g id="minder_node53" opacity="1"><path id="kity_path_703" fill="rgba(0, 0, 0, .25)" stroke="none" d="M259.5000140815973,921.5000218003988h98a5,5,0,0,1,5,5v18a5,5,0,0,1,-5,5h-98a5,5,0,0,1,-5,-5v-18a5,5,0,0,1,5,-5z" display="none"></path><g id="node_expander52" style="cursor: pointer;"><path id="kity_path_525" fill="white" stroke="gray" d="M364.5000167042017,930.5000218003988A6,6,0,1,1,352.5000167042017,930.5000218003988A6,6,0,1,1,364.5000167042017,930.5000218003988"></path><path id="kity_path_526" fill="none" stroke="gray" d="M354.0000167042017,930.5000218003988L363.0000167042017,930.5000218003988"></path></g><path id="node_outline53" fill="rgb(238, 243, 246)" stroke="rgb(115, 161, 191)" d="M253.50001408159733,917.5000218003988h95a3,3,0,0,1,3,3v20a3,3,0,0,1,-3,3h-95a3,3,0,0,1,-3,-3v-20a3,3,0,0,1,3,-3z" stroke-width="1"></path><g id="node_text53" fill="black"><text id="kity_text_522" text-rendering="inherit" font-size="14" dy=".8em" y="921.4000218331814" x="270.5000140815973">Unit Test</text></g></g><g id="minder_node57" opacity="1"><path id="kity_path_704" fill="rgba(0, 0, 0, .25)" stroke="none" d="M223.50001300871372,1061.500025972724h141a5,5,0,0,1,5,5v18a5,5,0,0,1,-5,5h-141a5,5,0,0,1,-5,-5v-18a5,5,0,0,1,5,-5z" display="none"></path><g id="node_expander56" style="cursor: pointer;"><path id="kity_path_557" fill="white" stroke="gray" d="M364.5000167042017,1070.500025972724A6,6,0,1,1,352.5000167042017,1070.500025972724A6,6,0,1,1,364.5000167042017,1070.500025972724"></path><path id="kity_path_558" fill="none" stroke="gray" d="M354.0000167042017,1070.500025972724L363.0000167042017,1070.500025972724"></path></g><path id="node_outline57" fill="rgb(238, 243, 246)" stroke="rgb(115, 161, 191)" d="M217.50001300871372,1057.500025972724h131a3,3,0,0,1,3,3v20a3,3,0,0,1,-3,3h-131a3,3,0,0,1,-3,-3v-20a3,3,0,0,1,3,-3z" stroke-width="1"></path><g id="node_text57" fill="black"><text id="kity_text_554" text-rendering="inherit" font-size="14" dy=".8em" y="1061.4000260055066" x="234.50001300871372">Data Structure</text></g></g><g id="minder_node61" opacity="1"><path id="kity_path_705" fill="rgba(0, 0, 0, .25)" stroke="none" d="M176.50001160800457,1151.500028654933h195a5,5,0,0,1,5,5v18a5,5,0,0,1,-5,5h-195a5,5,0,0,1,-5,-5v-18a5,5,0,0,1,5,-5z" display="none"></path><g id="node_expander60" style="cursor: pointer;"><path id="kity_path_589" fill="white" stroke="gray" d="M364.5000167042017,1160.500028654933A6,6,0,1,1,352.5000167042017,1160.500028654933A6,6,0,1,1,364.5000167042017,1160.500028654933"></path><path id="kity_path_590" fill="none" stroke="gray" d="M354.0000167042017,1160.500028654933L363.0000167042017,1160.500028654933"></path></g><path id="node_outline61" fill="rgb(238, 243, 246)" stroke="rgb(115, 161, 191)" d="M170.50001160800457,1147.500028654933h178a3,3,0,0,1,3,3v20a3,3,0,0,1,-3,3h-178a3,3,0,0,1,-3,-3v-20a3,3,0,0,1,3,-3z" stroke-width="1"></path><g id="node_text61" fill="black"><text id="kity_text_586" text-rendering="inherit" font-size="14" dy=".8em" y="1151.4000286877156" x="187.50001160800457">Progressive Web App</text></g></g><g id="kity_g_12" display="none"><path id="kity_path_13" fill="none" stroke="rgb(66, 94, 112)" d="M136.50002078711987,1212.5000200420618h35a5,5,0,0,1,5,5v12a5,5,0,0,1,-5,5h-35a5,5,0,0,1,-5,-5v-12a5,5,0,0,1,5,-5z" stroke-width="5"></path></g><g id="minder_node44" opacity="1"><path id="kity_path_739" fill="rgba(0, 0, 0, .25)" stroke="none" d="M125.50000874698162,383.0000064224005h0a37,37,0,0,1,37,37v0a37,37,0,0,1,-37,37h0a37,37,0,0,1,-37,-37v0a37,37,0,0,1,37,-37z" display="none"></path><g id="node_expander43" style="cursor: pointer;" display="none"><path id="kity_path_447" fill="white" stroke="gray" d="M168.5000108629465,414.5000064224005A6,6,0,1,1,156.5000108629465,414.5000064224005A6,6,0,1,1,168.5000108629465,414.5000064224005"></path><path id="kity_path_448" fill="none" stroke="gray"></path></g><path id="node_outline44" fill="none" stroke="none" d="M86.50000874698162,403.5000064224005h65a5,5,0,0,1,5,5v12a5,5,0,0,1,-5,5h-65a5,5,0,0,1,-5,-5v-12a5,5,0,0,1,5,-5z" stroke-width="3"></path><g id="node_text44" fill="black"><text id="kity_text_444" text-rendering="inherit" font-size="12" dy=".8em" y="406.7000064959129" x="91.50000874698162">Webpack</text></g></g><g id="minder_node45" opacity="1"><path id="kity_path_740" fill="rgba(0, 0, 0, .25)" stroke="none" d="M133.50000928342342,444.00000797212124h0a28,28,0,0,1,28,28v0a28,28,0,0,1,-28,28h0a28,28,0,0,1,-28,-28v0a28,28,0,0,1,28,-28z" display="none"></path><g id="node_expander44" style="cursor: pointer;" display="none"><path id="kity_path_455" fill="white" stroke="gray" d="M168.5000108629465,466.50000797212124A6,6,0,1,1,156.5000108629465,466.50000797212124A6,6,0,1,1,168.5000108629465,466.50000797212124"></path><path id="kity_path_456" fill="none" stroke="gray"></path></g><path id="node_outline45" fill="none" stroke="none" d="M104.50000928342342,455.50000797212124h47a5,5,0,0,1,5,5v12a5,5,0,0,1,-5,5h-47a5,5,0,0,1,-5,-5v-12a5,5,0,0,1,5,-5z" stroke-width="3"></path><g id="node_text45" fill="black"><text id="kity_text_452" text-rendering="inherit" font-size="12" dy=".8em" y="458.70000804563364" x="109.50000928342342">Rollup</text></g></g><g id="minder_node46" opacity="1"><path id="kity_path_741" fill="rgba(0, 0, 0, .25)" stroke="none" d="M134.00000934302807,498.000009521842h0a26,26,0,0,1,26,26v0a26,26,0,0,1,-26,26h0a26,26,0,0,1,-26,-26v0a26,26,0,0,1,26,-26z" display="none"></path><g id="node_expander45" style="cursor: pointer;" display="none"><path id="kity_path_463" fill="white" stroke="gray" d="M168.5000108629465,518.500009521842A6,6,0,1,1,156.5000108629465,518.500009521842A6,6,0,1,1,168.5000108629465,518.500009521842"></path><path id="kity_path_464" fill="none" stroke="gray"></path></g><path id="node_outline46" fill="none" stroke="none" d="M106.50000934302807,507.500009521842h45a5,5,0,0,1,5,5v12a5,5,0,0,1,-5,5h-45a5,5,0,0,1,-5,-5v-12a5,5,0,0,1,5,-5z" stroke-width="3"></path><g id="node_text46" fill="black"><text id="kity_text_460" text-rendering="inherit" font-size="12" dy=".8em" y="510.70000959535446" x="111.50000934302807">Parcel</text></g></g><g id="minder_node48" opacity="1"><path id="kity_path_742" fill="rgba(0, 0, 0, .25)" stroke="none" d="M176.00001062452793,561.000011369586h0a25,25,0,0,1,25,25v0a25,25,0,0,1,-25,25h0a25,25,0,0,1,-25,-25v0a25,25,0,0,1,25,-25z" display="none"></path><g id="node_expander47" style="cursor: pointer;" display="none"><path id="kity_path_482" fill="white" stroke="gray" d="M208.5000120550394,580.500011369586A6,6,0,1,1,196.5000120550394,580.500011369586A6,6,0,1,1,208.5000120550394,580.500011369586"></path><path id="kity_path_483" fill="none" stroke="gray"></path></g><path id="node_outline48" fill="none" stroke="none" d="M149.50001062452793,569.500011369586h42a5,5,0,0,1,5,5v12a5,5,0,0,1,-5,5h-42a5,5,0,0,1,-5,-5v-12a5,5,0,0,1,5,-5z" stroke-width="3"></path><g id="node_text48" fill="black"><text id="kity_text_479" text-rendering="inherit" font-size="12" dy=".8em" y="572.7000114430984" x="154.50001062452793">React</text></g></g><g id="minder_node49" opacity="1"><path id="kity_path_743" fill="rgba(0, 0, 0, .25)" stroke="none" d="M169.0000101774931,605.0000129193068h0a33,33,0,0,1,33,33v0a33,33,0,0,1,-33,33h0a33,33,0,0,1,-33,-33v0a33,33,0,0,1,33,-33z" display="none"></path><g id="node_expander48" style="cursor: pointer;" display="none"><path id="kity_path_490" fill="white" stroke="gray" d="M208.5000120550394,632.5000129193068A6,6,0,1,1,196.5000120550394,632.5000129193068A6,6,0,1,1,208.5000120550394,632.5000129193068"></path><path id="kity_path_491" fill="none" stroke="gray"></path></g><path id="node_outline49" fill="none" stroke="none" d="M134.5000101774931,621.5000129193068h57a5,5,0,0,1,5,5v12a5,5,0,0,1,-5,5h-57a5,5,0,0,1,-5,-5v-12a5,5,0,0,1,5,-5z" stroke-width="3"></path><g id="node_text49" fill="black"><text id="kity_text_487" text-rendering="inherit" font-size="12" dy=".8em" y="624.7000129928192" x="139.5000101774931">Angular</text></g></g><g id="minder_node50" opacity="1"><path id="kity_path_744" fill="rgba(0, 0, 0, .25)" stroke="none" d="M179.5000108629465,669.0000144690275h0a21,21,0,0,1,21,21v0a21,21,0,0,1,-21,21h0a21,21,0,0,1,-21,-21v0a21,21,0,0,1,21,-21z" display="none"></path><g id="node_expander49" style="cursor: pointer;" display="none"><path id="kity_path_498" fill="white" stroke="gray" d="M208.5000120550394,684.5000144690275A6,6,0,1,1,196.5000120550394,684.5000144690275A6,6,0,1,1,208.5000120550394,684.5000144690275"></path><path id="kity_path_499" fill="none" stroke="gray"></path></g><path id="node_outline50" fill="none" stroke="none" d="M157.5000108629465,673.5000144690275h34a5,5,0,0,1,5,5v12a5,5,0,0,1,-5,5h-34a5,5,0,0,1,-5,-5v-12a5,5,0,0,1,5,-5z" stroke-width="3"></path><g id="node_text50" fill="black"><text id="kity_text_495" text-rendering="inherit" font-size="12" dy=".8em" y="676.70001454254" x="162.5000108629465">Vue</text></g></g><g id="minder_node54" opacity="1"><path id="kity_path_745" fill="rgba(0, 0, 0, .25)" stroke="none" d="M183.0000105947256,851.0000202506781h0a33,33,0,0,1,33,33v0a33,33,0,0,1,-33,33h0a33,33,0,0,1,-33,-33v0a33,33,0,0,1,33,-33z" display="none"></path><g id="node_expander53" style="cursor: pointer;" display="none"><path id="kity_path_533" fill="white" stroke="gray" d="M222.50001247227192,878.5000202506781A6,6,0,1,1,210.50001247227192,878.5000202506781A6,6,0,1,1,222.50001247227192,878.5000202506781"></path><path id="kity_path_534" fill="none" stroke="gray"></path></g><path id="node_outline54" fill="none" stroke="none" d="M148.5000105947256,867.5000202506781h57a5,5,0,0,1,5,5v12a5,5,0,0,1,-5,5h-57a5,5,0,0,1,-5,-5v-12a5,5,0,0,1,5,-5z" stroke-width="3"></path><g id="node_text54" fill="black"><text id="kity_text_530" text-rendering="inherit" font-size="12" dy=".8em" y="870.7000203241905" x="153.5000105947256">Jasmine</text></g></g><g id="minder_node55" opacity="1"><path id="kity_path_746" fill="rgba(0, 0, 0, .25)" stroke="none" d="M187.50001089274883,908.0000218003988h0a28,28,0,0,1,28,28v0a28,28,0,0,1,-28,28h0a28,28,0,0,1,-28,-28v0a28,28,0,0,1,28,-28z" display="none"></path><g id="node_expander54" style="cursor: pointer;" display="none"><path id="kity_path_541" fill="white" stroke="gray" d="M222.50001247227192,930.5000218003988A6,6,0,1,1,210.50001247227192,930.5000218003988A6,6,0,1,1,222.50001247227192,930.5000218003988"></path><path id="kity_path_542" fill="none" stroke="gray"></path></g><path id="node_outline55" fill="none" stroke="none" d="M158.50001089274883,919.5000218003988h47a5,5,0,0,1,5,5v12a5,5,0,0,1,-5,5h-47a5,5,0,0,1,-5,-5v-12a5,5,0,0,1,5,-5z" stroke-width="3"></path><g id="node_text55" fill="black"><text id="kity_text_538" text-rendering="inherit" font-size="12" dy=".8em" y="922.7000218739113" x="163.50001089274883">Karma</text></g></g><g id="minder_node56" opacity="1"><path id="kity_path_747" fill="rgba(0, 0, 0, .25)" stroke="none" d="M194.00001130998135,967.0000233501196h0a21,21,0,0,1,21,21v0a21,21,0,0,1,-21,21h0a21,21,0,0,1,-21,-21v0a21,21,0,0,1,21,-21z" display="none"></path><g id="node_expander55" style="cursor: pointer;" display="none"><path id="kity_path_549" fill="white" stroke="gray" d="M222.50001247227192,982.5000233501196A6,6,0,1,1,210.50001247227192,982.5000233501196A6,6,0,1,1,222.50001247227192,982.5000233501196"></path><path id="kity_path_550" fill="none" stroke="gray"></path></g><path id="node_outline56" fill="none" stroke="none" d="M172.50001130998135,971.5000233501196h33a5,5,0,0,1,5,5v12a5,5,0,0,1,-5,5h-33a5,5,0,0,1,-5,-5v-12a5,5,0,0,1,5,-5z" stroke-width="3"></path><g id="node_text56" fill="black"><text id="kity_text_546" text-rendering="inherit" font-size="12" dy=".8em" y="974.700023423632" x="177.50001130998135">Jest</text></g></g><g id="minder_node59" opacity="1"><path id="kity_path_748" fill="rgba(0, 0, 0, .25)" stroke="none" d="M157.50001020729542,1029.0000251978636h0a21,21,0,0,1,21,21v0a21,21,0,0,1,-21,21h0a21,21,0,0,1,-21,-21v0a21,21,0,0,1,21,-21z" display="none"></path><g id="node_expander58" style="cursor: pointer;" display="none"><path id="kity_path_573" fill="white" stroke="gray" d="M186.5000113993883,1044.5000251978636A6,6,0,1,1,174.5000113993883,1044.5000251978636A6,6,0,1,1,186.5000113993883,1044.5000251978636"></path><path id="kity_path_574" fill="none" stroke="gray"></path></g><path id="node_outline59" fill="none" stroke="none" d="M135.50001020729542,1033.5000251978636h34a5,5,0,0,1,5,5v12a5,5,0,0,1,-5,5h-34a5,5,0,0,1,-5,-5v-12a5,5,0,0,1,5,-5z" stroke-width="3"></path><g id="node_text59" fill="black"><text id="kity_text_570" text-rendering="inherit" font-size="12" dy=".8em" y="1036.700025271376" x="140.50001020729542">Sort</text></g></g><g id="minder_node60" opacity="1"><path id="kity_path_749" fill="rgba(0, 0, 0, .25)" stroke="none" d="M156.50001014769077,1080.0000267475843h0a22,22,0,0,1,22,22v0a22,22,0,0,1,-22,22h0a22,22,0,0,1,-22,-22v0a22,22,0,0,1,22,-22z" display="none"></path><g id="node_expander59" style="cursor: pointer;" display="none"><path id="kity_path_581" fill="white" stroke="gray" d="M186.5000113993883,1096.5000267475843A6,6,0,1,1,174.5000113993883,1096.5000267475843A6,6,0,1,1,186.5000113993883,1096.5000267475843"></path><path id="kity_path_582" fill="none" stroke="gray"></path></g><path id="node_outline60" fill="none" stroke="none" d="M133.50001014769077,1085.5000267475843h36a5,5,0,0,1,5,5v12a5,5,0,0,1,-5,5h-36a5,5,0,0,1,-5,-5v-12a5,5,0,0,1,5,-5z" stroke-width="3"></path><g id="node_text60" fill="black"><text id="kity_text_578" text-rendering="inherit" font-size="12" dy=".8em" y="1088.7000268210968" x="138.50001014769077">Tree</text></g></g><g id="minder_node62" opacity="1"><path id="kity_path_750" fill="rgba(0, 0, 0, .25)" stroke="none" d="M82.00000692903996,1112.000028654933h0a54,54,0,0,1,54,54v0a54,54,0,0,1,-54,54h0a54,54,0,0,1,-54,-54v0a54,54,0,0,1,54,-54z" display="none"></path><g id="node_expander61" style="cursor: pointer;" display="none"><path id="kity_path_597" fill="white" stroke="gray" d="M139.50000999867916,1160.500028654933A6,6,0,1,1,127.50000999867916,1160.500028654933A6,6,0,1,1,139.50000999867916,1160.500028654933"></path><path id="kity_path_598" fill="none" stroke="gray"></path></g><path id="node_outline62" fill="none" stroke="none" d="M25.500006929039955,1149.500028654933h97a5,5,0,0,1,5,5v12a5,5,0,0,1,-5,5h-97a5,5,0,0,1,-5,-5v-12a5,5,0,0,1,5,-5z" stroke-width="3"></path><g id="node_text62" fill="black"><text id="kity_text_594" text-rendering="inherit" font-size="12" dy=".8em" y="1152.7000287284454" x="30.500006929039955">Service Worker</text></g></g><g id="minder_node20" opacity="1"><path id="kity_path_723" fill="rgba(0, 0, 0, .25)" stroke="none" d="M1018.5000353902578,810.0000191181898h0a36,36,0,0,1,36,36v0a36,36,0,0,1,-36,36h0a36,36,0,0,1,-36,-36v0a36,36,0,0,1,36,-36z" display="none"></path><g id="node_expander19" style="cursor: pointer;" display="none"><path id="kity_path_207" fill="white" stroke="gray" d="M975.5000349134207,840.5000191181898A6,6,0,1,1,963.5000349134207,840.5000191181898A6,6,0,1,1,975.5000349134207,840.5000191181898"></path><path id="kity_path_208" fill="none" stroke="gray"></path></g><path id="node_outline20" fill="none" stroke="none" d="M980.5000353902578,829.5000191181898h64a5,5,0,0,1,5,5v12a5,5,0,0,1,-5,5h-64a5,5,0,0,1,-5,-5v-12a5,5,0,0,1,5,-5z" stroke-width="3"></path><g id="node_text20" fill="black"><text id="kity_text_204" text-rendering="inherit" font-size="12" dy=".8em" y="832.7000191917023" x="985.5000353902578">Sass/Scss</text></g></g><g id="minder_node21" opacity="1"><path id="kity_path_724" fill="rgba(0, 0, 0, .25)" stroke="none" d="M1015.0000353902578,865.0000206679106h0a33,33,0,0,1,33,33v0a33,33,0,0,1,-33,33h0a33,33,0,0,1,-33,-33v0a33,33,0,0,1,33,-33z" display="none"></path><g id="node_expander20" style="cursor: pointer;" display="none"><path id="kity_path_215" fill="white" stroke="gray" d="M975.5000349134207,892.5000206679106A6,6,0,1,1,963.5000349134207,892.5000206679106A6,6,0,1,1,975.5000349134207,892.5000206679106"></path><path id="kity_path_216" fill="none" stroke="gray"></path></g><path id="node_outline21" fill="none" stroke="none" d="M980.5000353902578,881.5000206679106h57a5,5,0,0,1,5,5v12a5,5,0,0,1,-5,5h-57a5,5,0,0,1,-5,-5v-12a5,5,0,0,1,5,-5z" stroke-width="3"></path><g id="node_text21" fill="black"><text id="kity_text_212" text-rendering="inherit" font-size="12" dy=".8em" y="884.700020741423" x="985.5000353902578">PostCSS</text></g></g><g id="minder_node22" opacity="1"><path id="kity_path_725" fill="rgba(0, 0, 0, .25)" stroke="none" d="M1002.5000353902578,929.0000222176313h0a21,21,0,0,1,21,21v0a21,21,0,0,1,-21,21h0a21,21,0,0,1,-21,-21v0a21,21,0,0,1,21,-21z" display="none"></path><g id="node_expander21" style="cursor: pointer;" display="none"><path id="kity_path_223" fill="white" stroke="gray" d="M975.5000349134207,944.5000222176313A6,6,0,1,1,963.5000349134207,944.5000222176313A6,6,0,1,1,975.5000349134207,944.5000222176313"></path><path id="kity_path_224" fill="none" stroke="gray"></path></g><path id="node_outline22" fill="none" stroke="none" d="M980.5000353902578,933.5000222176313h35a5,5,0,0,1,5,5v12a5,5,0,0,1,-5,5h-35a5,5,0,0,1,-5,-5v-12a5,5,0,0,1,5,-5z" stroke-width="3"></path><g id="node_text22" fill="black"><text id="kity_text_220" text-rendering="inherit" font-size="12" dy=".8em" y="936.7000222911438" x="985.5000353902578">Less</text></g></g><g id="minder_node15" opacity="1"><path id="kity_path_719" fill="rgba(0, 0, 0, .25)" stroke="none" d="M907.5000324696302,604.0000126212835h0a24,24,0,0,1,24,24v0a24,24,0,0,1,-24,24h0a24,24,0,0,1,-24,-24v0a24,24,0,0,1,24,-24z" display="none"></path><g id="node_expander14" style="cursor: pointer;" display="none"><path id="kity_path_163" fill="white" stroke="gray" d="M877.5000319927931,622.5000126212835A6,6,0,1,1,865.5000319927931,622.5000126212835A6,6,0,1,1,877.5000319927931,622.5000126212835"></path><path id="kity_path_164" fill="none" stroke="gray"></path></g><path id="node_outline15" fill="none" stroke="none" d="M882.5000324696302,611.5000126212835h39a5,5,0,0,1,5,5v12a5,5,0,0,1,-5,5h-39a5,5,0,0,1,-5,-5v-12a5,5,0,0,1,5,-5z" stroke-width="3"></path><g id="node_text15" fill="black"><text id="kity_text_160" text-rendering="inherit" font-size="12" dy=".8em" y="614.700012694796" x="887.5000324696302">basic</text></g></g><g id="minder_node16"><path id="kity_path_720" fill="rgba(0, 0, 0, .25)" stroke="none" d="M1010.0000324696302,556.0000141710043h0a124,124,0,0,1,124,124v0a124,124,0,0,1,-124,124h0a124,124,0,0,1,-124,-124v0a124,124,0,0,1,124,-124z" display="none"></path><g id="node_expander15" style="cursor: pointer;" display="none"><path id="kity_path_171" fill="white" stroke="gray" d="M877.5000319927931,674.5000141710043A6,6,0,1,1,865.5000319927931,674.5000141710043A6,6,0,1,1,877.5000319927931,674.5000141710043"></path><path id="kity_path_172" fill="none" stroke="gray"></path></g><path id="node_outline16" fill="none" stroke="none" d="M882.5000324696302,663.5000141710043h230a5,5,0,0,1,5,5v12a5,5,0,0,1,-5,5h-230a5,5,0,0,1,-5,-5v-12a5,5,0,0,1,5,-5z" stroke-width="3"></path><g id="node_text16" fill="black"><text id="kity_text_168" text-rendering="inherit" font-size="12" dy=".8em" y="666.7000142445168" x="887.5000324696302">Responsive design and Media Queries</text></g></g><g id="minder_node17"><path id="kity_path_721" fill="rgba(0, 0, 0, .25)" stroke="none" d="M915.5000324696302,701.0000157207251h0a31,31,0,0,1,31,31v0a31,31,0,0,1,-31,31h0a31,31,0,0,1,-31,-31v0a31,31,0,0,1,31,-31z" display="none"></path><g id="node_expander16" style="cursor: pointer;" display="none"><path id="kity_path_179" fill="white" stroke="gray" d="M877.5000319927931,726.5000157207251A6,6,0,1,1,865.5000319927931,726.5000157207251A6,6,0,1,1,877.5000319927931,726.5000157207251"></path><path id="kity_path_180" fill="none" stroke="gray"></path></g><path id="node_outline17" fill="none" stroke="none" d="M882.5000324696302,715.5000157207251h55a5,5,0,0,1,5,5v12a5,5,0,0,1,-5,5h-55a5,5,0,0,1,-5,-5v-12a5,5,0,0,1,5,-5z" stroke-width="3"></path><g id="node_text17" fill="black"><text id="kity_text_176" text-rendering="inherit" font-size="12" dy=".8em" y="718.7000157942375" x="887.5000324696302">Layouts</text></g></g><g id="minder_node18"><path id="kity_path_722" fill="rgba(0, 0, 0, .25)" stroke="none" d="M924.5000324696302,744.0000172704458h0a40,40,0,0,1,40,40v0a40,40,0,0,1,-40,40h0a40,40,0,0,1,-40,-40v0a40,40,0,0,1,40,-40z" display="none"></path><g id="node_expander17" style="cursor: pointer;" display="none"><path id="kity_path_187" fill="white" stroke="gray" d="M877.5000319927931,778.5000172704458A6,6,0,1,1,865.5000319927931,778.5000172704458A6,6,0,1,1,877.5000319927931,778.5000172704458"></path><path id="kity_path_188" fill="none" stroke="gray"></path></g><path id="node_outline18" fill="none" stroke="none" d="M882.5000324696302,767.5000172704458h71a5,5,0,0,1,5,5v12a5,5,0,0,1,-5,5h-71a5,5,0,0,1,-5,-5v-12a5,5,0,0,1,5,-5z" stroke-width="3"></path><g id="node_text18" fill="black"><text id="kity_text_184" text-rendering="inherit" font-size="12" dy=".8em" y="770.7000173439583" x="887.5000324696302">Animation</text></g></g><g id="minder_node3" opacity="1"><path id="kity_path_708" fill="rgba(0, 0, 0, .25)" stroke="none" d="M940.0000334233046,11.999994978308678h0a24,24,0,0,1,24,24v0a24,24,0,0,1,-24,24h0a24,24,0,0,1,-24,-24v0a24,24,0,0,1,24,-24z" display="none"></path><g id="node_expander2" style="cursor: pointer;" display="none"><path id="kity_path_44" fill="white" stroke="gray" d="M909.5000329464674,30.499994978308678A6,6,0,1,1,897.5000329464674,30.499994978308678A6,6,0,1,1,909.5000329464674,30.499994978308678"></path><path id="kity_path_45" fill="none" stroke="gray"></path></g><path id="node_outline3" fill="none" stroke="none" d="M914.5000334233046,19.499994978308678h41a5,5,0,0,1,5,5v12a5,5,0,0,1,-5,5h-41a5,5,0,0,1,-5,-5v-12a5,5,0,0,1,5,-5z" stroke-width="3"></path><g id="node_text3" fill="black"><text id="kity_text_41" text-rendering="inherit" font-size="12" dy=".8em" y="22.699995051821077" x="919.5000334233046">HTTP</text></g></g><g id="minder_node4" opacity="1"><path id="kity_path_709" fill="rgba(0, 0, 0, .25)" stroke="none" d="M944.0000334233046,59.99999652802944h0a28,28,0,0,1,28,28v0a28,28,0,0,1,-28,28h0a28,28,0,0,1,-28,-28v0a28,28,0,0,1,28,-28z" display="none"></path><g id="node_expander3" style="cursor: pointer;" display="none"><path id="kity_path_52" fill="white" stroke="gray" d="M909.5000329464674,82.49999652802944A6,6,0,1,1,897.5000329464674,82.49999652802944A6,6,0,1,1,909.5000329464674,82.49999652802944"></path><path id="kity_path_53" fill="none" stroke="gray" d="M899.0000329464674,82.49999652802944L908.0000329464674,82.49999652802944"></path></g><path id="node_outline4" fill="none" stroke="none" d="M914.5000334233046,71.49999652802944h34a5,5,0,0,1,5,5v12a5,5,0,0,1,-5,5h-34a5,5,0,0,1,-5,-5v-12a5,5,0,0,1,5,-5z" stroke-width="3"></path><g id="node_text4" fill="black"><text id="kity_text_49" text-rendering="inherit" font-size="12" dy=".8em" y="74.69999660154184" x="919.5000334233046">TCP</text></g></g><g id="minder_node7" opacity="1"><path id="kity_path_710" fill="rgba(0, 0, 0, .25)" stroke="none" d="M956.0000334233046,100.9999980777502h0a39,39,0,0,1,39,39v0a39,39,0,0,1,-39,39h0a39,39,0,0,1,-39,-39v0a39,39,0,0,1,39,-39z" display="none"></path><g id="node_expander6" style="cursor: pointer;" display="none"><path id="kity_path_76" fill="white" stroke="gray" d="M909.5000329464674,134.4999980777502A6,6,0,1,1,897.5000329464674,134.4999980777502A6,6,0,1,1,909.5000329464674,134.4999980777502"></path><path id="kity_path_77" fill="none" stroke="gray"></path></g><path id="node_outline7" fill="none" stroke="none" d="M914.5000334233046,123.4999980777502h36a5,5,0,0,1,5,5v12a5,5,0,0,1,-5,5h-36a5,5,0,0,1,-5,-5v-12a5,5,0,0,1,5,-5z" stroke-width="3"></path><g id="node_text7" fill="black"><text id="kity_text_73" text-rendering="inherit" font-size="12" dy=".8em" y="126.6999981512626" x="919.5000334233046">UDP</text></g></g><g id="minder_node24" opacity="1"><path id="kity_path_726" fill="rgba(0, 0, 0, .25)" stroke="none" d="M1017.5000337213278,922.0000240653753h0a90,90,0,0,1,90,90v0a90,90,0,0,1,-90,90h0a90,90,0,0,1,-90,-90v0a90,90,0,0,1,90,-90z" display="none"></path><g id="node_expander23" style="cursor: pointer;" display="none"><path id="kity_path_249" fill="white" stroke="gray" d="M919.5000332444906,1006.5000240653753A6,6,0,1,1,907.5000332444906,1006.5000240653753A6,6,0,1,1,919.5000332444906,1006.5000240653753"></path><path id="kity_path_250" fill="none" stroke="gray"></path></g><path id="node_outline24" fill="none" stroke="none" d="M924.5000337213278,995.5000240653753h165a5,5,0,0,1,5,5v12a5,5,0,0,1,-5,5h-165a5,5,0,0,1,-5,-5v-12a5,5,0,0,1,5,-5z" stroke-width="3"></path><g id="node_text24" fill="black"><text id="kity_text_246" text-rendering="inherit" font-size="12" dy=".8em" y="998.7000241388878" x="929.5000337213278">Syntax and Basic Construct</text></g></g><g id="minder_node25" opacity="1"><path id="kity_path_727" fill="rgba(0, 0, 0, .25)" stroke="none" d="M993.5000337213278,998.0000256150961h0a66,66,0,0,1,66,66v0a66,66,0,0,1,-66,66h0a66,66,0,0,1,-66,-66v0a66,66,0,0,1,66,-66z" display="none"></path><g id="node_expander24" style="cursor: pointer;" display="none"><path id="kity_path_257" fill="white" stroke="gray" d="M919.5000332444906,1058.500025615096A6,6,0,1,1,907.5000332444906,1058.500025615096A6,6,0,1,1,919.5000332444906,1058.500025615096"></path><path id="kity_path_258" fill="none" stroke="gray"></path></g><path id="node_outline25" fill="none" stroke="none" d="M924.5000337213278,1047.500025615096h121a5,5,0,0,1,5,5v12a5,5,0,0,1,-5,5h-121a5,5,0,0,1,-5,-5v-12a5,5,0,0,1,5,-5z" stroke-width="3"></path><g id="node_text25" fill="black"><text id="kity_text_254" text-rendering="inherit" font-size="12" dy=".8em" y="1050.7000256886085" x="929.5000337213278">DOM Manipulation</text></g></g><g id="minder_node26" opacity="1"><path id="kity_path_728" fill="rgba(0, 0, 0, .25)" stroke="none" d="M992.5000337213278,1051.0000271648169h0a65,65,0,0,1,65,65v0a65,65,0,0,1,-65,65h0a65,65,0,0,1,-65,-65v0a65,65,0,0,1,65,-65z" display="none"></path><g id="node_expander25" style="cursor: pointer;" display="none"><path id="kity_path_265" fill="white" stroke="gray" d="M919.5000332444906,1110.5000271648169A6,6,0,1,1,907.5000332444906,1110.5000271648169A6,6,0,1,1,919.5000332444906,1110.5000271648169"></path><path id="kity_path_266" fill="none" stroke="gray"></path></g><path id="node_outline26" fill="none" stroke="none" d="M924.5000337213278,1099.5000271648169h119a5,5,0,0,1,5,5v12a5,5,0,0,1,-5,5h-119a5,5,0,0,1,-5,-5v-12a5,5,0,0,1,5,-5z" stroke-width="3"></path><g id="node_text26" fill="black"><text id="kity_text_262" text-rendering="inherit" font-size="12" dy=".8em" y="1102.7000272383293" x="929.5000337213278">Regular Expression</text></g></g><g id="minder_node27" opacity="1"><path id="kity_path_729" fill="rgba(0, 0, 0, .25)" stroke="none" d="M1003.0000337213278,1093.0000287145376h0a75,75,0,0,1,75,75v0a75,75,0,0,1,-75,75h0a75,75,0,0,1,-75,-75v0a75,75,0,0,1,75,-75z" display="none"></path><g id="node_expander26" style="cursor: pointer;" display="none"><path id="kity_path_273" fill="white" stroke="gray" d="M919.5000332444906,1162.5000287145376A6,6,0,1,1,907.5000332444906,1162.5000287145376A6,6,0,1,1,919.5000332444906,1162.5000287145376"></path><path id="kity_path_274" fill="none" stroke="gray"></path></g><path id="node_outline27" fill="none" stroke="none" d="M924.5000337213278,1151.5000287145376h138a5,5,0,0,1,5,5v12a5,5,0,0,1,-5,5h-138a5,5,0,0,1,-5,-5v-12a5,5,0,0,1,5,-5z" stroke-width="3"></path><g id="node_text27" fill="black"><text id="kity_text_270" text-rendering="inherit" font-size="12" dy=".8em" y="1154.70002878805" x="929.5000337213278">Fetch API / AJAX(XHR)</text></g></g><g id="minder_node28" opacity="1"><path id="kity_path_730" fill="rgba(0, 0, 0, .25)" stroke="none" d="M949.5000337213278,1196.0000302642584h0a24,24,0,0,1,24,24v0a24,24,0,0,1,-24,24h0a24,24,0,0,1,-24,-24v0a24,24,0,0,1,24,-24z" display="none"></path><g id="node_expander27" style="cursor: pointer;" display="none"><path id="kity_path_281" fill="white" stroke="gray" d="M919.5000332444906,1214.5000302642584A6,6,0,1,1,907.5000332444906,1214.5000302642584A6,6,0,1,1,919.5000332444906,1214.5000302642584"></path><path id="kity_path_282" fill="none" stroke="gray"></path></g><path id="node_outline28" fill="none" stroke="none" d="M924.5000337213278,1203.5000302642584h39a5,5,0,0,1,5,5v12a5,5,0,0,1,-5,5h-39a5,5,0,0,1,-5,-5v-12a5,5,0,0,1,5,-5z" stroke-width="3"></path><g id="node_text28" fill="black"><text id="kity_text_278" text-rendering="inherit" font-size="12" dy=".8em" y="1206.7000303377708" x="929.5000337213278">ES6+</text></g></g><g id="minder_node29" opacity="1"><path id="kity_path_731" fill="rgba(0, 0, 0, .25)" stroke="none" d="M992.5000337213278,1207.0000318139791h0a65,65,0,0,1,65,65v0a65,65,0,0,1,-65,65h0a65,65,0,0,1,-65,-65v0a65,65,0,0,1,65,-65z" display="none"></path><g id="node_expander28" style="cursor: pointer;" display="none"><path id="kity_path_289" fill="white" stroke="gray" d="M919.5000332444906,1266.5000318139791A6,6,0,1,1,907.5000332444906,1266.5000318139791A6,6,0,1,1,919.5000332444906,1266.5000318139791"></path><path id="kity_path_290" fill="none" stroke="gray"></path></g><path id="node_outline29" fill="none" stroke="none" d="M924.5000337213278,1255.5000318139791h120a5,5,0,0,1,5,5v12a5,5,0,0,1,-5,5h-120a5,5,0,0,1,-5,-5v-12a5,5,0,0,1,5,-5z" stroke-width="3"></path><g id="node_text29" fill="black"><text id="kity_text_286" text-rendering="inherit" font-size="12" dy=".8em" y="1258.7000318874916" x="929.5000337213278">modular JavaScript</text></g></g><g id="minder_node37"><path id="kity_path_734" fill="rgba(0, 0, 0, .25)" stroke="none" d="M976.0000343769789,1420.000037059188h0a28,28,0,0,1,28,28v0a28,28,0,0,1,-28,28h0a28,28,0,0,1,-28,-28v0a28,28,0,0,1,28,-28z" display="none"></path><g id="node_expander36" style="cursor: pointer;" display="none"><path id="kity_path_389" fill="white" stroke="gray" d="M941.5000339001417,1442.500037059188A6,6,0,1,1,929.5000339001417,1442.500037059188A6,6,0,1,1,941.5000339001417,1442.500037059188"></path><path id="kity_path_390" fill="none" stroke="gray"></path></g><path id="node_outline37" fill="none" stroke="none" d="M946.5000343769789,1431.500037059188h47a5,5,0,0,1,5,5v12a5,5,0,0,1,-5,5h-47a5,5,0,0,1,-5,-5v-12a5,5,0,0,1,5,-5z" stroke-width="3"></path><g id="node_text37" fill="black"><text id="kity_text_386" text-rendering="inherit" font-size="12" dy=".8em" y="1434.7000371327003" x="951.5000343769789">HTTPS</text></g></g><g id="minder_node38"><path id="kity_path_735" fill="rgba(0, 0, 0, .25)" stroke="none" d="M1028.0000343769789,1422.0000386089087h0a78,78,0,0,1,78,78v0a78,78,0,0,1,-78,78h0a78,78,0,0,1,-78,-78v0a78,78,0,0,1,78,-78z" display="none"></path><g id="node_expander37" style="cursor: pointer;" display="none"><path id="kity_path_397" fill="white" stroke="gray" d="M941.5000339001417,1494.5000386089087A6,6,0,1,1,929.5000339001417,1494.5000386089087A6,6,0,1,1,941.5000339001417,1494.5000386089087"></path><path id="kity_path_398" fill="none" stroke="gray"></path></g><path id="node_outline38" fill="none" stroke="none" d="M946.5000343769789,1483.5000386089087h143a5,5,0,0,1,5,5v12a5,5,0,0,1,-5,5h-143a5,5,0,0,1,-5,-5v-12a5,5,0,0,1,5,-5z" stroke-width="3"></path><g id="node_text38" fill="black"><text id="kity_text_394" text-rendering="inherit" font-size="12" dy=".8em" y="1486.700038682421" x="951.5000343769789">Content Security Policy</text></g></g><g id="minder_node39"><path id="kity_path_736" fill="rgba(0, 0, 0, .25)" stroke="none" d="M973.5000343769789,1526.0000401586294h0a26,26,0,0,1,26,26v0a26,26,0,0,1,-26,26h0a26,26,0,0,1,-26,-26v0a26,26,0,0,1,26,-26z" display="none"></path><g id="node_expander38" style="cursor: pointer;" display="none"><path id="kity_path_405" fill="white" stroke="gray" d="M941.5000339001417,1546.5000401586294A6,6,0,1,1,929.5000339001417,1546.5000401586294A6,6,0,1,1,941.5000339001417,1546.5000401586294"></path><path id="kity_path_406" fill="none" stroke="gray"></path></g><path id="node_outline39" fill="none" stroke="none" d="M946.5000343769789,1535.5000401586294h43a5,5,0,0,1,5,5v12a5,5,0,0,1,-5,5h-43a5,5,0,0,1,-5,-5v-12a5,5,0,0,1,5,-5z" stroke-width="3"></path><g id="node_text39" fill="black"><text id="kity_text_402" text-rendering="inherit" font-size="12" dy=".8em" y="1538.7000402321419" x="951.5000343769789">CORS</text></g></g><g id="minder_node63" opacity="1"><path id="kity_path_706" fill="rgba(0, 0, 0, .25)" stroke="none" d="M283.50001479685307,1267.5000321120024h72a5,5,0,0,1,5,5v18a5,5,0,0,1,-5,5h-72a5,5,0,0,1,-5,-5v-18a5,5,0,0,1,5,-5z" display="none"></path><g id="node_expander62" style="cursor: pointer;"><path id="kity_path_660" fill="white" stroke="gray" d="M364.5000167042017,1276.5000321120024A6,6,0,1,1,352.5000167042017,1276.5000321120024A6,6,0,1,1,364.5000167042017,1276.5000321120024"></path><path id="kity_path_661" fill="none" stroke="gray" d="M354.0000167042017,1276.5000321120024L363.0000167042017,1276.5000321120024"></path></g><path id="node_outline63" fill="rgb(238, 243, 246)" stroke="rgb(115, 161, 191)" d="M277.50001479685307,1263.5000321120024h71a3,3,0,0,1,3,3v20a3,3,0,0,1,-3,3h-71a3,3,0,0,1,-3,-3v-20a3,3,0,0,1,3,-3z" stroke-width="1"></path><g id="node_text63" fill="black"><text id="kity_text_657" text-rendering="inherit" font-size="14" dy=".8em" y="1267.400032144785" x="294.50001479685307">Tools</text></g></g><g id="minder_node41" opacity="1"><path id="kity_path_737" fill="rgba(0, 0, 0, .25)" stroke="none" d="M1032.5000364035368,1596.0000420063734h0a18,18,0,0,1,18,18v0a18,18,0,0,1,-18,18h0a18,18,0,0,1,-18,-18v0a18,18,0,0,1,18,-18z" display="none"></path><g id="node_expander40" style="cursor: pointer;" display="none"><path id="kity_path_421" fill="white" stroke="gray" d="M1009.5000359266996,1608.5000420063734A6,6,0,1,1,997.5000359266996,1608.5000420063734A6,6,0,1,1,1009.5000359266996,1608.5000420063734"></path><path id="kity_path_422" fill="none" stroke="gray"></path></g><path id="node_outline41" fill="none" stroke="none" d="M1014.5000364035368,1597.5000420063734h27a5,5,0,0,1,5,5v12a5,5,0,0,1,-5,5h-27a5,5,0,0,1,-5,-5v-12a5,5,0,0,1,5,-5z" stroke-width="3"></path><g id="node_text41" fill="black"><text id="kity_text_418" text-rendering="inherit" font-size="12" dy=".8em" y="1600.7000420798859" x="1019.5000364035368">Git</text></g></g><g id="minder_node42" opacity="1"><path id="kity_path_738" fill="rgba(0, 0, 0, .25)" stroke="none" d="M1037.0000364035368,1644.0000435560942h0a22,22,0,0,1,22,22v0a22,22,0,0,1,-22,22h0a22,22,0,0,1,-22,-22v0a22,22,0,0,1,22,-22z" display="none"></path><g id="node_expander41" style="cursor: pointer;" display="none"><path id="kity_path_429" fill="white" stroke="gray" d="M1009.5000359266996,1660.5000435560942A6,6,0,1,1,997.5000359266996,1660.5000435560942A6,6,0,1,1,1009.5000359266996,1660.5000435560942"></path><path id="kity_path_430" fill="none" stroke="gray"></path></g><path id="node_outline42" fill="none" stroke="none" d="M1014.5000364035368,1649.5000435560942h35a5,5,0,0,1,5,5v12a5,5,0,0,1,-5,5h-35a5,5,0,0,1,-5,-5v-12a5,5,0,0,1,5,-5z" stroke-width="3"></path><g id="node_text42" fill="black"><text id="kity_text_426" text-rendering="inherit" font-size="12" dy=".8em" y="1652.7000436296066" x="1019.5000364035368">SVN</text></g></g><g id="minder_node64"><path id="kity_path_751" fill="rgba(0, 0, 0, .25)" stroke="none" d="M205.50001122057438,1196.0000305622816h0a34,34,0,0,1,34,34v0a34,34,0,0,1,-34,34h0a34,34,0,0,1,-34,-34v0a34,34,0,0,1,34,-34z" display="none"></path><g id="node_expander63" style="cursor: pointer;" display="none"><path id="kity_path_668" fill="white" stroke="gray" d="M246.50001318752766,1224.5000305622816A6,6,0,1,1,234.50001318752766,1224.5000305622816A6,6,0,1,1,246.50001318752766,1224.5000305622816"></path><path id="kity_path_669" fill="none" stroke="gray"></path></g><path id="node_outline64" fill="none" stroke="none" d="M169.50001122057438,1213.5000305622816h60a5,5,0,0,1,5,5v12a5,5,0,0,1,-5,5h-60a5,5,0,0,1,-5,-5v-12a5,5,0,0,1,5,-5z" stroke-width="3"></path><g id="node_text64" fill="black"><text id="kity_text_665" text-rendering="inherit" font-size="12" dy=".8em" y="1216.700030635794" x="174.50001122057438">Postman</text></g></g><g id="minder_node65"><path id="kity_path_752" fill="rgba(0, 0, 0, .25)" stroke="none" d="M210.5000115185976,1253.0000321120024h0a29,29,0,0,1,29,29v0a29,29,0,0,1,-29,29h0a29,29,0,0,1,-29,-29v0a29,29,0,0,1,29,-29z" display="none"></path><g id="node_expander64" style="cursor: pointer;" display="none"><path id="kity_path_676" fill="white" stroke="gray" d="M246.50001318752766,1276.5000321120024A6,6,0,1,1,234.50001318752766,1276.5000321120024A6,6,0,1,1,246.50001318752766,1276.5000321120024"></path><path id="kity_path_677" fill="none" stroke="gray"></path></g><path id="node_outline65" fill="none" stroke="none" d="M179.5000115185976,1265.5000321120024h50a5,5,0,0,1,5,5v12a5,5,0,0,1,-5,5h-50a5,5,0,0,1,-5,-5v-12a5,5,0,0,1,5,-5z" stroke-width="3"></path><g id="node_text65" fill="black"><text id="kity_text_673" text-rendering="inherit" font-size="12" dy=".8em" y="1268.7000321855148" x="184.5000115185976">Fiddler</text></g></g><g id="minder_node66"><path id="kity_path_753" fill="rgba(0, 0, 0, .25)" stroke="none" d="M203.5000111013651,1298.0000336617231h0a36,36,0,0,1,36,36v0a36,36,0,0,1,-36,36h0a36,36,0,0,1,-36,-36v0a36,36,0,0,1,36,-36z" display="none"></path><g id="node_expander65" style="cursor: pointer;" display="none"><path id="kity_path_684" fill="white" stroke="gray" d="M246.50001318752766,1328.5000336617231A6,6,0,1,1,234.50001318752766,1328.5000336617231A6,6,0,1,1,246.50001318752766,1328.5000336617231"></path><path id="kity_path_685" fill="none" stroke="gray"></path></g><path id="node_outline66" fill="none" stroke="none" d="M165.5000111013651,1317.5000336617231h64a5,5,0,0,1,5,5v12a5,5,0,0,1,-5,5h-64a5,5,0,0,1,-5,-5v-12a5,5,0,0,1,5,-5z" stroke-width="3"></path><g id="node_text66" fill="black"><text id="kity_text_681" text-rendering="inherit" font-size="12" dy=".8em" y="1320.7000337352356" x="170.5000111013651">DevTools</text></g></g><g id="minder_node9" opacity="1"><path id="kity_path_711" fill="rgba(0, 0, 0, .25)" stroke="none" d="M929.5000331252813,230.00000147521496h0a24,24,0,0,1,24,24v0a24,24,0,0,1,-24,24h0a24,24,0,0,1,-24,-24v0a24,24,0,0,1,24,-24z" display="none"></path><g id="node_expander8" style="cursor: pointer;" display="none"><path id="kity_path_92" fill="white" stroke="gray" d="M899.5000326484442,248.50000147521496A6,6,0,1,1,887.5000326484442,248.50000147521496A6,6,0,1,1,899.5000326484442,248.50000147521496"></path><path id="kity_path_93" fill="none" stroke="gray"></path></g><path id="node_outline9" fill="none" stroke="none" d="M904.5000331252813,237.50000147521496h39a5,5,0,0,1,5,5v12a5,5,0,0,1,-5,5h-39a5,5,0,0,1,-5,-5v-12a5,5,0,0,1,5,-5z" stroke-width="3"></path><g id="node_text9" fill="black"><text id="kity_text_89" text-rendering="inherit" font-size="12" dy=".8em" y="240.70000154872736" x="909.5000331252813">basic</text></g></g><g id="minder_node10" opacity="1"><path id="kity_path_712" fill="rgba(0, 0, 0, .25)" stroke="none" d="M966.0000331252813,247.00000302493572h0a59,59,0,0,1,59,59v0a59,59,0,0,1,-59,59h0a59,59,0,0,1,-59,-59v0a59,59,0,0,1,59,-59z" display="none"></path><g id="node_expander9" style="cursor: pointer;" display="none"><path id="kity_path_102" fill="white" stroke="gray" d="M899.5000326484442,300.5000030249357A6,6,0,1,1,887.5000326484442,300.5000030249357A6,6,0,1,1,899.5000326484442,300.5000030249357"></path><path id="kity_path_103" fill="none" stroke="gray"></path></g><path id="node_outline10" fill="none" stroke="none" d="M904.5000331252813,289.5000030249357h107a5,5,0,0,1,5,5v12a5,5,0,0,1,-5,5h-107a5,5,0,0,1,-5,-5v-12a5,5,0,0,1,5,-5z" stroke-width="3"></path><g id="node_text10" fill="black"><text id="kity_text_99" text-rendering="inherit" font-size="12" dy=".8em" y="292.7000030984481" x="909.5000331252813">Semantic HTML5</text></g></g><g id="minder_node11" opacity="1"><path id="kity_path_713" fill="rgba(0, 0, 0, .25)" stroke="none" d="M983.0000331252813,283.0000045746565h0a75,75,0,0,1,75,75v0a75,75,0,0,1,-75,75h0a75,75,0,0,1,-75,-75v0a75,75,0,0,1,75,-75z" display="none"></path><g id="node_expander10" style="cursor: pointer;" display="none"><path id="kity_path_110" fill="white" stroke="gray" d="M899.5000326484442,352.5000045746565A6,6,0,1,1,887.5000326484442,352.5000045746565A6,6,0,1,1,899.5000326484442,352.5000045746565"></path><path id="kity_path_111" fill="none" stroke="gray"></path></g><path id="node_outline11" fill="none" stroke="none" d="M904.5000331252813,341.5000045746565h138a5,5,0,0,1,5,5v12a5,5,0,0,1,-5,5h-138a5,5,0,0,1,-5,-5v-12a5,5,0,0,1,5,-5z" stroke-width="3"></path><g id="node_text11" fill="black"><text id="kity_text_107" text-rendering="inherit" font-size="12" dy=".8em" y="344.7000046481689" x="909.5000331252813">Forms and Validations</text></g></g><g id="minder_node12" opacity="1"><path id="kity_path_714" fill="rgba(0, 0, 0, .25)" stroke="none" d="M952.5000331252813,365.00000612437725h0a45,45,0,0,1,45,45v0a45,45,0,0,1,-45,45h0a45,45,0,0,1,-45,-45v0a45,45,0,0,1,45,-45z" display="none"></path><g id="node_expander11" style="cursor: pointer;" display="none"><path id="kity_path_118" fill="white" stroke="gray" d="M899.5000326484442,404.50000612437725A6,6,0,1,1,887.5000326484442,404.50000612437725A6,6,0,1,1,899.5000326484442,404.50000612437725"></path><path id="kity_path_119" fill="none" stroke="gray"></path></g><path id="node_outline12" fill="none" stroke="none" d="M904.5000331252813,393.50000612437725h81a5,5,0,0,1,5,5v12a5,5,0,0,1,-5,5h-81a5,5,0,0,1,-5,-5v-12a5,5,0,0,1,5,-5z" stroke-width="3"></path><g id="node_text12" fill="black"><text id="kity_text_115" text-rendering="inherit" font-size="12" dy=".8em" y="396.70000619788965" x="909.5000331252813">Accessibility</text></g></g><g id="minder_node13" opacity="1"><path id="kity_path_715" fill="rgba(0, 0, 0, .25)" stroke="none" d="M926.5000331252813,441.000007674098h0a21,21,0,0,1,21,21v0a21,21,0,0,1,-21,21h0a21,21,0,0,1,-21,-21v0a21,21,0,0,1,21,-21z" display="none"></path><g id="node_expander12" style="cursor: pointer;" display="none"><path id="kity_path_126" fill="white" stroke="gray" d="M899.5000326484442,456.500007674098A6,6,0,1,1,887.5000326484442,456.500007674098A6,6,0,1,1,899.5000326484442,456.500007674098"></path><path id="kity_path_127" fill="none" stroke="gray"></path></g><path id="node_outline13" fill="none" stroke="none" d="M904.5000331252813,445.500007674098h34a5,5,0,0,1,5,5v12a5,5,0,0,1,-5,5h-34a5,5,0,0,1,-5,-5v-12a5,5,0,0,1,5,-5z" stroke-width="3"></path><g id="node_text13" fill="black"><text id="kity_text_123" text-rendering="inherit" font-size="12" dy=".8em" y="448.7000077476104" x="909.5000331252813">SEO</text></g></g><g id="minder_node30" opacity="1"><path id="kity_path_718" fill="rgba(0, 0, 0, .25)" stroke="none" d="M955.0000331252813,492.00000999867916h0a48,48,0,0,1,48,48v0a48,48,0,0,1,-48,48h0a48,48,0,0,1,-48,-48v0a48,48,0,0,1,48,-48z" display="none"></path><g id="node_expander29" style="cursor: pointer;"><path id="kity_path_305" fill="white" stroke="gray" d="M899.5000326484442,534.5000099986792A6,6,0,1,1,887.5000326484442,534.5000099986792A6,6,0,1,1,899.5000326484442,534.5000099986792"></path><path id="kity_path_306" fill="none" stroke="gray" d="M889.0000326484442,534.5000099986792L898.0000326484442,534.5000099986792"></path></g><path id="node_outline30" fill="none" stroke="none" d="M904.5000331252813,523.5000099986792h86a5,5,0,0,1,5,5v12a5,5,0,0,1,-5,5h-86a5,5,0,0,1,-5,-5v-12a5,5,0,0,1,5,-5z" stroke-width="3"></path><g id="node_text30" fill="black"><text id="kity_text_302" text-rendering="inherit" font-size="12" dy=".8em" y="526.7000100721916" x="909.5000331252813">Web Storage</text></g></g><g id="minder_node31" opacity="1"><path id="kity_path_716" fill="rgba(0, 0, 0, .25)" stroke="none" d="M1083.5000371783972,473.0000092238188h0a41,41,0,0,1,41,41v0a41,41,0,0,1,-41,41h0a41,41,0,0,1,-41,-41v0a41,41,0,0,1,41,-41z" display="none"></path><g id="node_expander30" style="cursor: pointer;" display="none"><path id="kity_path_326" fill="white" stroke="gray" d="M1035.50003670156,508.5000092238188A6,6,0,1,1,1023.50003670156,508.5000092238188A6,6,0,1,1,1035.50003670156,508.5000092238188"></path><path id="kity_path_327" fill="none" stroke="gray"></path></g><path id="node_outline31" fill="none" stroke="none" d="M1040.5000371783972,497.5000092238188h73a5,5,0,0,1,5,5v12a5,5,0,0,1,-5,5h-73a5,5,0,0,1,-5,-5v-12a5,5,0,0,1,5,-5z" stroke-width="3"></path><g id="node_text31" fill="black"><text id="kity_text_323" text-rendering="inherit" font-size="12" dy=".8em" y="500.7000092973312" x="1045.5000371783972">IndecedDB</text></g></g><g id="minder_node32" opacity="1"><path id="kity_path_717" fill="rgba(0, 0, 0, .25)" stroke="none" d="M1090.0000371783972,519.0000107735395h0a47,47,0,0,1,47,47v0a47,47,0,0,1,-47,47h0a47,47,0,0,1,-47,-47v0a47,47,0,0,1,47,-47z" display="none"></path><g id="node_expander31" style="cursor: pointer;" display="none"><path id="kity_path_334" fill="white" stroke="gray" d="M1035.50003670156,560.5000107735395A6,6,0,1,1,1023.50003670156,560.5000107735395A6,6,0,1,1,1035.50003670156,560.5000107735395"></path><path id="kity_path_335" fill="none" stroke="gray"></path></g><path id="node_outline32" fill="none" stroke="none" d="M1040.5000371783972,549.5000107735395h85a5,5,0,0,1,5,5v12a5,5,0,0,1,-5,5h-85a5,5,0,0,1,-5,-5v-12a5,5,0,0,1,5,-5z" stroke-width="3"></path><g id="node_text32" fill="black"><text id="kity_text_331" text-rendering="inherit" font-size="12" dy=".8em" y="552.700010847052" x="1045.5000371783972">LocalStorage</text></g></g><g id="minder_node67" opacity="1"><g id="node_expander66" style="cursor: pointer;" display="none"><path id="kity_path_772" fill="white" stroke="gray" d="M909.5000329464674,186.49999962747097A6,6,0,1,1,897.5000329464674,186.49999962747097A6,6,0,1,1,909.5000329464674,186.49999962747097"></path><path id="kity_path_773" fill="none" stroke="gray"></path></g><path id="node_outline67" fill="none" stroke="none" d="M914.5000334233046,175.49999962747097h22a5,5,0,0,1,5,5v12a5,5,0,0,1,-5,5h-22a5,5,0,0,1,-5,-5v-12a5,5,0,0,1,5,-5z" stroke-width="3"></path><g id="node_text67" fill="black"><text id="kity_text_769" text-rendering="inherit" font-size="12" dy=".8em" y="178.69999970098337" x="919.5000334233046">IP</text></g></g></g></g></svg>