<svg id="kity_svg_6" xmlns="http://www.w3.org/2000/svg" xmlns:xlink="http://www.w3.org/1999/xlink" version="1.1" width="1150" height="1643" style="background: rgb(251, 251, 251); visibility: visible;" viewBox="0 0 1150 1643"><defs id="kity_defs_7"><linearGradient id="kity_linearGradient_17" x1="0" y1="0" x2="0" y2="1"><stop id="kity_stop_18" offset="0" stop-color="rgb(255, 255, 255)"></stop><stop id="kity_stop_19" offset="1" stop-color="rgb(204, 204, 204)"></stop></linearGradient><marker id="kity_marker_2" orient="auto" refX="6" refY="0" viewBox="-7 -7 14 14" markerWidth="7" markerHeight="7" markerUnits="userSpaceOnUse"><path id="kity_path_3" fill="rgb(115, 161, 191)" stroke="none" d="M6,0A6,6,0,1,1,-6,0A6,6,0,1,1,6,0"></path></marker></defs><g id="kity_g_8"><g id="minder1" text-rendering="geometricPrecision"><g id="minder_connect_group1"><path id="kity_path_31" fill="none" stroke="rgb(115, 161, 191)" stroke-width="1" d="M561.5000207871199,832.5000064522028A208,750,0,0,1,769.5000207871199,82.5000064522028"></path><path id="kity_path_79" fill="none" stroke="rgb(115, 161, 191)" stroke-width="1" d="M561.5000207871199,832.5000064522028A208,493,0,0,1,769.5000207871199,339.5000064522028"></path><path id="kity_path_140" fill="none" stroke="rgb(115, 161, 191)" stroke-width="1" d="M561.5000207871199,832.5000064522028A208,184,0,0,1,769.5000207871199,648.5000064522028"></path><path id="kity_path_194" fill="none" stroke="rgb(115, 161, 191)" stroke-width="1" d="M561.5000207871199,832.5000064522028A208,8,0,0,0,769.5000207871199,840.5000064522028"></path><path id="kity_path_226" fill="none" stroke="rgb(115, 161, 191)" stroke-width="1" d="M561.5000207871199,832.5000064522028A208,252,0,0,0,769.5000207871199,1084.5000064522028"></path><path id="kity_path_350" fill="none" stroke="rgb(115, 161, 191)" stroke-width="1" d="M561.5000207871199,832.5000064522028A208,470,0,0,0,769.5000207871199,1302.5000064522028"></path><path id="kity_path_374" fill="none" stroke="rgb(115, 161, 191)" stroke-width="1" d="M561.5000207871199,832.5000064522028A208,610,0,0,0,769.5000207871199,1442.5000064522028"></path><path id="kity_path_381" fill="none" stroke="rgb(115, 161, 191)" stroke-width="1" d="M931.5000207871199,1302.5000064522028C946.5000207871199,1302.5000064522028,946.5000207871199,1290.5000064522028,961.5000207871199,1290.5000064522028L1017.5000207871199,1290.5000064522028"></path><path id="kity_path_382" fill="none" stroke="rgb(115, 161, 191)" stroke-width="1" d="M931.5000207871199,1302.5000064522028C946.5000207871199,1302.5000064522028,946.5000207871199,1342.5000064522028,961.5000207871199,1342.5000064522028L1017.5000207871199,1342.5000064522028"></path><path id="kity_path_408" fill="none" stroke="rgb(115, 161, 191)" stroke-width="1" d="M561.5000207871199,832.5000064522028A208,750,0,0,0,769.5000207871199,1582.5000064522028"></path><path id="kity_path_434" fill="none" stroke="rgb(115, 161, 191)" stroke-width="1" d="M561.5000207871199,832.5000064522028A208,405,0,0,0,353.50002078711987,427.5000064522028"></path><path id="kity_path_469" fill="none" stroke="rgb(115, 161, 191)" stroke-width="1" d="M561.5000207871199,832.5000064522028A208,239,0,0,0,353.50002078711987,593.5000064522028"></path><path id="kity_path_504" fill="none" stroke="rgb(115, 161, 191)" stroke-width="1" d="M561.5000207871199,832.5000064522028A208,123,0,0,0,353.50002078711987,709.5000064522028"></path><path id="kity_path_512" fill="none" stroke="rgb(115, 161, 191)" stroke-width="1" d="M561.5000207871199,832.5000064522028A208,57,0,0,0,353.50002078711987,775.5000064522028"></path><path id="kity_path_520" fill="none" stroke="rgb(115, 161, 191)" stroke-width="1" d="M561.5000207871199,832.5000064522028A208,59,0,0,1,353.50002078711987,891.5000064522028"></path><path id="kity_path_552" fill="none" stroke="rgb(115, 161, 191)" stroke-width="1" d="M561.5000207871199,832.5000064522028A208,199,0,0,1,353.50002078711987,1031.5000064522028"></path><path id="kity_path_584" fill="none" stroke="rgb(115, 161, 191)" stroke-width="1" d="M561.5000207871199,832.5000064522028A208,289,0,0,1,353.50002078711987,1121.5000064522028"></path><path id="kity_path_599" fill="none" stroke="rgb(115, 161, 191)" stroke-width="1" d="M196.50002078711987,427.5000064522028C181.50002078711987,427.5000064522028,181.50002078711987,389.5000064522028,166.50002078711987,389.5000064522028L81.50002078711987,389.5000064522028"></path><path id="kity_path_600" fill="none" stroke="rgb(115, 161, 191)" stroke-width="1" d="M196.50002078711987,427.5000064522028C181.50002078711987,427.5000064522028,181.50002078711987,441.5000064522028,166.50002078711987,441.5000064522028L99.50002078711987,441.5000064522028"></path><path id="kity_path_601" fill="none" stroke="rgb(115, 161, 191)" stroke-width="1" d="M196.50002078711987,427.5000064522028C181.50002078711987,427.5000064522028,181.50002078711987,493.5000064522028,166.50002078711987,493.5000064522028L101.50002078711987,493.5000064522028"></path><path id="kity_path_602" fill="none" stroke="rgb(115, 161, 191)" stroke-width="1" d="M236.50002078711987,593.5000064522028C221.50002078711987,593.5000064522028,221.50002078711987,555.5000064522028,206.50002078711987,555.5000064522028L144.50002078711987,555.5000064522028"></path><path id="kity_path_603" fill="none" stroke="rgb(115, 161, 191)" stroke-width="1" d="M236.50002078711987,593.5000064522028C221.50002078711987,593.5000064522028,221.50002078711987,607.5000064522028,206.50002078711987,607.5000064522028L129.50002078711987,607.5000064522028"></path><path id="kity_path_604" fill="none" stroke="rgb(115, 161, 191)" stroke-width="1" d="M236.50002078711987,593.5000064522028C221.50002078711987,593.5000064522028,221.50002078711987,659.5000064522028,206.50002078711987,659.5000064522028L152.50002078711987,659.5000064522028"></path><path id="kity_path_605" fill="none" stroke="rgb(115, 161, 191)" stroke-width="1" d="M250.50002078711987,891.5000064522028C235.50002078711987,891.5000064522028,235.50002078711987,853.5000064522028,220.50002078711987,853.5000064522028L143.50002078711987,853.5000064522028"></path><path id="kity_path_606" fill="none" stroke="rgb(115, 161, 191)" stroke-width="1" d="M250.50002078711987,891.5000064522028C235.50002078711987,891.5000064522028,235.50002078711987,905.5000064522028,220.50002078711987,905.5000064522028L153.50002078711987,905.5000064522028"></path><path id="kity_path_607" fill="none" stroke="rgb(115, 161, 191)" stroke-width="1" d="M250.50002078711987,891.5000064522028C235.50002078711987,891.5000064522028,235.50002078711987,957.5000064522028,220.50002078711987,957.5000064522028L167.50002078711987,957.5000064522028"></path><path id="kity_path_608" fill="none" stroke="rgb(115, 161, 191)" stroke-width="1" d="M214.50002078711987,1031.5000064522028C199.50002078711987,1031.5000064522028,199.50002078711987,1019.5000064522028,184.50002078711987,1019.5000064522028L130.50002078711987,1019.5000064522028"></path><path id="kity_path_609" fill="none" stroke="rgb(115, 161, 191)" stroke-width="1" d="M214.50002078711987,1031.5000064522028C199.50002078711987,1031.5000064522028,199.50002078711987,1071.5000064522028,184.50002078711987,1071.5000064522028L128.50002078711987,1071.5000064522028"></path><path id="kity_path_610" fill="none" stroke="rgb(115, 161, 191)" stroke-width="1" d="M167.50002078711987,1121.5000064522028C152.50002078711987,1121.5000064522028,152.50002078711987,1135.5000064522028,137.50002078711987,1135.5000064522028L20.500020787119865,1135.5000064522028"></path><path id="kity_path_611" fill="none" stroke="rgb(115, 161, 191)" stroke-width="1" d="M935.5000207871199,840.5000064522028C950.5000207871199,840.5000064522028,950.5000207871199,802.5000064522028,965.5000207871199,802.5000064522028L1049.5000207871199,802.5000064522028"></path><path id="kity_path_612" fill="none" stroke="rgb(115, 161, 191)" stroke-width="1" d="M935.5000207871199,840.5000064522028C950.5000207871199,840.5000064522028,950.5000207871199,854.5000064522028,965.5000207871199,854.5000064522028L1042.5000207871199,854.5000064522028"></path><path id="kity_path_613" fill="none" stroke="rgb(115, 161, 191)" stroke-width="1" d="M935.5000207871199,840.5000064522028C950.5000207871199,840.5000064522028,950.5000207871199,906.5000064522028,965.5000207871199,906.5000064522028L1020.5000207871199,906.5000064522028"></path><path id="kity_path_614" fill="none" stroke="rgb(115, 161, 191)" stroke-width="1" d="M837.5000207871199,648.5000064522028C852.5000207871199,648.5000064522028,852.5000207871199,584.5000064522028,867.5000207871199,584.5000064522028L926.5000207871199,584.5000064522028"></path><path id="kity_path_615" fill="none" stroke="rgb(115, 161, 191)" stroke-width="1" d="M837.5000207871199,648.5000064522028C852.5000207871199,648.5000064522028,852.5000207871199,636.5000064522028,867.5000207871199,636.5000064522028L1117.5000207871199,636.5000064522028"></path><path id="kity_path_616" fill="none" stroke="rgb(115, 161, 191)" stroke-width="1" d="M837.5000207871199,648.5000064522028C852.5000207871199,648.5000064522028,852.5000207871199,688.5000064522028,867.5000207871199,688.5000064522028L942.5000207871199,688.5000064522028"></path><path id="kity_path_617" fill="none" stroke="rgb(115, 161, 191)" stroke-width="1" d="M837.5000207871199,648.5000064522028C852.5000207871199,648.5000064522028,852.5000207871199,740.5000064522028,867.5000207871199,740.5000064522028L958.5000207871199,740.5000064522028"></path><path id="kity_path_629" fill="none" stroke="rgb(115, 161, 191)" stroke-width="1" d="M869.5000207871199,82.5000064522028C884.5000207871199,82.5000064522028,884.5000207871199,44.5000064522028,899.5000207871199,44.5000064522028L960.5000207871199,44.5000064522028"></path><path id="kity_path_630" fill="none" stroke="rgb(115, 161, 191)" stroke-width="1" d="M869.5000207871199,82.5000064522028C884.5000207871199,82.5000064522028,884.5000207871199,96.5000064522028,899.5000207871199,96.5000064522028L969.5000207871199,96.5000064522028"></path><path id="kity_path_631" fill="none" stroke="rgb(115, 161, 191)" stroke-width="1" d="M869.5000207871199,82.5000064522028C884.5000207871199,82.5000064522028,884.5000207871199,148.5000064522028,899.5000207871199,148.5000064522028L989.5000207871199,148.5000064522028"></path><path id="kity_path_638" fill="none" stroke="rgb(115, 161, 191)" stroke-width="1" d="M879.5000207871199,1084.5000064522028C894.5000207871199,1084.5000064522028,894.5000207871199,968.5000064522028,909.5000207871199,968.5000064522028L1094.5000207871199,968.5000064522028"></path><path id="kity_path_639" fill="none" stroke="rgb(115, 161, 191)" stroke-width="1" d="M879.5000207871199,1084.5000064522028C894.5000207871199,1084.5000064522028,894.5000207871199,1020.5000064522028,909.5000207871199,1020.5000064522028L1050.5000207871199,1020.5000064522028"></path><path id="kity_path_640" fill="none" stroke="rgb(115, 161, 191)" stroke-width="1" d="M879.5000207871199,1084.5000064522028C894.5000207871199,1084.5000064522028,894.5000207871199,1072.5000064522028,909.5000207871199,1072.5000064522028L1048.5000207871199,1072.5000064522028"></path><path id="kity_path_641" fill="none" stroke="rgb(115, 161, 191)" stroke-width="1" d="M879.5000207871199,1084.5000064522028C894.5000207871199,1084.5000064522028,894.5000207871199,1124.5000064522028,909.5000207871199,1124.5000064522028L1067.5000207871199,1124.5000064522028"></path><path id="kity_path_642" fill="none" stroke="rgb(115, 161, 191)" stroke-width="1" d="M879.5000207871199,1084.5000064522028C894.5000207871199,1084.5000064522028,894.5000207871199,1176.5000064522028,909.5000207871199,1176.5000064522028L968.5000207871199,1176.5000064522028"></path><path id="kity_path_643" fill="none" stroke="rgb(115, 161, 191)" stroke-width="1" d="M879.5000207871199,1084.5000064522028C894.5000207871199,1084.5000064522028,894.5000207871199,1228.5000064522028,909.5000207871199,1228.5000064522028L1049.5000207871199,1228.5000064522028"></path><path id="kity_path_647" fill="none" stroke="rgb(115, 161, 191)" stroke-width="1" d="M901.5000207871199,1442.5000064522028C916.5000207871199,1442.5000064522028,916.5000207871199,1404.5000064522028,931.5000207871199,1404.5000064522028L998.5000207871199,1404.5000064522028"></path><path id="kity_path_648" fill="none" stroke="rgb(115, 161, 191)" stroke-width="1" d="M901.5000207871199,1442.5000064522028C916.5000207871199,1442.5000064522028,916.5000207871199,1456.5000064522028,931.5000207871199,1456.5000064522028L1094.5000207871199,1456.5000064522028"></path><path id="kity_path_649" fill="none" stroke="rgb(115, 161, 191)" stroke-width="1" d="M901.5000207871199,1442.5000064522028C916.5000207871199,1442.5000064522028,916.5000207871199,1508.5000064522028,931.5000207871199,1508.5000064522028L994.5000207871199,1508.5000064522028"></path><path id="kity_path_655" fill="none" stroke="rgb(115, 161, 191)" stroke-width="1" d="M561.5000207871199,832.5000064522028A208,405,0,0,1,353.50002078711987,1237.5000064522028"></path><path id="kity_path_686" fill="none" stroke="rgb(115, 161, 191)" stroke-width="1" d="M969.5000207871199,1582.5000064522028C984.5000207871199,1582.5000064522028,984.5000207871199,1570.5000064522028,999.5000207871199,1570.5000064522028L1046.5000207871199,1570.5000064522028"></path><path id="kity_path_687" fill="none" stroke="rgb(115, 161, 191)" stroke-width="1" d="M969.5000207871199,1582.5000064522028C984.5000207871199,1582.5000064522028,984.5000207871199,1622.5000064522028,999.5000207871199,1622.5000064522028L1054.5000207871199,1622.5000064522028"></path><path id="kity_path_688" fill="none" stroke="rgb(115, 161, 191)" stroke-width="1" d="M274.50002078711987,1237.5000064522028C259.50002078711987,1237.5000064522028,259.50002078711987,1199.5000064522028,244.50002078711987,1199.5000064522028L164.50002078711987,1199.5000064522028"></path><path id="kity_path_689" fill="none" stroke="rgb(115, 161, 191)" stroke-width="1" d="M274.50002078711987,1237.5000064522028C259.50002078711987,1237.5000064522028,259.50002078711987,1251.5000064522028,244.50002078711987,1251.5000064522028L174.50002078711987,1251.5000064522028"></path><path id="kity_path_690" fill="none" stroke="rgb(115, 161, 191)" stroke-width="1" d="M274.50002078711987,1237.5000064522028C259.50002078711987,1237.5000064522028,259.50002078711987,1303.5000064522028,244.50002078711987,1303.5000064522028L160.50002078711987,1303.5000064522028"></path><path id="kity_path_754" fill="none" stroke="rgb(115, 161, 191)" stroke-width="1" d="M859.5000207871199,339.5000064522028C874.5000207871199,339.5000064522028,874.5000207871199,210.5000064522028,889.5000207871199,210.5000064522028L948.5000207871199,210.5000064522028"></path><path id="kity_path_755" fill="none" stroke="rgb(115, 161, 191)" stroke-width="1" d="M859.5000207871199,339.5000064522028C874.5000207871199,339.5000064522028,874.5000207871199,262.5000064522028,889.5000207871199,262.5000064522028L1016.5000207871199,262.5000064522028"></path><path id="kity_path_756" fill="none" stroke="rgb(115, 161, 191)" stroke-width="1" d="M859.5000207871199,339.5000064522028C874.5000207871199,339.5000064522028,874.5000207871199,314.5000064522028,889.5000207871199,314.5000064522028L1047.5000207871199,314.5000064522028"></path><path id="kity_path_757" fill="none" stroke="rgb(115, 161, 191)" stroke-width="1" d="M859.5000207871199,339.5000064522028C874.5000207871199,339.5000064522028,874.5000207871199,366.5000064522028,889.5000207871199,366.5000064522028L990.5000207871199,366.5000064522028"></path><path id="kity_path_758" fill="none" stroke="rgb(115, 161, 191)" stroke-width="1" d="M859.5000207871199,339.5000064522028C874.5000207871199,339.5000064522028,874.5000207871199,418.5000064522028,889.5000207871199,418.5000064522028L943.5000207871199,418.5000064522028"></path><path id="kity_path_761" fill="none" stroke="rgb(115, 161, 191)" stroke-width="1" d="M859.5000207871199,339.5000064522028C874.5000207871199,339.5000064522028,874.5000207871199,496.5000064522028,889.5000207871199,496.5000064522028L995.5000207871199,496.5000064522028"></path><path id="kity_path_764" fill="none" stroke="rgb(115, 161, 191)" stroke-width="1" d="M995.5000207871199,496.5000064522028C1010.5000207871199,496.5000064522028,1010.5000207871199,470.5000064522028,1025.5000207871199,470.5000064522028L1118.5000207871199,470.5000064522028"></path><path id="kity_path_765" fill="none" stroke="rgb(115, 161, 191)" stroke-width="1" d="M995.5000207871199,496.5000064522028C1010.5000207871199,496.5000064522028,1010.5000207871199,522.5000064522028,1025.5000207871199,522.5000064522028L1130.5000207871199,522.5000064522028"></path></g><g id="minder_node1"><path id="kity_path_707" fill="rgba(0, 0, 0, .25)" stroke="none" d="M479.50002078711987,810.5000064522028h238a5,5,0,0,1,5,5v44a5,5,0,0,1,-5,5h-238a5,5,0,0,1,-5,-5v-44a5,5,0,0,1,5,-5z" display="none"></path><path id="node_outline1" fill="rgb(115, 161, 191)" stroke="rgb(115, 161, 191)" d="M476.50002078711987,812.5000064522028h170a5,5,0,0,1,5,5v30a5,5,0,0,1,-5,5h-170a5,5,0,0,1,-5,-5v-30a5,5,0,0,1,5,-5z" stroke-width="3"></path><g id="node_text1" fill="white"><text id="kity_text_22" text-rendering="inherit" font-size="16" dy=".8em" y="822.1000062853097" x="495.50002078711987">Front-End Recipe</text></g></g><g id="kity_g_14" display="none"><path id="kity_path_15" fill="rgba(0, 92, 153, 0.5)" stroke="none" d="M216.50002078711987,1176.5000064522028h137v20h-137z"></path><path id="kity_path_16" fill="none" stroke="rgb(0, 76, 128)" d="M216.50002078711987,1176.5000064522028L353.50002078711987,1176.5000064522028" stroke-width="1"></path></g><g id="minder_node2" opacity="1"><path id="kity_path_691" fill="rgba(0, 0, 0, .25)" stroke="none" d="M780.5000296086073,73.499984100461h97a5,5,0,0,1,5,5v18a5,5,0,0,1,-5,5h-97a5,5,0,0,1,-5,-5v-18a5,5,0,0,1,5,-5z" display="none"></path><g id="node_expander1" style="cursor: pointer;"><path id="kity_path_36" fill="white" stroke="gray" d="M770.5000288039446,82.499984100461A6,6,0,1,1,758.5000288039446,82.499984100461A6,6,0,1,1,770.5000288039446,82.499984100461"></path><path id="kity_path_37" fill="none" stroke="gray" d="M760.0000288039446,82.499984100461L769.0000288039446,82.499984100461"></path></g><path id="node_outline2" fill="rgb(238, 243, 246)" stroke="rgb(115, 161, 191)" d="M774.5000296086073,69.499984100461h92a3,3,0,0,1,3,3v20a3,3,0,0,1,-3,3h-92a3,3,0,0,1,-3,-3v-20a3,3,0,0,1,3,-3z" stroke-width="1"></path><g id="node_text2" fill="black"><text id="kity_text_33" text-rendering="inherit" font-size="14" dy=".8em" y="73.39998413324356" x="791.5000296086073">Network</text></g></g><g id="minder_node8" opacity="1"><path id="kity_path_692" fill="rgba(0, 0, 0, .25)" stroke="none" d="M780.5000296086073,330.49999175965786h85a5,5,0,0,1,5,5v18a5,5,0,0,1,-5,5h-85a5,5,0,0,1,-5,-5v-18a5,5,0,0,1,5,-5z" display="none"></path><g id="node_expander7" style="cursor: pointer;"><path id="kity_path_84" fill="white" stroke="gray" d="M770.5000288039446,339.49999175965786A6,6,0,1,1,758.5000288039446,339.49999175965786A6,6,0,1,1,770.5000288039446,339.49999175965786"></path><path id="kity_path_85" fill="none" stroke="gray" d="M760.0000288039446,339.49999175965786L769.0000288039446,339.49999175965786"></path></g><path id="node_outline8" fill="rgb(238, 243, 246)" stroke="rgb(115, 161, 191)" d="M774.5000296086073,326.49999175965786h82a3,3,0,0,1,3,3v20a3,3,0,0,1,-3,3h-82a3,3,0,0,1,-3,-3v-20a3,3,0,0,1,3,-3z" stroke-width="1"></path><g id="node_text8" fill="black"><text id="kity_text_81" text-rendering="inherit" font-size="14" dy=".8em" y="330.3999917924404" x="791.5000296086073">HTML5</text></g></g><g id="minder_node14" opacity="1"><path id="kity_path_693" fill="rgba(0, 0, 0, .25)" stroke="none" d="M780.5000296086073,639.5000009685755h59a5,5,0,0,1,5,5v18a5,5,0,0,1,-5,5h-59a5,5,0,0,1,-5,-5v-18a5,5,0,0,1,5,-5z" display="none"></path><g id="node_expander13" style="cursor: pointer;"><path id="kity_path_145" fill="white" stroke="gray" d="M770.5000288039446,648.5000009685755A6,6,0,1,1,758.5000288039446,648.5000009685755A6,6,0,1,1,770.5000288039446,648.5000009685755"></path><path id="kity_path_146" fill="none" stroke="gray" d="M760.0000288039446,648.5000009685755L769.0000288039446,648.5000009685755"></path></g><path id="node_outline14" fill="rgb(238, 243, 246)" stroke="rgb(115, 161, 191)" d="M774.5000296086073,635.5000009685755h60a3,3,0,0,1,3,3v20a3,3,0,0,1,-3,3h-60a3,3,0,0,1,-3,-3v-20a3,3,0,0,1,3,-3z" stroke-width="1"></path><g id="node_text14" fill="black"><text id="kity_text_142" text-rendering="inherit" font-size="14" dy=".8em" y="639.4000010013581" x="791.5000296086073">CSS</text></g></g><g id="minder_node19" opacity="1"><path id="kity_path_694" fill="rgba(0, 0, 0, .25)" stroke="none" d="M780.5000296086073,831.5000066906214h172a5,5,0,0,1,5,5v18a5,5,0,0,1,-5,5h-172a5,5,0,0,1,-5,-5v-18a5,5,0,0,1,5,-5z" display="none"></path><g id="node_expander18" style="cursor: pointer;"><path id="kity_path_199" fill="white" stroke="gray" d="M770.5000288039446,840.5000066906214A6,6,0,1,1,758.5000288039446,840.5000066906214A6,6,0,1,1,770.5000288039446,840.5000066906214"></path><path id="kity_path_200" fill="none" stroke="gray" d="M760.0000288039446,840.5000066906214L769.0000288039446,840.5000066906214"></path></g><path id="node_outline19" fill="rgb(238, 243, 246)" stroke="rgb(115, 161, 191)" d="M774.5000296086073,827.5000066906214h158a3,3,0,0,1,3,3v20a3,3,0,0,1,-3,3h-158a3,3,0,0,1,-3,-3v-20a3,3,0,0,1,3,-3z" stroke-width="1"></path><g id="node_text19" fill="black"><text id="kity_text_196" text-rendering="inherit" font-size="14" dy=".8em" y="831.400006723404" x="791.5000296086073">CSS Preprocessors</text></g></g><g id="minder_node23" opacity="1"><path id="kity_path_695" fill="rgba(0, 0, 0, .25)" stroke="none" d="M780.5000296086073,1075.500013962388h107a5,5,0,0,1,5,5v18a5,5,0,0,1,-5,5h-107a5,5,0,0,1,-5,-5v-18a5,5,0,0,1,5,-5z" display="none"></path><g id="node_expander22" style="cursor: pointer;"><path id="kity_path_231" fill="white" stroke="gray" d="M770.5000288039446,1084.500013962388A6,6,0,1,1,758.5000288039446,1084.500013962388A6,6,0,1,1,770.5000288039446,1084.500013962388"></path><path id="kity_path_232" fill="none" stroke="gray" d="M760.0000288039446,1084.500013962388L769.0000288039446,1084.500013962388"></path></g><path id="node_outline23" fill="rgb(238, 243, 246)" stroke="rgb(115, 161, 191)" d="M774.5000296086073,1071.500013962388h102a3,3,0,0,1,3,3v20a3,3,0,0,1,-3,3h-102a3,3,0,0,1,-3,-3v-20a3,3,0,0,1,3,-3z" stroke-width="1"></path><g id="node_text23" fill="black"><text id="kity_text_228" text-rendering="inherit" font-size="14" dy=".8em" y="1075.4000139951706" x="791.5000296086073">JavaScript</text></g></g><g id="minder_node33" opacity="1"><path id="kity_path_696" fill="rgba(0, 0, 0, .25)" stroke="none" d="M780.5000296086073,1293.5000204592943h168a5,5,0,0,1,5,5v18a5,5,0,0,1,-5,5h-168a5,5,0,0,1,-5,-5v-18a5,5,0,0,1,5,-5z" display="none"></path><g id="node_expander32" style="cursor: pointer;"><path id="kity_path_355" fill="white" stroke="gray" d="M770.5000288039446,1302.5000204592943A6,6,0,1,1,758.5000288039446,1302.5000204592943A6,6,0,1,1,770.5000288039446,1302.5000204592943"></path><path id="kity_path_356" fill="none" stroke="gray" d="M760.0000288039446,1302.5000204592943L769.0000288039446,1302.5000204592943"></path></g><path id="node_outline33" fill="rgb(238, 243, 246)" stroke="rgb(115, 161, 191)" d="M774.5000296086073,1289.5000204592943h154a3,3,0,0,1,3,3v20a3,3,0,0,1,-3,3h-154a3,3,0,0,1,-3,-3v-20a3,3,0,0,1,3,-3z" stroke-width="1"></path><g id="node_text33" fill="black"><text id="kity_text_352" text-rendering="inherit" font-size="14" dy=".8em" y="1293.400020492077" x="791.5000296086073">Package Manager</text></g></g><g id="minder_node36" opacity="1"><path id="kity_path_697" fill="rgba(0, 0, 0, .25)" stroke="none" d="M780.5000296086073,1433.5000246316195h133a5,5,0,0,1,5,5v18a5,5,0,0,1,-5,5h-133a5,5,0,0,1,-5,-5v-18a5,5,0,0,1,5,-5z" display="none"></path><g id="node_expander35" style="cursor: pointer;"><path id="kity_path_379" fill="white" stroke="gray" d="M770.5000288039446,1442.5000246316195A6,6,0,1,1,758.5000288039446,1442.5000246316195A6,6,0,1,1,770.5000288039446,1442.5000246316195"></path><path id="kity_path_380" fill="none" stroke="gray" d="M760.0000288039446,1442.5000246316195L769.0000288039446,1442.5000246316195"></path></g><path id="node_outline36" fill="rgb(238, 243, 246)" stroke="rgb(115, 161, 191)" d="M774.5000296086073,1429.5000246316195h124a3,3,0,0,1,3,3v20a3,3,0,0,1,-3,3h-124a3,3,0,0,1,-3,-3v-20a3,3,0,0,1,3,-3z" stroke-width="1"></path><g id="node_text36" fill="black"><text id="kity_text_376" text-rendering="inherit" font-size="14" dy=".8em" y="1433.400024664402" x="791.5000296086073">Web Security</text></g></g><g id="minder_node34"><path id="kity_path_732" fill="rgba(0, 0, 0, .25)" stroke="none" d="M1000.0000352710485,1259.000019684434h0a23,23,0,0,1,23,23v0a23,23,0,0,1,-23,23h0a23,23,0,0,1,-23,-23v0a23,23,0,0,1,23,-23z" display="none"></path><g id="node_expander33" style="cursor: pointer;" display="none"><path id="kity_path_363" fill="white" stroke="gray" d="M971.5000347942114,1276.500019684434A6,6,0,1,1,959.5000347942114,1276.500019684434A6,6,0,1,1,971.5000347942114,1276.500019684434"></path><path id="kity_path_364" fill="none" stroke="gray"></path></g><path id="node_outline34" fill="none" stroke="none" d="M976.5000352710485,1265.500019684434h36a5,5,0,0,1,5,5v12a5,5,0,0,1,-5,5h-36a5,5,0,0,1,-5,-5v-12a5,5,0,0,1,5,-5z" stroke-width="3"></path><g id="node_text34" fill="black"><text id="kity_text_360" text-rendering="inherit" font-size="12" dy=".8em" y="1268.7000197579464" x="981.5000352710485">npm</text></g></g><g id="minder_node35"><path id="kity_path_733" fill="rgba(0, 0, 0, .25)" stroke="none" d="M999.5000352710485,1312.0000212341547h0a22,22,0,0,1,22,22v0a22,22,0,0,1,-22,22h0a22,22,0,0,1,-22,-22v0a22,22,0,0,1,22,-22z" display="none"></path><g id="node_expander34" style="cursor: pointer;" display="none"><path id="kity_path_371" fill="white" stroke="gray" d="M971.5000347942114,1328.5000212341547A6,6,0,1,1,959.5000347942114,1328.5000212341547A6,6,0,1,1,971.5000347942114,1328.5000212341547"></path><path id="kity_path_372" fill="none" stroke="gray"></path></g><path id="node_outline35" fill="none" stroke="none" d="M976.5000352710485,1317.5000212341547h36a5,5,0,0,1,5,5v12a5,5,0,0,1,-5,5h-36a5,5,0,0,1,-5,-5v-12a5,5,0,0,1,5,-5z" stroke-width="3"></path><g id="node_text35" fill="black"><text id="kity_text_368" text-rendering="inherit" font-size="12" dy=".8em" y="1320.7000213076672" x="981.5000352710485">yarn</text></g></g><g id="minder_node40" opacity="1"><path id="kity_path_698" fill="rgba(0, 0, 0, .25)" stroke="none" d="M780.5000296086073,1573.5000288039446h211a5,5,0,0,1,5,5v18a5,5,0,0,1,-5,5h-211a5,5,0,0,1,-5,-5v-18a5,5,0,0,1,5,-5z" display="none"></path><g id="node_expander39" style="cursor: pointer;"><path id="kity_path_413" fill="white" stroke="gray" d="M770.5000288039446,1582.5000288039446A6,6,0,1,1,758.5000288039446,1582.5000288039446A6,6,0,1,1,770.5000288039446,1582.5000288039446"></path><path id="kity_path_414" fill="none" stroke="gray" d="M760.0000288039446,1582.5000288039446L769.0000288039446,1582.5000288039446"></path></g><path id="node_outline40" fill="rgb(238, 243, 246)" stroke="rgb(115, 161, 191)" d="M774.5000296086073,1569.5000288039446h192a3,3,0,0,1,3,3v20a3,3,0,0,1,-3,3h-192a3,3,0,0,1,-3,-3v-20a3,3,0,0,1,3,-3z" stroke-width="1"></path><g id="node_text40" fill="black"><text id="kity_text_410" text-rendering="inherit" font-size="14" dy=".8em" y="1573.4000288367272" x="791.5000296086073">Version Control System</text></g></g><g id="minder_node43" opacity="1"><path id="kity_path_699" fill="rgba(0, 0, 0, .25)" stroke="none" d="M205.50001247227192,418.49999438226223h161a5,5,0,0,1,5,5v18a5,5,0,0,1,-5,5h-161a5,5,0,0,1,-5,-5v-18a5,5,0,0,1,5,-5z" display="none"></path><g id="node_expander42" style="cursor: pointer;"><path id="kity_path_439" fill="white" stroke="gray" d="M364.5000167042017,427.49999438226223A6,6,0,1,1,352.5000167042017,427.49999438226223A6,6,0,1,1,364.5000167042017,427.49999438226223"></path><path id="kity_path_440" fill="none" stroke="gray" d="M354.0000167042017,427.49999438226223L363.0000167042017,427.49999438226223"></path></g><path id="node_outline43" fill="rgb(238, 243, 246)" stroke="rgb(115, 161, 191)" d="M199.50001247227192,414.49999438226223h149a3,3,0,0,1,3,3v20a3,3,0,0,1,-3,3h-149a3,3,0,0,1,-3,-3v-20a3,3,0,0,1,3,-3z" stroke-width="1"></path><g id="node_text43" fill="black"><text id="kity_text_436" text-rendering="inherit" font-size="14" dy=".8em" y="418.3999944150448" x="216.50001247227192">Module Bundlers</text></g></g><g id="minder_node47" opacity="1"><path id="kity_path_700" fill="rgba(0, 0, 0, .25)" stroke="none" d="M245.50001366436481,584.4999993294477h116a5,5,0,0,1,5,5v18a5,5,0,0,1,-5,5h-116a5,5,0,0,1,-5,-5v-18a5,5,0,0,1,5,-5z" display="none"></path><g id="node_expander46" style="cursor: pointer;"><path id="kity_path_474" fill="white" stroke="gray" d="M364.5000167042017,593.4999993294477A6,6,0,1,1,352.5000167042017,593.4999993294477A6,6,0,1,1,364.5000167042017,593.4999993294477"></path><path id="kity_path_475" fill="none" stroke="gray" d="M354.0000167042017,593.4999993294477L363.0000167042017,593.4999993294477"></path></g><path id="node_outline47" fill="rgb(238, 243, 246)" stroke="rgb(115, 161, 191)" d="M239.50001366436481,580.4999993294477h109a3,3,0,0,1,3,3v20a3,3,0,0,1,-3,3h-109a3,3,0,0,1,-3,-3v-20a3,3,0,0,1,3,-3z" stroke-width="1"></path><g id="node_text47" fill="black"><text id="kity_text_471" text-rendering="inherit" font-size="14" dy=".8em" y="584.3999993622303" x="256.5000136643648">Framework</text></g></g><g id="minder_node51" opacity="1"><path id="kity_path_701" fill="rgba(0, 0, 0, .25)" stroke="none" d="M249.5000137835741,700.5000027865171h111a5,5,0,0,1,5,5v18a5,5,0,0,1,-5,5h-111a5,5,0,0,1,-5,-5v-18a5,5,0,0,1,5,-5z" display="none"></path><g id="node_expander50" style="cursor: pointer;" display="none"><path id="kity_path_509" fill="white" stroke="gray" d="M364.5000167042017,709.5000027865171A6,6,0,1,1,352.5000167042017,709.5000027865171A6,6,0,1,1,364.5000167042017,709.5000027865171"></path><path id="kity_path_510" fill="none" stroke="gray"></path></g><path id="node_outline51" fill="rgb(238, 243, 246)" stroke="rgb(115, 161, 191)" d="M243.5000137835741,696.5000027865171h105a3,3,0,0,1,3,3v20a3,3,0,0,1,-3,3h-105a3,3,0,0,1,-3,-3v-20a3,3,0,0,1,3,-3z" stroke-width="1"></path><g id="node_text51" fill="black"><text id="kity_text_506" text-rendering="inherit" font-size="14" dy=".8em" y="700.4000028192997" x="260.5000137835741">TypeScript</text></g></g><g id="minder_node52" opacity="1"><path id="kity_path_702" fill="rgba(0, 0, 0, .25)" stroke="none" d="M219.50001288950443,766.5000047534704h145a5,5,0,0,1,5,5v18a5,5,0,0,1,-5,5h-145a5,5,0,0,1,-5,-5v-18a5,5,0,0,1,5,-5z" display="none"></path><g id="node_expander51" style="cursor: pointer;" display="none"><path id="kity_path_517" fill="white" stroke="gray" d="M364.5000167042017,775.5000047534704A6,6,0,1,1,352.5000167042017,775.5000047534704A6,6,0,1,1,364.5000167042017,775.5000047534704"></path><path id="kity_path_518" fill="none" stroke="gray"></path></g><path id="node_outline52" fill="rgb(238, 243, 246)" stroke="rgb(115, 161, 191)" d="M213.50001288950443,762.5000047534704h135a3,3,0,0,1,3,3v20a3,3,0,0,1,-3,3h-135a3,3,0,0,1,-3,-3v-20a3,3,0,0,1,3,-3z" stroke-width="1"></path><g id="node_text52" fill="black"><text id="kity_text_514" text-rendering="inherit" font-size="14" dy=".8em" y="766.400004786253" x="230.50001288950443">Web Assembly</text></g></g><g id="minder_node53" opacity="1"><path id="kity_path_703" fill="rgba(0, 0, 0, .25)" stroke="none" d="M259.5000140815973,882.5000082105398h98a5,5,0,0,1,5,5v18a5,5,0,0,1,-5,5h-98a5,5,0,0,1,-5,-5v-18a5,5,0,0,1,5,-5z" display="none"></path><g id="node_expander52" style="cursor: pointer;"><path id="kity_path_525" fill="white" stroke="gray" d="M364.5000167042017,891.5000082105398A6,6,0,1,1,352.5000167042017,891.5000082105398A6,6,0,1,1,364.5000167042017,891.5000082105398"></path><path id="kity_path_526" fill="none" stroke="gray" d="M354.0000167042017,891.5000082105398L363.0000167042017,891.5000082105398"></path></g><path id="node_outline53" fill="rgb(238, 243, 246)" stroke="rgb(115, 161, 191)" d="M253.50001408159733,878.5000082105398h95a3,3,0,0,1,3,3v20a3,3,0,0,1,-3,3h-95a3,3,0,0,1,-3,-3v-20a3,3,0,0,1,3,-3z" stroke-width="1"></path><g id="node_text53" fill="black"><text id="kity_text_522" text-rendering="inherit" font-size="14" dy=".8em" y="882.4000082433224" x="270.5000140815973">Unit Test</text></g></g><g id="minder_node57" opacity="1"><path id="kity_path_704" fill="rgba(0, 0, 0, .25)" stroke="none" d="M223.50001300871372,1022.500012382865h141a5,5,0,0,1,5,5v18a5,5,0,0,1,-5,5h-141a5,5,0,0,1,-5,-5v-18a5,5,0,0,1,5,-5z" display="none"></path><g id="node_expander56" style="cursor: pointer;"><path id="kity_path_557" fill="white" stroke="gray" d="M364.5000167042017,1031.500012382865A6,6,0,1,1,352.5000167042017,1031.500012382865A6,6,0,1,1,364.5000167042017,1031.500012382865"></path><path id="kity_path_558" fill="none" stroke="gray" d="M354.0000167042017,1031.500012382865L363.0000167042017,1031.500012382865"></path></g><path id="node_outline57" fill="rgb(238, 243, 246)" stroke="rgb(115, 161, 191)" d="M217.50001300871372,1018.500012382865h131a3,3,0,0,1,3,3v20a3,3,0,0,1,-3,3h-131a3,3,0,0,1,-3,-3v-20a3,3,0,0,1,3,-3z" stroke-width="1"></path><g id="node_text57" fill="black"><text id="kity_text_554" text-rendering="inherit" font-size="14" dy=".8em" y="1022.4000124156476" x="234.50001300871372">Data Structure</text></g></g><g id="minder_node61" opacity="1"><path id="kity_path_705" fill="rgba(0, 0, 0, .25)" stroke="none" d="M176.50001160800457,1112.500015065074h195a5,5,0,0,1,5,5v18a5,5,0,0,1,-5,5h-195a5,5,0,0,1,-5,-5v-18a5,5,0,0,1,5,-5z" display="none"></path><g id="node_expander60" style="cursor: pointer;"><path id="kity_path_589" fill="white" stroke="gray" d="M364.5000167042017,1121.500015065074A6,6,0,1,1,352.5000167042017,1121.500015065074A6,6,0,1,1,364.5000167042017,1121.500015065074"></path><path id="kity_path_590" fill="none" stroke="gray" d="M354.0000167042017,1121.500015065074L363.0000167042017,1121.500015065074"></path></g><path id="node_outline61" fill="rgb(238, 243, 246)" stroke="rgb(115, 161, 191)" d="M170.50001160800457,1108.500015065074h178a3,3,0,0,1,3,3v20a3,3,0,0,1,-3,3h-178a3,3,0,0,1,-3,-3v-20a3,3,0,0,1,3,-3z" stroke-width="1"></path><g id="node_text61" fill="black"><text id="kity_text_586" text-rendering="inherit" font-size="14" dy=".8em" y="1112.4000150978566" x="187.50001160800457">Progressive Web App</text></g></g><g id="kity_g_12" display="none"><path id="kity_path_13" fill="none" stroke="rgb(66, 94, 112)" d="M136.50002078711987,1173.5000064522028h35a5,5,0,0,1,5,5v12a5,5,0,0,1,-5,5h-35a5,5,0,0,1,-5,-5v-12a5,5,0,0,1,5,-5z" stroke-width="5"></path></g><g id="minder_node44" opacity="1"><path id="kity_path_739" fill="rgba(0, 0, 0, .25)" stroke="none" d="M125.50000874698162,343.99999283254147h0a37,37,0,0,1,37,37v0a37,37,0,0,1,-37,37h0a37,37,0,0,1,-37,-37v0a37,37,0,0,1,37,-37z" display="none"></path><g id="node_expander43" style="cursor: pointer;" display="none"><path id="kity_path_447" fill="white" stroke="gray" d="M168.5000108629465,375.49999283254147A6,6,0,1,1,156.5000108629465,375.49999283254147A6,6,0,1,1,168.5000108629465,375.49999283254147"></path><path id="kity_path_448" fill="none" stroke="gray"></path></g><path id="node_outline44" fill="none" stroke="none" d="M86.50000874698162,364.49999283254147h65a5,5,0,0,1,5,5v12a5,5,0,0,1,-5,5h-65a5,5,0,0,1,-5,-5v-12a5,5,0,0,1,5,-5z" stroke-width="3"></path><g id="node_text44" fill="black"><text id="kity_text_444" text-rendering="inherit" font-size="12" dy=".8em" y="367.69999290605386" x="91.50000874698162">Webpack</text></g></g><g id="minder_node45" opacity="1"><path id="kity_path_740" fill="rgba(0, 0, 0, .25)" stroke="none" d="M133.50000928342342,404.99999438226223h0a28,28,0,0,1,28,28v0a28,28,0,0,1,-28,28h0a28,28,0,0,1,-28,-28v0a28,28,0,0,1,28,-28z" display="none"></path><g id="node_expander44" style="cursor: pointer;" display="none"><path id="kity_path_455" fill="white" stroke="gray" d="M168.5000108629465,427.49999438226223A6,6,0,1,1,156.5000108629465,427.49999438226223A6,6,0,1,1,168.5000108629465,427.49999438226223"></path><path id="kity_path_456" fill="none" stroke="gray"></path></g><path id="node_outline45" fill="none" stroke="none" d="M104.50000928342342,416.49999438226223h47a5,5,0,0,1,5,5v12a5,5,0,0,1,-5,5h-47a5,5,0,0,1,-5,-5v-12a5,5,0,0,1,5,-5z" stroke-width="3"></path><g id="node_text45" fill="black"><text id="kity_text_452" text-rendering="inherit" font-size="12" dy=".8em" y="419.69999445577463" x="109.50000928342342">Rollup</text></g></g><g id="minder_node46" opacity="1"><path id="kity_path_741" fill="rgba(0, 0, 0, .25)" stroke="none" d="M134.00000934302807,458.999995931983h0a26,26,0,0,1,26,26v0a26,26,0,0,1,-26,26h0a26,26,0,0,1,-26,-26v0a26,26,0,0,1,26,-26z" display="none"></path><g id="node_expander45" style="cursor: pointer;" display="none"><path id="kity_path_463" fill="white" stroke="gray" d="M168.5000108629465,479.499995931983A6,6,0,1,1,156.5000108629465,479.499995931983A6,6,0,1,1,168.5000108629465,479.499995931983"></path><path id="kity_path_464" fill="none" stroke="gray"></path></g><path id="node_outline46" fill="none" stroke="none" d="M106.50000934302807,468.499995931983h45a5,5,0,0,1,5,5v12a5,5,0,0,1,-5,5h-45a5,5,0,0,1,-5,-5v-12a5,5,0,0,1,5,-5z" stroke-width="3"></path><g id="node_text46" fill="black"><text id="kity_text_460" text-rendering="inherit" font-size="12" dy=".8em" y="471.6999960054954" x="111.50000934302807">Parcel</text></g></g><g id="minder_node48" opacity="1"><path id="kity_path_742" fill="rgba(0, 0, 0, .25)" stroke="none" d="M176.00001062452793,521.999997779727h0a25,25,0,0,1,25,25v0a25,25,0,0,1,-25,25h0a25,25,0,0,1,-25,-25v0a25,25,0,0,1,25,-25z" display="none"></path><g id="node_expander47" style="cursor: pointer;" display="none"><path id="kity_path_482" fill="white" stroke="gray" d="M208.5000120550394,541.499997779727A6,6,0,1,1,196.5000120550394,541.499997779727A6,6,0,1,1,208.5000120550394,541.499997779727"></path><path id="kity_path_483" fill="none" stroke="gray"></path></g><path id="node_outline48" fill="none" stroke="none" d="M149.50001062452793,530.499997779727h42a5,5,0,0,1,5,5v12a5,5,0,0,1,-5,5h-42a5,5,0,0,1,-5,-5v-12a5,5,0,0,1,5,-5z" stroke-width="3"></path><g id="node_text48" fill="black"><text id="kity_text_479" text-rendering="inherit" font-size="12" dy=".8em" y="533.6999978532394" x="154.50001062452793">React</text></g></g><g id="minder_node49" opacity="1"><path id="kity_path_743" fill="rgba(0, 0, 0, .25)" stroke="none" d="M169.0000101774931,565.9999993294477h0a33,33,0,0,1,33,33v0a33,33,0,0,1,-33,33h0a33,33,0,0,1,-33,-33v0a33,33,0,0,1,33,-33z" display="none"></path><g id="node_expander48" style="cursor: pointer;" display="none"><path id="kity_path_490" fill="white" stroke="gray" d="M208.5000120550394,593.4999993294477A6,6,0,1,1,196.5000120550394,593.4999993294477A6,6,0,1,1,208.5000120550394,593.4999993294477"></path><path id="kity_path_491" fill="none" stroke="gray"></path></g><path id="node_outline49" fill="none" stroke="none" d="M134.5000101774931,582.4999993294477h57a5,5,0,0,1,5,5v12a5,5,0,0,1,-5,5h-57a5,5,0,0,1,-5,-5v-12a5,5,0,0,1,5,-5z" stroke-width="3"></path><g id="node_text49" fill="black"><text id="kity_text_487" text-rendering="inherit" font-size="12" dy=".8em" y="585.6999994029602" x="139.5000101774931">Angular</text></g></g><g id="minder_node50" opacity="1"><path id="kity_path_744" fill="rgba(0, 0, 0, .25)" stroke="none" d="M179.5000108629465,630.0000008791685h0a21,21,0,0,1,21,21v0a21,21,0,0,1,-21,21h0a21,21,0,0,1,-21,-21v0a21,21,0,0,1,21,-21z" display="none"></path><g id="node_expander49" style="cursor: pointer;" display="none"><path id="kity_path_498" fill="white" stroke="gray" d="M208.5000120550394,645.5000008791685A6,6,0,1,1,196.5000120550394,645.5000008791685A6,6,0,1,1,208.5000120550394,645.5000008791685"></path><path id="kity_path_499" fill="none" stroke="gray"></path></g><path id="node_outline50" fill="none" stroke="none" d="M157.5000108629465,634.5000008791685h34a5,5,0,0,1,5,5v12a5,5,0,0,1,-5,5h-34a5,5,0,0,1,-5,-5v-12a5,5,0,0,1,5,-5z" stroke-width="3"></path><g id="node_text50" fill="black"><text id="kity_text_495" text-rendering="inherit" font-size="12" dy=".8em" y="637.700000952681" x="162.5000108629465">Vue</text></g></g><g id="minder_node54" opacity="1"><path id="kity_path_745" fill="rgba(0, 0, 0, .25)" stroke="none" d="M183.0000105947256,812.000006660819h0a33,33,0,0,1,33,33v0a33,33,0,0,1,-33,33h0a33,33,0,0,1,-33,-33v0a33,33,0,0,1,33,-33z" display="none"></path><g id="node_expander53" style="cursor: pointer;" display="none"><path id="kity_path_533" fill="white" stroke="gray" d="M222.50001247227192,839.500006660819A6,6,0,1,1,210.50001247227192,839.500006660819A6,6,0,1,1,222.50001247227192,839.500006660819"></path><path id="kity_path_534" fill="none" stroke="gray"></path></g><path id="node_outline54" fill="none" stroke="none" d="M148.5000105947256,828.500006660819h57a5,5,0,0,1,5,5v12a5,5,0,0,1,-5,5h-57a5,5,0,0,1,-5,-5v-12a5,5,0,0,1,5,-5z" stroke-width="3"></path><g id="node_text54" fill="black"><text id="kity_text_530" text-rendering="inherit" font-size="12" dy=".8em" y="831.7000067343315" x="153.5000105947256">Jasmine</text></g></g><g id="minder_node55" opacity="1"><path id="kity_path_746" fill="rgba(0, 0, 0, .25)" stroke="none" d="M187.50001089274883,869.0000082105398h0a28,28,0,0,1,28,28v0a28,28,0,0,1,-28,28h0a28,28,0,0,1,-28,-28v0a28,28,0,0,1,28,-28z" display="none"></path><g id="node_expander54" style="cursor: pointer;" display="none"><path id="kity_path_541" fill="white" stroke="gray" d="M222.50001247227192,891.5000082105398A6,6,0,1,1,210.50001247227192,891.5000082105398A6,6,0,1,1,222.50001247227192,891.5000082105398"></path><path id="kity_path_542" fill="none" stroke="gray"></path></g><path id="node_outline55" fill="none" stroke="none" d="M158.50001089274883,880.5000082105398h47a5,5,0,0,1,5,5v12a5,5,0,0,1,-5,5h-47a5,5,0,0,1,-5,-5v-12a5,5,0,0,1,5,-5z" stroke-width="3"></path><g id="node_text55" fill="black"><text id="kity_text_538" text-rendering="inherit" font-size="12" dy=".8em" y="883.7000082840523" x="163.50001089274883">Karma</text></g></g><g id="minder_node56" opacity="1"><path id="kity_path_747" fill="rgba(0, 0, 0, .25)" stroke="none" d="M194.00001130998135,928.0000097602606h0a21,21,0,0,1,21,21v0a21,21,0,0,1,-21,21h0a21,21,0,0,1,-21,-21v0a21,21,0,0,1,21,-21z" display="none"></path><g id="node_expander55" style="cursor: pointer;" display="none"><path id="kity_path_549" fill="white" stroke="gray" d="M222.50001247227192,943.5000097602606A6,6,0,1,1,210.50001247227192,943.5000097602606A6,6,0,1,1,222.50001247227192,943.5000097602606"></path><path id="kity_path_550" fill="none" stroke="gray"></path></g><path id="node_outline56" fill="none" stroke="none" d="M172.50001130998135,932.5000097602606h33a5,5,0,0,1,5,5v12a5,5,0,0,1,-5,5h-33a5,5,0,0,1,-5,-5v-12a5,5,0,0,1,5,-5z" stroke-width="3"></path><g id="node_text56" fill="black"><text id="kity_text_546" text-rendering="inherit" font-size="12" dy=".8em" y="935.700009833773" x="177.50001130998135">Jest</text></g></g><g id="minder_node59" opacity="1"><path id="kity_path_748" fill="rgba(0, 0, 0, .25)" stroke="none" d="M157.50001020729542,990.0000116080046h0a21,21,0,0,1,21,21v0a21,21,0,0,1,-21,21h0a21,21,0,0,1,-21,-21v0a21,21,0,0,1,21,-21z" display="none"></path><g id="node_expander58" style="cursor: pointer;" display="none"><path id="kity_path_573" fill="white" stroke="gray" d="M186.5000113993883,1005.5000116080046A6,6,0,1,1,174.5000113993883,1005.5000116080046A6,6,0,1,1,186.5000113993883,1005.5000116080046"></path><path id="kity_path_574" fill="none" stroke="gray"></path></g><path id="node_outline59" fill="none" stroke="none" d="M135.50001020729542,994.5000116080046h34a5,5,0,0,1,5,5v12a5,5,0,0,1,-5,5h-34a5,5,0,0,1,-5,-5v-12a5,5,0,0,1,5,-5z" stroke-width="3"></path><g id="node_text59" fill="black"><text id="kity_text_570" text-rendering="inherit" font-size="12" dy=".8em" y="997.700011681517" x="140.50001020729542">Sort</text></g></g><g id="minder_node60" opacity="1"><path id="kity_path_749" fill="rgba(0, 0, 0, .25)" stroke="none" d="M156.50001014769077,1041.0000131577253h0a22,22,0,0,1,22,22v0a22,22,0,0,1,-22,22h0a22,22,0,0,1,-22,-22v0a22,22,0,0,1,22,-22z" display="none"></path><g id="node_expander59" style="cursor: pointer;" display="none"><path id="kity_path_581" fill="white" stroke="gray" d="M186.5000113993883,1057.5000131577253A6,6,0,1,1,174.5000113993883,1057.5000131577253A6,6,0,1,1,186.5000113993883,1057.5000131577253"></path><path id="kity_path_582" fill="none" stroke="gray"></path></g><path id="node_outline60" fill="none" stroke="none" d="M133.50001014769077,1046.5000131577253h36a5,5,0,0,1,5,5v12a5,5,0,0,1,-5,5h-36a5,5,0,0,1,-5,-5v-12a5,5,0,0,1,5,-5z" stroke-width="3"></path><g id="node_text60" fill="black"><text id="kity_text_578" text-rendering="inherit" font-size="12" dy=".8em" y="1049.7000132312378" x="138.50001014769077">Tree</text></g></g><g id="minder_node62" opacity="1"><path id="kity_path_750" fill="rgba(0, 0, 0, .25)" stroke="none" d="M82.00000692903996,1073.000015065074h0a54,54,0,0,1,54,54v0a54,54,0,0,1,-54,54h0a54,54,0,0,1,-54,-54v0a54,54,0,0,1,54,-54z" display="none"></path><g id="node_expander61" style="cursor: pointer;" display="none"><path id="kity_path_597" fill="white" stroke="gray" d="M139.50000999867916,1121.500015065074A6,6,0,1,1,127.50000999867916,1121.500015065074A6,6,0,1,1,139.50000999867916,1121.500015065074"></path><path id="kity_path_598" fill="none" stroke="gray"></path></g><path id="node_outline62" fill="none" stroke="none" d="M25.500006929039955,1110.500015065074h97a5,5,0,0,1,5,5v12a5,5,0,0,1,-5,5h-97a5,5,0,0,1,-5,-5v-12a5,5,0,0,1,5,-5z" stroke-width="3"></path><g id="node_text62" fill="black"><text id="kity_text_594" text-rendering="inherit" font-size="12" dy=".8em" y="1113.7000151385864" x="30.500006929039955">Service Worker</text></g></g><g id="minder_node20" opacity="1"><path id="kity_path_723" fill="rgba(0, 0, 0, .25)" stroke="none" d="M1018.5000353902578,758.0000051409006h0a36,36,0,0,1,36,36v0a36,36,0,0,1,-36,36h0a36,36,0,0,1,-36,-36v0a36,36,0,0,1,36,-36z" display="none"></path><g id="node_expander19" style="cursor: pointer;" display="none"><path id="kity_path_207" fill="white" stroke="gray" d="M975.5000349134207,788.5000051409006A6,6,0,1,1,963.5000349134207,788.5000051409006A6,6,0,1,1,975.5000349134207,788.5000051409006"></path><path id="kity_path_208" fill="none" stroke="gray"></path></g><path id="node_outline20" fill="none" stroke="none" d="M980.5000353902578,777.5000051409006h64a5,5,0,0,1,5,5v12a5,5,0,0,1,-5,5h-64a5,5,0,0,1,-5,-5v-12a5,5,0,0,1,5,-5z" stroke-width="3"></path><g id="node_text20" fill="black"><text id="kity_text_204" text-rendering="inherit" font-size="12" dy=".8em" y="780.7000052144131" x="985.5000353902578">Sass/Scss</text></g></g><g id="minder_node21" opacity="1"><path id="kity_path_724" fill="rgba(0, 0, 0, .25)" stroke="none" d="M1015.0000353902578,813.0000066906214h0a33,33,0,0,1,33,33v0a33,33,0,0,1,-33,33h0a33,33,0,0,1,-33,-33v0a33,33,0,0,1,33,-33z" display="none"></path><g id="node_expander20" style="cursor: pointer;" display="none"><path id="kity_path_215" fill="white" stroke="gray" d="M975.5000349134207,840.5000066906214A6,6,0,1,1,963.5000349134207,840.5000066906214A6,6,0,1,1,975.5000349134207,840.5000066906214"></path><path id="kity_path_216" fill="none" stroke="gray"></path></g><path id="node_outline21" fill="none" stroke="none" d="M980.5000353902578,829.5000066906214h57a5,5,0,0,1,5,5v12a5,5,0,0,1,-5,5h-57a5,5,0,0,1,-5,-5v-12a5,5,0,0,1,5,-5z" stroke-width="3"></path><g id="node_text21" fill="black"><text id="kity_text_212" text-rendering="inherit" font-size="12" dy=".8em" y="832.7000067641338" x="985.5000353902578">PostCSS</text></g></g><g id="minder_node22" opacity="1"><path id="kity_path_725" fill="rgba(0, 0, 0, .25)" stroke="none" d="M1002.5000353902578,877.0000082403421h0a21,21,0,0,1,21,21v0a21,21,0,0,1,-21,21h0a21,21,0,0,1,-21,-21v0a21,21,0,0,1,21,-21z" display="none"></path><g id="node_expander21" style="cursor: pointer;" display="none"><path id="kity_path_223" fill="white" stroke="gray" d="M975.5000349134207,892.5000082403421A6,6,0,1,1,963.5000349134207,892.5000082403421A6,6,0,1,1,975.5000349134207,892.5000082403421"></path><path id="kity_path_224" fill="none" stroke="gray"></path></g><path id="node_outline22" fill="none" stroke="none" d="M980.5000353902578,881.5000082403421h35a5,5,0,0,1,5,5v12a5,5,0,0,1,-5,5h-35a5,5,0,0,1,-5,-5v-12a5,5,0,0,1,5,-5z" stroke-width="3"></path><g id="node_text22" fill="black"><text id="kity_text_220" text-rendering="inherit" font-size="12" dy=".8em" y="884.7000083138546" x="985.5000353902578">Less</text></g></g><g id="minder_node15" opacity="1"><path id="kity_path_719" fill="rgba(0, 0, 0, .25)" stroke="none" d="M907.5000324696302,551.9999986439943h0a24,24,0,0,1,24,24v0a24,24,0,0,1,-24,24h0a24,24,0,0,1,-24,-24v0a24,24,0,0,1,24,-24z" display="none"></path><g id="node_expander14" style="cursor: pointer;" display="none"><path id="kity_path_163" fill="white" stroke="gray" d="M877.5000319927931,570.4999986439943A6,6,0,1,1,865.5000319927931,570.4999986439943A6,6,0,1,1,877.5000319927931,570.4999986439943"></path><path id="kity_path_164" fill="none" stroke="gray"></path></g><path id="node_outline15" fill="none" stroke="none" d="M882.5000324696302,559.4999986439943h39a5,5,0,0,1,5,5v12a5,5,0,0,1,-5,5h-39a5,5,0,0,1,-5,-5v-12a5,5,0,0,1,5,-5z" stroke-width="3"></path><g id="node_text15" fill="black"><text id="kity_text_160" text-rendering="inherit" font-size="12" dy=".8em" y="562.6999987175068" x="887.5000324696302">basic</text></g></g><g id="minder_node16"><path id="kity_path_720" fill="rgba(0, 0, 0, .25)" stroke="none" d="M1010.0000324696302,504.0000001937151h0a124,124,0,0,1,124,124v0a124,124,0,0,1,-124,124h0a124,124,0,0,1,-124,-124v0a124,124,0,0,1,124,-124z" display="none"></path><g id="node_expander15" style="cursor: pointer;" display="none"><path id="kity_path_171" fill="white" stroke="gray" d="M877.5000319927931,622.5000001937151A6,6,0,1,1,865.5000319927931,622.5000001937151A6,6,0,1,1,877.5000319927931,622.5000001937151"></path><path id="kity_path_172" fill="none" stroke="gray"></path></g><path id="node_outline16" fill="none" stroke="none" d="M882.5000324696302,611.5000001937151h230a5,5,0,0,1,5,5v12a5,5,0,0,1,-5,5h-230a5,5,0,0,1,-5,-5v-12a5,5,0,0,1,5,-5z" stroke-width="3"></path><g id="node_text16" fill="black"><text id="kity_text_168" text-rendering="inherit" font-size="12" dy=".8em" y="614.7000002672276" x="887.5000324696302">Responsive design and Media Queries</text></g></g><g id="minder_node17"><path id="kity_path_721" fill="rgba(0, 0, 0, .25)" stroke="none" d="M915.5000324696302,649.0000017434359h0a31,31,0,0,1,31,31v0a31,31,0,0,1,-31,31h0a31,31,0,0,1,-31,-31v0a31,31,0,0,1,31,-31z" display="none"></path><g id="node_expander16" style="cursor: pointer;" display="none"><path id="kity_path_179" fill="white" stroke="gray" d="M877.5000319927931,674.5000017434359A6,6,0,1,1,865.5000319927931,674.5000017434359A6,6,0,1,1,877.5000319927931,674.5000017434359"></path><path id="kity_path_180" fill="none" stroke="gray"></path></g><path id="node_outline17" fill="none" stroke="none" d="M882.5000324696302,663.5000017434359h55a5,5,0,0,1,5,5v12a5,5,0,0,1,-5,5h-55a5,5,0,0,1,-5,-5v-12a5,5,0,0,1,5,-5z" stroke-width="3"></path><g id="node_text17" fill="black"><text id="kity_text_176" text-rendering="inherit" font-size="12" dy=".8em" y="666.7000018169483" x="887.5000324696302">Layouts</text></g></g><g id="minder_node18"><path id="kity_path_722" fill="rgba(0, 0, 0, .25)" stroke="none" d="M924.5000324696302,692.0000032931566h0a40,40,0,0,1,40,40v0a40,40,0,0,1,-40,40h0a40,40,0,0,1,-40,-40v0a40,40,0,0,1,40,-40z" display="none"></path><g id="node_expander17" style="cursor: pointer;" display="none"><path id="kity_path_187" fill="white" stroke="gray" d="M877.5000319927931,726.5000032931566A6,6,0,1,1,865.5000319927931,726.5000032931566A6,6,0,1,1,877.5000319927931,726.5000032931566"></path><path id="kity_path_188" fill="none" stroke="gray"></path></g><path id="node_outline18" fill="none" stroke="none" d="M882.5000324696302,715.5000032931566h71a5,5,0,0,1,5,5v12a5,5,0,0,1,-5,5h-71a5,5,0,0,1,-5,-5v-12a5,5,0,0,1,5,-5z" stroke-width="3"></path><g id="node_text18" fill="black"><text id="kity_text_184" text-rendering="inherit" font-size="12" dy=".8em" y="718.7000033666691" x="887.5000324696302">Animation</text></g></g><g id="minder_node3" opacity="1"><path id="kity_path_708" fill="rgba(0, 0, 0, .25)" stroke="none" d="M940.0000334233046,11.999982550740242h0a24,24,0,0,1,24,24v0a24,24,0,0,1,-24,24h0a24,24,0,0,1,-24,-24v0a24,24,0,0,1,24,-24z" display="none"></path><g id="node_expander2" style="cursor: pointer;" display="none"><path id="kity_path_44" fill="white" stroke="gray" d="M909.5000329464674,30.499982550740242A6,6,0,1,1,897.5000329464674,30.499982550740242A6,6,0,1,1,909.5000329464674,30.499982550740242"></path><path id="kity_path_45" fill="none" stroke="gray"></path></g><path id="node_outline3" fill="none" stroke="none" d="M914.5000334233046,19.499982550740242h41a5,5,0,0,1,5,5v12a5,5,0,0,1,-5,5h-41a5,5,0,0,1,-5,-5v-12a5,5,0,0,1,5,-5z" stroke-width="3"></path><g id="node_text3" fill="black"><text id="kity_text_41" text-rendering="inherit" font-size="12" dy=".8em" y="22.69998262425264" x="919.5000334233046">HTTP</text></g></g><g id="minder_node4" opacity="1"><path id="kity_path_709" fill="rgba(0, 0, 0, .25)" stroke="none" d="M944.0000334233046,59.999984100461006h0a28,28,0,0,1,28,28v0a28,28,0,0,1,-28,28h0a28,28,0,0,1,-28,-28v0a28,28,0,0,1,28,-28z" display="none"></path><g id="node_expander3" style="cursor: pointer;" display="none"><path id="kity_path_52" fill="white" stroke="gray" d="M909.5000329464674,82.499984100461A6,6,0,1,1,897.5000329464674,82.499984100461A6,6,0,1,1,909.5000329464674,82.499984100461"></path><path id="kity_path_53" fill="none" stroke="gray" d="M899.0000329464674,82.499984100461L908.0000329464674,82.499984100461"></path></g><path id="node_outline4" fill="none" stroke="none" d="M914.5000334233046,71.499984100461h50a5,5,0,0,1,5,5v12a5,5,0,0,1,-5,5h-50a5,5,0,0,1,-5,-5v-12a5,5,0,0,1,5,-5z" stroke-width="3"></path><g id="node_text4" fill="black"><text id="kity_text_49" text-rendering="inherit" font-size="12" dy=".8em" y="74.6999841739734" x="919.5000334233046">TCP/IP</text></g></g><g id="minder_node7" opacity="1"><path id="kity_path_710" fill="rgba(0, 0, 0, .25)" stroke="none" d="M956.0000334233046,100.99998565018177h0a39,39,0,0,1,39,39v0a39,39,0,0,1,-39,39h0a39,39,0,0,1,-39,-39v0a39,39,0,0,1,39,-39z" display="none"></path><g id="node_expander6" style="cursor: pointer;" display="none"><path id="kity_path_76" fill="white" stroke="gray" d="M909.5000329464674,134.49998565018177A6,6,0,1,1,897.5000329464674,134.49998565018177A6,6,0,1,1,909.5000329464674,134.49998565018177"></path><path id="kity_path_77" fill="none" stroke="gray"></path></g><path id="node_outline7" fill="none" stroke="none" d="M914.5000334233046,123.49998565018177h70a5,5,0,0,1,5,5v12a5,5,0,0,1,-5,5h-70a5,5,0,0,1,-5,-5v-12a5,5,0,0,1,5,-5z" stroke-width="3"></path><g id="node_text7" fill="black"><text id="kity_text_73" text-rendering="inherit" font-size="12" dy=".8em" y="126.69998572369417" x="919.5000334233046">OSI model</text></g></g><g id="minder_node24" opacity="1"><path id="kity_path_726" fill="rgba(0, 0, 0, .25)" stroke="none" d="M1017.5000337213278,870.0000100880861h0a90,90,0,0,1,90,90v0a90,90,0,0,1,-90,90h0a90,90,0,0,1,-90,-90v0a90,90,0,0,1,90,-90z" display="none"></path><g id="node_expander23" style="cursor: pointer;" display="none"><path id="kity_path_249" fill="white" stroke="gray" d="M919.5000332444906,954.5000100880861A6,6,0,1,1,907.5000332444906,954.5000100880861A6,6,0,1,1,919.5000332444906,954.5000100880861"></path><path id="kity_path_250" fill="none" stroke="gray"></path></g><path id="node_outline24" fill="none" stroke="none" d="M924.5000337213278,943.5000100880861h165a5,5,0,0,1,5,5v12a5,5,0,0,1,-5,5h-165a5,5,0,0,1,-5,-5v-12a5,5,0,0,1,5,-5z" stroke-width="3"></path><g id="node_text24" fill="black"><text id="kity_text_246" text-rendering="inherit" font-size="12" dy=".8em" y="946.7000101615986" x="929.5000337213278">Syntax and Basic Construct</text></g></g><g id="minder_node25" opacity="1"><path id="kity_path_727" fill="rgba(0, 0, 0, .25)" stroke="none" d="M993.5000337213278,946.0000116378069h0a66,66,0,0,1,66,66v0a66,66,0,0,1,-66,66h0a66,66,0,0,1,-66,-66v0a66,66,0,0,1,66,-66z" display="none"></path><g id="node_expander24" style="cursor: pointer;" display="none"><path id="kity_path_257" fill="white" stroke="gray" d="M919.5000332444906,1006.5000116378069A6,6,0,1,1,907.5000332444906,1006.5000116378069A6,6,0,1,1,919.5000332444906,1006.5000116378069"></path><path id="kity_path_258" fill="none" stroke="gray"></path></g><path id="node_outline25" fill="none" stroke="none" d="M924.5000337213278,995.5000116378069h121a5,5,0,0,1,5,5v12a5,5,0,0,1,-5,5h-121a5,5,0,0,1,-5,-5v-12a5,5,0,0,1,5,-5z" stroke-width="3"></path><g id="node_text25" fill="black"><text id="kity_text_254" text-rendering="inherit" font-size="12" dy=".8em" y="998.7000117113193" x="929.5000337213278">DOM Manipulation</text></g></g><g id="minder_node26" opacity="1"><path id="kity_path_728" fill="rgba(0, 0, 0, .25)" stroke="none" d="M992.5000337213278,999.0000131875277h0a65,65,0,0,1,65,65v0a65,65,0,0,1,-65,65h0a65,65,0,0,1,-65,-65v0a65,65,0,0,1,65,-65z" display="none"></path><g id="node_expander25" style="cursor: pointer;" display="none"><path id="kity_path_265" fill="white" stroke="gray" d="M919.5000332444906,1058.5000131875277A6,6,0,1,1,907.5000332444906,1058.5000131875277A6,6,0,1,1,919.5000332444906,1058.5000131875277"></path><path id="kity_path_266" fill="none" stroke="gray"></path></g><path id="node_outline26" fill="none" stroke="none" d="M924.5000337213278,1047.5000131875277h119a5,5,0,0,1,5,5v12a5,5,0,0,1,-5,5h-119a5,5,0,0,1,-5,-5v-12a5,5,0,0,1,5,-5z" stroke-width="3"></path><g id="node_text26" fill="black"><text id="kity_text_262" text-rendering="inherit" font-size="12" dy=".8em" y="1050.70001326104" x="929.5000337213278">Regular Expression</text></g></g><g id="minder_node27" opacity="1"><path id="kity_path_729" fill="rgba(0, 0, 0, .25)" stroke="none" d="M1003.0000337213278,1041.0000147372484h0a75,75,0,0,1,75,75v0a75,75,0,0,1,-75,75h0a75,75,0,0,1,-75,-75v0a75,75,0,0,1,75,-75z" display="none"></path><g id="node_expander26" style="cursor: pointer;" display="none"><path id="kity_path_273" fill="white" stroke="gray" d="M919.5000332444906,1110.5000147372484A6,6,0,1,1,907.5000332444906,1110.5000147372484A6,6,0,1,1,919.5000332444906,1110.5000147372484"></path><path id="kity_path_274" fill="none" stroke="gray"></path></g><path id="node_outline27" fill="none" stroke="none" d="M924.5000337213278,1099.5000147372484h138a5,5,0,0,1,5,5v12a5,5,0,0,1,-5,5h-138a5,5,0,0,1,-5,-5v-12a5,5,0,0,1,5,-5z" stroke-width="3"></path><g id="node_text27" fill="black"><text id="kity_text_270" text-rendering="inherit" font-size="12" dy=".8em" y="1102.7000148107609" x="929.5000337213278">Fetch API / AJAX(XHR)</text></g></g><g id="minder_node28" opacity="1"><path id="kity_path_730" fill="rgba(0, 0, 0, .25)" stroke="none" d="M949.5000337213278,1144.0000162869692h0a24,24,0,0,1,24,24v0a24,24,0,0,1,-24,24h0a24,24,0,0,1,-24,-24v0a24,24,0,0,1,24,-24z" display="none"></path><g id="node_expander27" style="cursor: pointer;" display="none"><path id="kity_path_281" fill="white" stroke="gray" d="M919.5000332444906,1162.5000162869692A6,6,0,1,1,907.5000332444906,1162.5000162869692A6,6,0,1,1,919.5000332444906,1162.5000162869692"></path><path id="kity_path_282" fill="none" stroke="gray"></path></g><path id="node_outline28" fill="none" stroke="none" d="M924.5000337213278,1151.5000162869692h39a5,5,0,0,1,5,5v12a5,5,0,0,1,-5,5h-39a5,5,0,0,1,-5,-5v-12a5,5,0,0,1,5,-5z" stroke-width="3"></path><g id="node_text28" fill="black"><text id="kity_text_278" text-rendering="inherit" font-size="12" dy=".8em" y="1154.7000163604816" x="929.5000337213278">ES6+</text></g></g><g id="minder_node29" opacity="1"><path id="kity_path_731" fill="rgba(0, 0, 0, .25)" stroke="none" d="M992.5000337213278,1155.00001783669h0a65,65,0,0,1,65,65v0a65,65,0,0,1,-65,65h0a65,65,0,0,1,-65,-65v0a65,65,0,0,1,65,-65z" display="none"></path><g id="node_expander28" style="cursor: pointer;" display="none"><path id="kity_path_289" fill="white" stroke="gray" d="M919.5000332444906,1214.50001783669A6,6,0,1,1,907.5000332444906,1214.50001783669A6,6,0,1,1,919.5000332444906,1214.50001783669"></path><path id="kity_path_290" fill="none" stroke="gray"></path></g><path id="node_outline29" fill="none" stroke="none" d="M924.5000337213278,1203.50001783669h120a5,5,0,0,1,5,5v12a5,5,0,0,1,-5,5h-120a5,5,0,0,1,-5,-5v-12a5,5,0,0,1,5,-5z" stroke-width="3"></path><g id="node_text29" fill="black"><text id="kity_text_286" text-rendering="inherit" font-size="12" dy=".8em" y="1206.7000179102024" x="929.5000337213278">modular JavaScript</text></g></g><g id="minder_node37"><path id="kity_path_734" fill="rgba(0, 0, 0, .25)" stroke="none" d="M976.0000343769789,1368.0000230818987h0a28,28,0,0,1,28,28v0a28,28,0,0,1,-28,28h0a28,28,0,0,1,-28,-28v0a28,28,0,0,1,28,-28z" display="none"></path><g id="node_expander36" style="cursor: pointer;" display="none"><path id="kity_path_389" fill="white" stroke="gray" d="M941.5000339001417,1390.5000230818987A6,6,0,1,1,929.5000339001417,1390.5000230818987A6,6,0,1,1,941.5000339001417,1390.5000230818987"></path><path id="kity_path_390" fill="none" stroke="gray"></path></g><path id="node_outline37" fill="none" stroke="none" d="M946.5000343769789,1379.5000230818987h47a5,5,0,0,1,5,5v12a5,5,0,0,1,-5,5h-47a5,5,0,0,1,-5,-5v-12a5,5,0,0,1,5,-5z" stroke-width="3"></path><g id="node_text37" fill="black"><text id="kity_text_386" text-rendering="inherit" font-size="12" dy=".8em" y="1382.7000231554111" x="951.5000343769789">HTTPS</text></g></g><g id="minder_node38"><path id="kity_path_735" fill="rgba(0, 0, 0, .25)" stroke="none" d="M1028.0000343769789,1370.0000246316195h0a78,78,0,0,1,78,78v0a78,78,0,0,1,-78,78h0a78,78,0,0,1,-78,-78v0a78,78,0,0,1,78,-78z" display="none"></path><g id="node_expander37" style="cursor: pointer;" display="none"><path id="kity_path_397" fill="white" stroke="gray" d="M941.5000339001417,1442.5000246316195A6,6,0,1,1,929.5000339001417,1442.5000246316195A6,6,0,1,1,941.5000339001417,1442.5000246316195"></path><path id="kity_path_398" fill="none" stroke="gray"></path></g><path id="node_outline38" fill="none" stroke="none" d="M946.5000343769789,1431.5000246316195h143a5,5,0,0,1,5,5v12a5,5,0,0,1,-5,5h-143a5,5,0,0,1,-5,-5v-12a5,5,0,0,1,5,-5z" stroke-width="3"></path><g id="node_text38" fill="black"><text id="kity_text_394" text-rendering="inherit" font-size="12" dy=".8em" y="1434.700024705132" x="951.5000343769789">Content Security Policy</text></g></g><g id="minder_node39"><path id="kity_path_736" fill="rgba(0, 0, 0, .25)" stroke="none" d="M973.5000343769789,1474.0000261813402h0a26,26,0,0,1,26,26v0a26,26,0,0,1,-26,26h0a26,26,0,0,1,-26,-26v0a26,26,0,0,1,26,-26z" display="none"></path><g id="node_expander38" style="cursor: pointer;" display="none"><path id="kity_path_405" fill="white" stroke="gray" d="M941.5000339001417,1494.5000261813402A6,6,0,1,1,929.5000339001417,1494.5000261813402A6,6,0,1,1,941.5000339001417,1494.5000261813402"></path><path id="kity_path_406" fill="none" stroke="gray"></path></g><path id="node_outline39" fill="none" stroke="none" d="M946.5000343769789,1483.5000261813402h43a5,5,0,0,1,5,5v12a5,5,0,0,1,-5,5h-43a5,5,0,0,1,-5,-5v-12a5,5,0,0,1,5,-5z" stroke-width="3"></path><g id="node_text39" fill="black"><text id="kity_text_402" text-rendering="inherit" font-size="12" dy=".8em" y="1486.7000262548527" x="951.5000343769789">CORS</text></g></g><g id="minder_node63" opacity="1"><path id="kity_path_706" fill="rgba(0, 0, 0, .25)" stroke="none" d="M283.50001479685307,1228.5000185221434h72a5,5,0,0,1,5,5v18a5,5,0,0,1,-5,5h-72a5,5,0,0,1,-5,-5v-18a5,5,0,0,1,5,-5z" display="none"></path><g id="node_expander62" style="cursor: pointer;"><path id="kity_path_660" fill="white" stroke="gray" d="M364.5000167042017,1237.5000185221434A6,6,0,1,1,352.5000167042017,1237.5000185221434A6,6,0,1,1,364.5000167042017,1237.5000185221434"></path><path id="kity_path_661" fill="none" stroke="gray" d="M354.0000167042017,1237.5000185221434L363.0000167042017,1237.5000185221434"></path></g><path id="node_outline63" fill="rgb(238, 243, 246)" stroke="rgb(115, 161, 191)" d="M277.50001479685307,1224.5000185221434h71a3,3,0,0,1,3,3v20a3,3,0,0,1,-3,3h-71a3,3,0,0,1,-3,-3v-20a3,3,0,0,1,3,-3z" stroke-width="1"></path><g id="node_text63" fill="black"><text id="kity_text_657" text-rendering="inherit" font-size="14" dy=".8em" y="1228.400018554926" x="294.50001479685307">Tools</text></g></g><g id="minder_node41" opacity="1"><path id="kity_path_737" fill="rgba(0, 0, 0, .25)" stroke="none" d="M1032.5000364035368,1544.0000280290842h0a18,18,0,0,1,18,18v0a18,18,0,0,1,-18,18h0a18,18,0,0,1,-18,-18v0a18,18,0,0,1,18,-18z" display="none"></path><g id="node_expander40" style="cursor: pointer;" display="none"><path id="kity_path_421" fill="white" stroke="gray" d="M1009.5000359266996,1556.5000280290842A6,6,0,1,1,997.5000359266996,1556.5000280290842A6,6,0,1,1,1009.5000359266996,1556.5000280290842"></path><path id="kity_path_422" fill="none" stroke="gray"></path></g><path id="node_outline41" fill="none" stroke="none" d="M1014.5000364035368,1545.5000280290842h27a5,5,0,0,1,5,5v12a5,5,0,0,1,-5,5h-27a5,5,0,0,1,-5,-5v-12a5,5,0,0,1,5,-5z" stroke-width="3"></path><g id="node_text41" fill="black"><text id="kity_text_418" text-rendering="inherit" font-size="12" dy=".8em" y="1548.7000281025967" x="1019.5000364035368">Git</text></g></g><g id="minder_node42" opacity="1"><path id="kity_path_738" fill="rgba(0, 0, 0, .25)" stroke="none" d="M1037.0000364035368,1592.000029578805h0a22,22,0,0,1,22,22v0a22,22,0,0,1,-22,22h0a22,22,0,0,1,-22,-22v0a22,22,0,0,1,22,-22z" display="none"></path><g id="node_expander41" style="cursor: pointer;" display="none"><path id="kity_path_429" fill="white" stroke="gray" d="M1009.5000359266996,1608.500029578805A6,6,0,1,1,997.5000359266996,1608.500029578805A6,6,0,1,1,1009.5000359266996,1608.500029578805"></path><path id="kity_path_430" fill="none" stroke="gray"></path></g><path id="node_outline42" fill="none" stroke="none" d="M1014.5000364035368,1597.500029578805h35a5,5,0,0,1,5,5v12a5,5,0,0,1,-5,5h-35a5,5,0,0,1,-5,-5v-12a5,5,0,0,1,5,-5z" stroke-width="3"></path><g id="node_text42" fill="black"><text id="kity_text_426" text-rendering="inherit" font-size="12" dy=".8em" y="1600.7000296523174" x="1019.5000364035368">SVN</text></g></g><g id="minder_node64"><path id="kity_path_751" fill="rgba(0, 0, 0, .25)" stroke="none" d="M205.50001122057438,1157.0000169724226h0a34,34,0,0,1,34,34v0a34,34,0,0,1,-34,34h0a34,34,0,0,1,-34,-34v0a34,34,0,0,1,34,-34z" display="none"></path><g id="node_expander63" style="cursor: pointer;" display="none"><path id="kity_path_668" fill="white" stroke="gray" d="M246.50001318752766,1185.5000169724226A6,6,0,1,1,234.50001318752766,1185.5000169724226A6,6,0,1,1,246.50001318752766,1185.5000169724226"></path><path id="kity_path_669" fill="none" stroke="gray"></path></g><path id="node_outline64" fill="none" stroke="none" d="M169.50001122057438,1174.5000169724226h60a5,5,0,0,1,5,5v12a5,5,0,0,1,-5,5h-60a5,5,0,0,1,-5,-5v-12a5,5,0,0,1,5,-5z" stroke-width="3"></path><g id="node_text64" fill="black"><text id="kity_text_665" text-rendering="inherit" font-size="12" dy=".8em" y="1177.700017045935" x="174.50001122057438">Postman</text></g></g><g id="minder_node65"><path id="kity_path_752" fill="rgba(0, 0, 0, .25)" stroke="none" d="M210.5000115185976,1214.0000185221434h0a29,29,0,0,1,29,29v0a29,29,0,0,1,-29,29h0a29,29,0,0,1,-29,-29v0a29,29,0,0,1,29,-29z" display="none"></path><g id="node_expander64" style="cursor: pointer;" display="none"><path id="kity_path_676" fill="white" stroke="gray" d="M246.50001318752766,1237.5000185221434A6,6,0,1,1,234.50001318752766,1237.5000185221434A6,6,0,1,1,246.50001318752766,1237.5000185221434"></path><path id="kity_path_677" fill="none" stroke="gray"></path></g><path id="node_outline65" fill="none" stroke="none" d="M179.5000115185976,1226.5000185221434h50a5,5,0,0,1,5,5v12a5,5,0,0,1,-5,5h-50a5,5,0,0,1,-5,-5v-12a5,5,0,0,1,5,-5z" stroke-width="3"></path><g id="node_text65" fill="black"><text id="kity_text_673" text-rendering="inherit" font-size="12" dy=".8em" y="1229.7000185956558" x="184.5000115185976">Fiddler</text></g></g><g id="minder_node66"><path id="kity_path_753" fill="rgba(0, 0, 0, .25)" stroke="none" d="M203.5000111013651,1259.0000200718641h0a36,36,0,0,1,36,36v0a36,36,0,0,1,-36,36h0a36,36,0,0,1,-36,-36v0a36,36,0,0,1,36,-36z" display="none"></path><g id="node_expander65" style="cursor: pointer;" display="none"><path id="kity_path_684" fill="white" stroke="gray" d="M246.50001318752766,1289.5000200718641A6,6,0,1,1,234.50001318752766,1289.5000200718641A6,6,0,1,1,246.50001318752766,1289.5000200718641"></path><path id="kity_path_685" fill="none" stroke="gray"></path></g><path id="node_outline66" fill="none" stroke="none" d="M165.5000111013651,1278.5000200718641h64a5,5,0,0,1,5,5v12a5,5,0,0,1,-5,5h-64a5,5,0,0,1,-5,-5v-12a5,5,0,0,1,5,-5z" stroke-width="3"></path><g id="node_text66" fill="black"><text id="kity_text_681" text-rendering="inherit" font-size="12" dy=".8em" y="1281.7000201453766" x="170.5000111013651">DevTools</text></g></g><g id="minder_node9" opacity="1"><path id="kity_path_711" fill="rgba(0, 0, 0, .25)" stroke="none" d="M929.5000331252813,177.99998749792576h0a24,24,0,0,1,24,24v0a24,24,0,0,1,-24,24h0a24,24,0,0,1,-24,-24v0a24,24,0,0,1,24,-24z" display="none"></path><g id="node_expander8" style="cursor: pointer;" display="none"><path id="kity_path_92" fill="white" stroke="gray" d="M899.5000326484442,196.49998749792576A6,6,0,1,1,887.5000326484442,196.49998749792576A6,6,0,1,1,899.5000326484442,196.49998749792576"></path><path id="kity_path_93" fill="none" stroke="gray"></path></g><path id="node_outline9" fill="none" stroke="none" d="M904.5000331252813,185.49998749792576h39a5,5,0,0,1,5,5v12a5,5,0,0,1,-5,5h-39a5,5,0,0,1,-5,-5v-12a5,5,0,0,1,5,-5z" stroke-width="3"></path><g id="node_text9" fill="black"><text id="kity_text_89" text-rendering="inherit" font-size="12" dy=".8em" y="188.69998757143816" x="909.5000331252813">basic</text></g></g><g id="minder_node10" opacity="1"><path id="kity_path_712" fill="rgba(0, 0, 0, .25)" stroke="none" d="M966.0000331252813,194.99998904764652h0a59,59,0,0,1,59,59v0a59,59,0,0,1,-59,59h0a59,59,0,0,1,-59,-59v0a59,59,0,0,1,59,-59z" display="none"></path><g id="node_expander9" style="cursor: pointer;" display="none"><path id="kity_path_102" fill="white" stroke="gray" d="M899.5000326484442,248.49998904764652A6,6,0,1,1,887.5000326484442,248.49998904764652A6,6,0,1,1,899.5000326484442,248.49998904764652"></path><path id="kity_path_103" fill="none" stroke="gray"></path></g><path id="node_outline10" fill="none" stroke="none" d="M904.5000331252813,237.49998904764652h107a5,5,0,0,1,5,5v12a5,5,0,0,1,-5,5h-107a5,5,0,0,1,-5,-5v-12a5,5,0,0,1,5,-5z" stroke-width="3"></path><g id="node_text10" fill="black"><text id="kity_text_99" text-rendering="inherit" font-size="12" dy=".8em" y="240.69998912115892" x="909.5000331252813">Semantic HTML5</text></g></g><g id="minder_node11" opacity="1"><path id="kity_path_713" fill="rgba(0, 0, 0, .25)" stroke="none" d="M983.0000331252813,230.9999905973673h0a75,75,0,0,1,75,75v0a75,75,0,0,1,-75,75h0a75,75,0,0,1,-75,-75v0a75,75,0,0,1,75,-75z" display="none"></path><g id="node_expander10" style="cursor: pointer;" display="none"><path id="kity_path_110" fill="white" stroke="gray" d="M899.5000326484442,300.4999905973673A6,6,0,1,1,887.5000326484442,300.4999905973673A6,6,0,1,1,899.5000326484442,300.4999905973673"></path><path id="kity_path_111" fill="none" stroke="gray"></path></g><path id="node_outline11" fill="none" stroke="none" d="M904.5000331252813,289.4999905973673h138a5,5,0,0,1,5,5v12a5,5,0,0,1,-5,5h-138a5,5,0,0,1,-5,-5v-12a5,5,0,0,1,5,-5z" stroke-width="3"></path><g id="node_text11" fill="black"><text id="kity_text_107" text-rendering="inherit" font-size="12" dy=".8em" y="292.6999906708797" x="909.5000331252813">Forms and Validations</text></g></g><g id="minder_node12" opacity="1"><path id="kity_path_714" fill="rgba(0, 0, 0, .25)" stroke="none" d="M952.5000331252813,312.99999214708805h0a45,45,0,0,1,45,45v0a45,45,0,0,1,-45,45h0a45,45,0,0,1,-45,-45v0a45,45,0,0,1,45,-45z" display="none"></path><g id="node_expander11" style="cursor: pointer;" display="none"><path id="kity_path_118" fill="white" stroke="gray" d="M899.5000326484442,352.49999214708805A6,6,0,1,1,887.5000326484442,352.49999214708805A6,6,0,1,1,899.5000326484442,352.49999214708805"></path><path id="kity_path_119" fill="none" stroke="gray"></path></g><path id="node_outline12" fill="none" stroke="none" d="M904.5000331252813,341.49999214708805h81a5,5,0,0,1,5,5v12a5,5,0,0,1,-5,5h-81a5,5,0,0,1,-5,-5v-12a5,5,0,0,1,5,-5z" stroke-width="3"></path><g id="node_text12" fill="black"><text id="kity_text_115" text-rendering="inherit" font-size="12" dy=".8em" y="344.69999222060045" x="909.5000331252813">Accessibility</text></g></g><g id="minder_node13" opacity="1"><path id="kity_path_715" fill="rgba(0, 0, 0, .25)" stroke="none" d="M926.5000331252813,388.9999936968088h0a21,21,0,0,1,21,21v0a21,21,0,0,1,-21,21h0a21,21,0,0,1,-21,-21v0a21,21,0,0,1,21,-21z" display="none"></path><g id="node_expander12" style="cursor: pointer;" display="none"><path id="kity_path_126" fill="white" stroke="gray" d="M899.5000326484442,404.4999936968088A6,6,0,1,1,887.5000326484442,404.4999936968088A6,6,0,1,1,899.5000326484442,404.4999936968088"></path><path id="kity_path_127" fill="none" stroke="gray"></path></g><path id="node_outline13" fill="none" stroke="none" d="M904.5000331252813,393.4999936968088h34a5,5,0,0,1,5,5v12a5,5,0,0,1,-5,5h-34a5,5,0,0,1,-5,-5v-12a5,5,0,0,1,5,-5z" stroke-width="3"></path><g id="node_text13" fill="black"><text id="kity_text_123" text-rendering="inherit" font-size="12" dy=".8em" y="396.6999937703212" x="909.5000331252813">SEO</text></g></g><g id="minder_node30" opacity="1"><path id="kity_path_718" fill="rgba(0, 0, 0, .25)" stroke="none" d="M955.0000331252813,439.99999602138996h0a48,48,0,0,1,48,48v0a48,48,0,0,1,-48,48h0a48,48,0,0,1,-48,-48v0a48,48,0,0,1,48,-48z" display="none"></path><g id="node_expander29" style="cursor: pointer;"><path id="kity_path_305" fill="white" stroke="gray" d="M899.5000326484442,482.49999602138996A6,6,0,1,1,887.5000326484442,482.49999602138996A6,6,0,1,1,899.5000326484442,482.49999602138996"></path><path id="kity_path_306" fill="none" stroke="gray" d="M889.0000326484442,482.49999602138996L898.0000326484442,482.49999602138996"></path></g><path id="node_outline30" fill="none" stroke="none" d="M904.5000331252813,471.49999602138996h86a5,5,0,0,1,5,5v12a5,5,0,0,1,-5,5h-86a5,5,0,0,1,-5,-5v-12a5,5,0,0,1,5,-5z" stroke-width="3"></path><g id="node_text30" fill="black"><text id="kity_text_302" text-rendering="inherit" font-size="12" dy=".8em" y="474.69999609490236" x="909.5000331252813">Web Storage</text></g></g><g id="minder_node31" opacity="1"><path id="kity_path_716" fill="rgba(0, 0, 0, .25)" stroke="none" d="M1083.5000371783972,420.9999952465296h0a41,41,0,0,1,41,41v0a41,41,0,0,1,-41,41h0a41,41,0,0,1,-41,-41v0a41,41,0,0,1,41,-41z" display="none"></path><g id="node_expander30" style="cursor: pointer;" display="none"><path id="kity_path_326" fill="white" stroke="gray" d="M1035.50003670156,456.4999952465296A6,6,0,1,1,1023.50003670156,456.4999952465296A6,6,0,1,1,1035.50003670156,456.4999952465296"></path><path id="kity_path_327" fill="none" stroke="gray"></path></g><path id="node_outline31" fill="none" stroke="none" d="M1040.5000371783972,445.4999952465296h73a5,5,0,0,1,5,5v12a5,5,0,0,1,-5,5h-73a5,5,0,0,1,-5,-5v-12a5,5,0,0,1,5,-5z" stroke-width="3"></path><g id="node_text31" fill="black"><text id="kity_text_323" text-rendering="inherit" font-size="12" dy=".8em" y="448.699995320042" x="1045.5000371783972">IndecedDB</text></g></g><g id="minder_node32" opacity="1"><path id="kity_path_717" fill="rgba(0, 0, 0, .25)" stroke="none" d="M1090.0000371783972,466.99999679625034h0a47,47,0,0,1,47,47v0a47,47,0,0,1,-47,47h0a47,47,0,0,1,-47,-47v0a47,47,0,0,1,47,-47z" display="none"></path><g id="node_expander31" style="cursor: pointer;" display="none"><path id="kity_path_334" fill="white" stroke="gray" d="M1035.50003670156,508.49999679625034A6,6,0,1,1,1023.50003670156,508.49999679625034A6,6,0,1,1,1035.50003670156,508.49999679625034"></path><path id="kity_path_335" fill="none" stroke="gray"></path></g><path id="node_outline32" fill="none" stroke="none" d="M1040.5000371783972,497.49999679625034h85a5,5,0,0,1,5,5v12a5,5,0,0,1,-5,5h-85a5,5,0,0,1,-5,-5v-12a5,5,0,0,1,5,-5z" stroke-width="3"></path><g id="node_text32" fill="black"><text id="kity_text_331" text-rendering="inherit" font-size="12" dy=".8em" y="500.69999686976274" x="1045.5000371783972">LocalStorage</text></g></g></g></g></svg>