<svg id="kity_svg_6" xmlns="http://www.w3.org/2000/svg" xmlns:xlink="http://www.w3.org/1999/xlink" version="1.1" width="1149" height="1799" style="background: rgb(251, 251, 251); visibility: visible;" viewBox="0 0 1149 1799"><defs id="kity_defs_7"><linearGradient id="kity_linearGradient_17" x1="0" y1="0" x2="0" y2="1"><stop id="kity_stop_18" offset="0" stop-color="rgb(255, 255, 255)"></stop><stop id="kity_stop_19" offset="1" stop-color="rgb(204, 204, 204)"></stop></linearGradient><marker id="kity_marker_2" orient="auto" refX="6" refY="0" viewBox="-7 -7 14 14" markerWidth="7" markerHeight="7" markerUnits="userSpaceOnUse"><path id="kity_path_3" fill="rgb(115, 161, 191)" stroke="none" d="M6,0A6,6,0,1,1,-6,0A6,6,0,1,1,6,0"></path></marker></defs><g id="kity_g_8"><g id="minder1" text-rendering="geometricPrecision"><g id="minder_connect_group1"><path id="kity_path_31" fill="none" stroke="rgb(115, 161, 191)" stroke-width="1" d="M561.5000170916319,910.5000134855509A208,802,0,0,1,769.5000170916319,108.50001348555088"></path><path id="kity_path_33" fill="none" stroke="rgb(115, 161, 191)" stroke-width="1" d="M869.5000170916319,108.50001348555088C884.5000170916319,108.50001348555088,884.5000170916319,44.50001348555088,899.5000170916319,44.50001348555088L959.5000170916319,44.50001348555088"></path><path id="kity_path_35" fill="none" stroke="rgb(115, 161, 191)" stroke-width="1" d="M869.5000170916319,108.50001348555088C884.5000170916319,108.50001348555088,884.5000170916319,96.50001348555088,899.5000170916319,96.50001348555088L951.5000170916319,96.50001348555088"></path><path id="kity_path_37" fill="none" stroke="rgb(115, 161, 191)" stroke-width="1" d="M869.5000170916319,108.50001348555088C884.5000170916319,108.50001348555088,884.5000170916319,148.50001348555088,899.5000170916319,148.50001348555088L954.5000170916319,148.50001348555088"></path><path id="kity_path_39" fill="none" stroke="rgb(115, 161, 191)" stroke-width="1" d="M869.5000170916319,108.50001348555088C884.5000170916319,108.50001348555088,884.5000170916319,200.50001348555088,899.5000170916319,200.50001348555088L940.5000170916319,200.50001348555088"></path><path id="kity_path_41" fill="none" stroke="rgb(115, 161, 191)" stroke-width="1" d="M561.5000170916319,910.5000134855509A208,519,0,0,1,769.5000170916319,391.5000134855509"></path><path id="kity_path_43" fill="none" stroke="rgb(115, 161, 191)" stroke-width="1" d="M859.5000170916319,391.5000134855509C874.5000170916319,391.5000134855509,874.5000170916319,262.5000134855509,889.5000170916319,262.5000134855509L948.5000170916319,262.5000134855509"></path><path id="kity_path_45" fill="none" stroke="rgb(115, 161, 191)" stroke-width="1" d="M859.5000170916319,391.5000134855509C874.5000170916319,391.5000134855509,874.5000170916319,314.5000134855509,889.5000170916319,314.5000134855509L1016.5000170916319,314.5000134855509"></path><path id="kity_path_47" fill="none" stroke="rgb(115, 161, 191)" stroke-width="1" d="M859.5000170916319,391.5000134855509C874.5000170916319,391.5000134855509,874.5000170916319,366.5000134855509,889.5000170916319,366.5000134855509L1047.500017091632,366.5000134855509"></path><path id="kity_path_49" fill="none" stroke="rgb(115, 161, 191)" stroke-width="1" d="M859.5000170916319,391.5000134855509C874.5000170916319,391.5000134855509,874.5000170916319,418.5000134855509,889.5000170916319,418.5000134855509L990.5000170916319,418.5000134855509"></path><path id="kity_path_51" fill="none" stroke="rgb(115, 161, 191)" stroke-width="1" d="M859.5000170916319,391.5000134855509C874.5000170916319,391.5000134855509,874.5000170916319,470.5000134855509,889.5000170916319,470.5000134855509L942.5000170916319,470.5000134855509"></path><path id="kity_path_53" fill="none" stroke="rgb(115, 161, 191)" stroke-width="1" d="M859.5000170916319,391.5000134855509C874.5000170916319,391.5000134855509,874.5000170916319,548.5000134855509,889.5000170916319,548.5000134855509L995.5000170916319,548.5000134855509"></path><path id="kity_path_59" fill="none" stroke="rgb(115, 161, 191)" stroke-width="1" d="M561.5000170916319,910.5000134855509A208,158,0,0,1,769.5000170916319,752.5000134855509"></path><path id="kity_path_61" fill="none" stroke="rgb(115, 161, 191)" stroke-width="1" d="M837.5000170916319,752.5000134855509C852.5000170916319,752.5000134855509,852.5000170916319,636.5000134855509,867.5000170916319,636.5000134855509L926.5000170916319,636.5000134855509"></path><path id="kity_path_63" fill="none" stroke="rgb(115, 161, 191)" stroke-width="1" d="M837.5000170916319,752.5000134855509C852.5000170916319,752.5000134855509,852.5000170916319,688.5000134855509,867.5000170916319,688.5000134855509L1116.500017091632,688.5000134855509"></path><path id="kity_path_65" fill="none" stroke="rgb(115, 161, 191)" stroke-width="1" d="M837.5000170916319,752.5000134855509C852.5000170916319,752.5000134855509,852.5000170916319,740.5000134855509,867.5000170916319,740.5000134855509L941.5000170916319,740.5000134855509"></path><path id="kity_path_67" fill="none" stroke="rgb(115, 161, 191)" stroke-width="1" d="M837.5000170916319,752.5000134855509C852.5000170916319,752.5000134855509,852.5000170916319,792.5000134855509,867.5000170916319,792.5000134855509L957.5000170916319,792.5000134855509"></path><path id="kity_path_77" fill="none" stroke="rgb(115, 161, 191)" stroke-width="1" d="M561.5000170916319,910.5000134855509A208,164,0,0,0,769.5000170916319,1074.5000134855509"></path><path id="kity_path_79" fill="none" stroke="rgb(115, 161, 191)" stroke-width="1" d="M878.5000170916319,1074.5000134855509C893.5000170916319,1074.5000134855509,893.5000170916319,958.5000134855509,908.5000170916319,958.5000134855509L1093.500017091632,958.5000134855509"></path><path id="kity_path_81" fill="none" stroke="rgb(115, 161, 191)" stroke-width="1" d="M878.5000170916319,1074.5000134855509C893.5000170916319,1074.5000134855509,893.5000170916319,1010.5000134855509,908.5000170916319,1010.5000134855509L1049.500017091632,1010.5000134855509"></path><path id="kity_path_83" fill="none" stroke="rgb(115, 161, 191)" stroke-width="1" d="M878.5000170916319,1074.5000134855509C893.5000170916319,1074.5000134855509,893.5000170916319,1062.5000134855509,908.5000170916319,1062.5000134855509L1047.500017091632,1062.5000134855509"></path><path id="kity_path_85" fill="none" stroke="rgb(115, 161, 191)" stroke-width="1" d="M878.5000170916319,1074.5000134855509C893.5000170916319,1074.5000134855509,893.5000170916319,1114.5000134855509,908.5000170916319,1114.5000134855509L1066.500017091632,1114.5000134855509"></path><path id="kity_path_87" fill="none" stroke="rgb(115, 161, 191)" stroke-width="1" d="M878.5000170916319,1074.5000134855509C893.5000170916319,1074.5000134855509,893.5000170916319,1166.5000134855509,908.5000170916319,1166.5000134855509L967.5000170916319,1166.5000134855509"></path><path id="kity_path_89" fill="none" stroke="rgb(115, 161, 191)" stroke-width="1" d="M878.5000170916319,1074.5000134855509C893.5000170916319,1074.5000134855509,893.5000170916319,1218.5000134855509,908.5000170916319,1218.5000134855509L1047.500017091632,1218.5000134855509"></path><path id="kity_path_91" fill="none" stroke="rgb(115, 161, 191)" stroke-width="1" d="M561.5000170916319,910.5000134855509A208,382,0,0,0,769.5000170916319,1292.5000134855509"></path><path id="kity_path_93" fill="none" stroke="rgb(115, 161, 191)" stroke-width="1" d="M931.5000170916319,1292.5000134855509C946.5000170916319,1292.5000134855509,946.5000170916319,1280.5000134855509,961.5000170916319,1280.5000134855509L1017.5000170916319,1280.5000134855509"></path><path id="kity_path_95" fill="none" stroke="rgb(115, 161, 191)" stroke-width="1" d="M931.5000170916319,1292.5000134855509C946.5000170916319,1292.5000134855509,946.5000170916319,1332.5000134855509,961.5000170916319,1332.5000134855509L1017.5000170916319,1332.5000134855509"></path><path id="kity_path_97" fill="none" stroke="rgb(115, 161, 191)" stroke-width="1" d="M561.5000170916319,910.5000134855509A208,522,0,0,0,769.5000170916319,1432.5000134855509"></path><path id="kity_path_105" fill="none" stroke="rgb(115, 161, 191)" stroke-width="1" d="M561.5000170916319,910.5000134855509A208,662,0,0,0,769.5000170916319,1572.5000134855509"></path><path id="kity_path_111" fill="none" stroke="rgb(115, 161, 191)" stroke-width="1" d="M561.5000170916319,910.5000134855509A208,802,0,0,0,769.5000170916319,1712.5000134855509"></path><path id="kity_path_119" fill="none" stroke="rgb(115, 161, 191)" stroke-width="1" d="M561.5000170916319,910.5000134855509A208,426,0,0,0,353.5000170916319,484.5000134855509"></path><path id="kity_path_127" fill="none" stroke="rgb(115, 161, 191)" stroke-width="1" d="M561.5000170916319,910.5000134855509A208,310,0,0,0,353.5000170916319,600.5000134855509"></path><path id="kity_path_129" fill="none" stroke="rgb(115, 161, 191)" stroke-width="1" d="M561.5000170916319,910.5000134855509A208,244,0,0,0,353.5000170916319,666.5000134855509"></path><path id="kity_path_131" fill="none" stroke="rgb(115, 161, 191)" stroke-width="1" d="M561.5000170916319,910.5000134855509A208,128,0,0,0,353.5000170916319,782.5000134855509"></path><path id="kity_path_133" fill="none" stroke="rgb(115, 161, 191)" stroke-width="1" d="M251.5000170916319,782.5000134855509C236.5000170916319,782.5000134855509,236.5000170916319,744.5000134855509,221.5000170916319,744.5000134855509L145.5000170916319,744.5000134855509"></path><path id="kity_path_135" fill="none" stroke="rgb(115, 161, 191)" stroke-width="1" d="M251.5000170916319,782.5000134855509C236.5000170916319,782.5000134855509,236.5000170916319,796.5000134855509,221.5000170916319,796.5000134855509L154.5000170916319,796.5000134855509"></path><path id="kity_path_137" fill="none" stroke="rgb(115, 161, 191)" stroke-width="1" d="M251.5000170916319,782.5000134855509C236.5000170916319,782.5000134855509,236.5000170916319,848.5000134855509,221.5000170916319,848.5000134855509L169.5000170916319,848.5000134855509"></path><path id="kity_path_139" fill="none" stroke="rgb(115, 161, 191)" stroke-width="1" d="M561.5000170916319,910.5000134855509A208,116,0,0,1,353.5000170916319,1026.5000134855509"></path><path id="kity_path_145" fill="none" stroke="rgb(115, 161, 191)" stroke-width="1" d="M561.5000170916319,910.5000134855509A208,310,0,0,1,353.5000170916319,1220.5000134855509"></path><path id="kity_path_149" fill="none" stroke="rgb(115, 161, 191)" stroke-width="1" d="M561.5000170916319,910.5000134855509A208,426,0,0,1,353.5000170916319,1336.5000134855509"></path><path id="kity_path_541" fill="none" stroke="rgb(115, 161, 191)" stroke-width="1" d="M837.5000170916319,752.5000134855509C852.5000170916319,752.5000134855509,852.5000170916319,844.5000134855509,867.5000170916319,844.5000134855509L922.5000170916319,844.5000134855509"></path><path id="kity_path_549" fill="none" stroke="rgb(115, 161, 191)" stroke-width="1" d="M837.5000170916319,752.5000134855509C852.5000170916319,752.5000134855509,852.5000170916319,896.5000134855509,867.5000170916319,896.5000134855509L922.5000170916319,896.5000134855509"></path><path id="kity_path_559" fill="none" stroke="rgb(115, 161, 191)" stroke-width="1" d="M275.5000170916319,1336.5000134855509C260.5000170916319,1336.5000134855509,260.5000170916319,1298.5000134855509,245.5000170916319,1298.5000134855509L165.5000170916319,1298.5000134855509"></path><path id="kity_path_560" fill="none" stroke="rgb(115, 161, 191)" stroke-width="1" d="M275.5000170916319,1336.5000134855509C260.5000170916319,1336.5000134855509,260.5000170916319,1350.5000134855509,245.5000170916319,1350.5000134855509L175.5000170916319,1350.5000134855509"></path><path id="kity_path_561" fill="none" stroke="rgb(115, 161, 191)" stroke-width="1" d="M275.5000170916319,1336.5000134855509C260.5000170916319,1336.5000134855509,260.5000170916319,1402.5000134855509,245.5000170916319,1402.5000134855509L162.5000170916319,1402.5000134855509"></path><path id="kity_path_562" fill="none" stroke="rgb(115, 161, 191)" stroke-width="1" d="M167.5000170916319,1220.5000134855509C152.5000170916319,1220.5000134855509,152.5000170916319,1234.5000134855509,137.5000170916319,1234.5000134855509L20.50001709163189,1234.5000134855509"></path><path id="kity_path_563" fill="none" stroke="rgb(115, 161, 191)" stroke-width="1" d="M214.5000170916319,1026.5000134855509C199.5000170916319,1026.5000134855509,199.5000170916319,910.5000134855509,184.5000170916319,910.5000134855509L93.50001709163189,910.5000134855509"></path><path id="kity_path_564" fill="none" stroke="rgb(115, 161, 191)" stroke-width="1" d="M214.5000170916319,1026.5000134855509C199.5000170916319,1026.5000134855509,199.5000170916319,962.5000134855509,184.5000170916319,962.5000134855509L101.50001709163189,962.5000134855509"></path><path id="kity_path_566" fill="none" stroke="rgb(115, 161, 191)" stroke-width="1" d="M214.5000170916319,1026.5000134855509C199.5000170916319,1026.5000134855509,199.5000170916319,1014.5000134855509,184.5000170916319,1014.5000134855509L68.50001709163189,1014.5000134855509"></path><path id="kity_path_574" fill="none" stroke="rgb(115, 161, 191)" stroke-width="1" d="M214.5000170916319,1026.5000134855509C199.5000170916319,1026.5000134855509,199.5000170916319,1066.5000134855509,184.5000170916319,1066.5000134855509L48.50001709163189,1066.5000134855509"></path><path id="kity_path_582" fill="none" stroke="rgb(115, 161, 191)" stroke-width="1" d="M214.5000170916319,1026.5000134855509C199.5000170916319,1026.5000134855509,199.5000170916319,1118.5000134855509,184.5000170916319,1118.5000134855509L47.50001709163189,1118.5000134855509"></path><path id="kity_path_590" fill="none" stroke="rgb(115, 161, 191)" stroke-width="1" d="M214.5000170916319,1026.5000134855509C199.5000170916319,1026.5000134855509,199.5000170916319,1170.5000134855509,184.5000170916319,1170.5000134855509L38.50001709163189,1170.5000134855509"></path><path id="kity_path_615" fill="none" stroke="rgb(115, 161, 191)" stroke-width="1" d="M995.5000170916319,548.5000134855509C1010.5000170916319,548.5000134855509,1010.5000170916319,522.5000134855509,1025.500017091632,522.5000134855509L1118.500017091632,522.5000134855509"></path><path id="kity_path_616" fill="none" stroke="rgb(115, 161, 191)" stroke-width="1" d="M995.5000170916319,548.5000134855509C1010.5000170916319,548.5000134855509,1010.5000170916319,574.5000134855509,1025.500017091632,574.5000134855509L1129.500017091632,574.5000134855509"></path><path id="kity_path_617" fill="none" stroke="rgb(115, 161, 191)" stroke-width="1" d="M236.5000170916319,484.5000134855509C221.5000170916319,484.5000134855509,221.5000170916319,446.5000134855509,206.5000170916319,446.5000134855509L144.5000170916319,446.5000134855509"></path><path id="kity_path_618" fill="none" stroke="rgb(115, 161, 191)" stroke-width="1" d="M236.5000170916319,484.5000134855509C221.5000170916319,484.5000134855509,221.5000170916319,498.5000134855509,206.5000170916319,498.5000134855509L129.5000170916319,498.5000134855509"></path><path id="kity_path_619" fill="none" stroke="rgb(115, 161, 191)" stroke-width="1" d="M236.5000170916319,484.5000134855509C221.5000170916319,484.5000134855509,221.5000170916319,550.5000134855509,206.5000170916319,550.5000134855509L153.5000170916319,550.5000134855509"></path><path id="kity_path_623" fill="none" stroke="rgb(115, 161, 191)" stroke-width="1" d="M900.5000170916319,1432.5000134855509C915.5000170916319,1432.5000134855509,915.5000170916319,1394.5000134855509,930.5000170916319,1394.5000134855509L997.5000170916319,1394.5000134855509"></path><path id="kity_path_624" fill="none" stroke="rgb(115, 161, 191)" stroke-width="1" d="M900.5000170916319,1432.5000134855509C915.5000170916319,1432.5000134855509,915.5000170916319,1446.5000134855509,930.5000170916319,1446.5000134855509L1093.500017091632,1446.5000134855509"></path><path id="kity_path_625" fill="none" stroke="rgb(115, 161, 191)" stroke-width="1" d="M900.5000170916319,1432.5000134855509C915.5000170916319,1432.5000134855509,915.5000170916319,1498.5000134855509,930.5000170916319,1498.5000134855509L993.5000170916319,1498.5000134855509"></path><path id="kity_path_626" fill="none" stroke="rgb(115, 161, 191)" stroke-width="1" d="M969.5000170916319,1572.5000134855509C984.5000170916319,1572.5000134855509,984.5000170916319,1560.5000134855509,999.5000170916319,1560.5000134855509L1046.500017091632,1560.5000134855509"></path><path id="kity_path_627" fill="none" stroke="rgb(115, 161, 191)" stroke-width="1" d="M969.5000170916319,1572.5000134855509C984.5000170916319,1572.5000134855509,984.5000170916319,1612.5000134855509,999.5000170916319,1612.5000134855509L1054.500017091632,1612.5000134855509"></path><path id="kity_path_628" fill="none" stroke="rgb(115, 161, 191)" stroke-width="1" d="M926.5000170916319,1712.5000134855509C941.5000170916319,1712.5000134855509,941.5000170916319,1674.5000134855509,956.5000170916319,1674.5000134855509L1041.500017091632,1674.5000134855509"></path><path id="kity_path_629" fill="none" stroke="rgb(115, 161, 191)" stroke-width="1" d="M926.5000170916319,1712.5000134855509C941.5000170916319,1712.5000134855509,941.5000170916319,1726.5000134855509,956.5000170916319,1726.5000134855509L1023.5000170916319,1726.5000134855509"></path><path id="kity_path_630" fill="none" stroke="rgb(115, 161, 191)" stroke-width="1" d="M926.5000170916319,1712.5000134855509C941.5000170916319,1712.5000134855509,941.5000170916319,1778.5000134855509,956.5000170916319,1778.5000134855509L1021.5000170916319,1778.5000134855509"></path></g><g id="minder_node1"><path id="node_outline1" fill="rgb(115, 161, 191)" stroke="rgb(115, 161, 191)" d="M476.5000170916319,890.5000134855509h170a5,5,0,0,1,5,5v30a5,5,0,0,1,-5,5h-170a5,5,0,0,1,-5,-5v-30a5,5,0,0,1,5,-5z" stroke-width="3"></path><g id="node_text1" fill="white"><text id="kity_text_22" text-rendering="inherit" font-size="16" dy=".8em" y="900.1000133186578" x="495.5000170916319">Front-End Recipe</text></g></g><g id="kity_g_14" display="none"><path id="kity_path_15" fill="rgba(0, 92, 153, 0.5)" stroke="none" d="M771.5000170916319,1092.5000134855509h107v20h-107z"></path><path id="kity_path_16" fill="none" stroke="rgb(0, 76, 128)" d="M771.5000170916319,1092.5000134855509L878.5000170916319,1092.5000134855509" stroke-width="1"></path></g><g id="minder_node2"><g id="node_expander5" style="cursor: pointer;"><path id="kity_path_358" fill="white" stroke="gray" d="M770.5000251084566,108.49998958408833A6,6,0,1,1,758.5000251084566,108.49998958408833A6,6,0,1,1,770.5000251084566,108.49998958408833"></path><path id="kity_path_359" fill="none" stroke="gray" d="M760.0000251084566,108.49998958408833L769.0000251084566,108.49998958408833"></path></g><path id="node_outline6" fill="rgb(238, 243, 246)" stroke="rgb(115, 161, 191)" d="M774.5000259131193,95.49998958408833h92a3,3,0,0,1,3,3v20a3,3,0,0,1,-3,3h-92a3,3,0,0,1,-3,-3v-20a3,3,0,0,1,3,-3z" stroke-width="1"></path><g id="node_text6" fill="black"><text id="kity_text_165" text-rendering="inherit" font-size="14" dy=".8em" y="99.39998961687088" x="791.5000259131193">Network</text></g></g><g id="minder_node3"><g id="node_expander1" style="cursor: pointer;" display="none"><path id="kity_path_346" fill="white" stroke="gray" d="M909.5000292509794,30.49998725950718A6,6,0,1,1,897.5000292509794,30.49998725950718A6,6,0,1,1,909.5000292509794,30.49998725950718"></path><path id="kity_path_347" fill="none" stroke="gray"></path></g><path id="node_outline2" fill="none" stroke="none" d="M914.5000297278166,19.49998725950718h40a5,5,0,0,1,5,5v12a5,5,0,0,1,-5,5h-40a5,5,0,0,1,-5,-5v-12a5,5,0,0,1,5,-5z" stroke-width="3"></path><g id="node_text2" fill="black"><text id="kity_text_157" text-rendering="inherit" font-size="12" dy=".8em" y="22.69998733301958" x="919.5000297278166">HTTP</text></g></g><g id="minder_node4"><g id="node_expander2" style="cursor: pointer;" display="none"><path id="kity_path_349" fill="white" stroke="gray" d="M909.5000292509794,82.49998880922794A6,6,0,1,1,897.5000292509794,82.49998880922794A6,6,0,1,1,909.5000292509794,82.49998880922794"></path><path id="kity_path_350" fill="none" stroke="gray"></path></g><path id="node_outline3" fill="none" stroke="none" d="M914.5000297278166,71.49998880922794h32a5,5,0,0,1,5,5v12a5,5,0,0,1,-5,5h-32a5,5,0,0,1,-5,-5v-12a5,5,0,0,1,5,-5z" stroke-width="3"></path><g id="node_text3" fill="black"><text id="kity_text_159" text-rendering="inherit" font-size="12" dy=".8em" y="74.69998888274034" x="919.5000297278166">TCP</text></g></g><g id="minder_node5"><g id="node_expander3" style="cursor: pointer;" display="none"><path id="kity_path_352" fill="white" stroke="gray" d="M909.5000292509794,134.4999903589487A6,6,0,1,1,897.5000292509794,134.4999903589487A6,6,0,1,1,909.5000292509794,134.4999903589487"></path><path id="kity_path_353" fill="none" stroke="gray"></path></g><path id="node_outline4" fill="none" stroke="none" d="M914.5000297278166,123.49999035894871h35a5,5,0,0,1,5,5v12a5,5,0,0,1,-5,5h-35a5,5,0,0,1,-5,-5v-12a5,5,0,0,1,5,-5z" stroke-width="3"></path><g id="node_text4" fill="black"><text id="kity_text_161" text-rendering="inherit" font-size="12" dy=".8em" y="126.6999904324611" x="919.5000297278166">UDP</text></g></g><g id="minder_node6"><g id="node_expander4" style="cursor: pointer;" display="none"><path id="kity_path_355" fill="white" stroke="gray" d="M909.5000292509794,186.49999190866947A6,6,0,1,1,897.5000292509794,186.49999190866947A6,6,0,1,1,909.5000292509794,186.49999190866947"></path><path id="kity_path_356" fill="none" stroke="gray"></path></g><path id="node_outline5" fill="none" stroke="none" d="M914.5000297278166,175.49999190866947h21a5,5,0,0,1,5,5v12a5,5,0,0,1,-5,5h-21a5,5,0,0,1,-5,-5v-12a5,5,0,0,1,5,-5z" stroke-width="3"></path><g id="node_text5" fill="black"><text id="kity_text_163" text-rendering="inherit" font-size="12" dy=".8em" y="178.69999198218187" x="919.5000297278166">IP</text></g></g><g id="minder_node7"><g id="node_expander14" style="cursor: pointer;"><path id="kity_path_385" fill="white" stroke="gray" d="M770.5000251084566,391.49999801814556A6,6,0,1,1,758.5000251084566,391.49999801814556A6,6,0,1,1,770.5000251084566,391.49999801814556"></path><path id="kity_path_386" fill="none" stroke="gray" d="M760.0000251084566,391.49999801814556L769.0000251084566,391.49999801814556"></path></g><path id="node_outline15" fill="rgb(238, 243, 246)" stroke="rgb(115, 161, 191)" d="M774.5000259131193,378.49999801814556h82a3,3,0,0,1,3,3v20a3,3,0,0,1,-3,3h-82a3,3,0,0,1,-3,-3v-20a3,3,0,0,1,3,-3z" stroke-width="1"></path><g id="node_text15" fill="black"><text id="kity_text_183" text-rendering="inherit" font-size="14" dy=".8em" y="382.3999980509281" x="791.5000259131193">HTML5</text></g></g><g id="minder_node8"><g id="node_expander6" style="cursor: pointer;" display="none"><path id="kity_path_361" fill="white" stroke="gray" d="M899.5000289529562,248.49999375641346A6,6,0,1,1,887.5000289529562,248.49999375641346A6,6,0,1,1,899.5000289529562,248.49999375641346"></path><path id="kity_path_362" fill="none" stroke="gray"></path></g><path id="node_outline7" fill="none" stroke="none" d="M904.5000294297934,237.49999375641346h39a5,5,0,0,1,5,5v12a5,5,0,0,1,-5,5h-39a5,5,0,0,1,-5,-5v-12a5,5,0,0,1,5,-5z" stroke-width="3"></path><g id="node_text7" fill="black"><text id="kity_text_167" text-rendering="inherit" font-size="12" dy=".8em" y="240.69999382992586" x="909.5000294297934">basic</text></g></g><g id="minder_node9"><g id="node_expander7" style="cursor: pointer;" display="none"><path id="kity_path_364" fill="white" stroke="gray" d="M899.5000289529562,300.4999953061342A6,6,0,1,1,887.5000289529562,300.4999953061342A6,6,0,1,1,899.5000289529562,300.4999953061342"></path><path id="kity_path_365" fill="none" stroke="gray"></path></g><path id="node_outline8" fill="none" stroke="none" d="M904.5000294297934,289.4999953061342h107a5,5,0,0,1,5,5v12a5,5,0,0,1,-5,5h-107a5,5,0,0,1,-5,-5v-12a5,5,0,0,1,5,-5z" stroke-width="3"></path><g id="node_text8" fill="black"><text id="kity_text_169" text-rendering="inherit" font-size="12" dy=".8em" y="292.6999953796466" x="909.5000294297934">Semantic HTML5</text></g></g><g id="minder_node10"><g id="node_expander8" style="cursor: pointer;" display="none"><path id="kity_path_367" fill="white" stroke="gray" d="M899.5000289529562,352.499996855855A6,6,0,1,1,887.5000289529562,352.499996855855A6,6,0,1,1,899.5000289529562,352.499996855855"></path><path id="kity_path_368" fill="none" stroke="gray"></path></g><path id="node_outline9" fill="none" stroke="none" d="M904.5000294297934,341.499996855855h138a5,5,0,0,1,5,5v12a5,5,0,0,1,-5,5h-138a5,5,0,0,1,-5,-5v-12a5,5,0,0,1,5,-5z" stroke-width="3"></path><g id="node_text9" fill="black"><text id="kity_text_171" text-rendering="inherit" font-size="12" dy=".8em" y="344.6999969293674" x="909.5000294297934">Forms and Validations</text></g></g><g id="minder_node11"><g id="node_expander9" style="cursor: pointer;" display="none"><path id="kity_path_370" fill="white" stroke="gray" d="M899.5000289529562,404.49999840557575A6,6,0,1,1,887.5000289529562,404.49999840557575A6,6,0,1,1,899.5000289529562,404.49999840557575"></path><path id="kity_path_371" fill="none" stroke="gray"></path></g><path id="node_outline10" fill="none" stroke="none" d="M904.5000294297934,393.49999840557575h81a5,5,0,0,1,5,5v12a5,5,0,0,1,-5,5h-81a5,5,0,0,1,-5,-5v-12a5,5,0,0,1,5,-5z" stroke-width="3"></path><g id="node_text10" fill="black"><text id="kity_text_173" text-rendering="inherit" font-size="12" dy=".8em" y="396.69999847908815" x="909.5000294297934">Accessibility</text></g></g><g id="minder_node12"><g id="node_expander10" style="cursor: pointer;" display="none"><path id="kity_path_373" fill="white" stroke="gray" d="M899.5000289529562,456.4999999552965A6,6,0,1,1,887.5000289529562,456.4999999552965A6,6,0,1,1,899.5000289529562,456.4999999552965"></path><path id="kity_path_374" fill="none" stroke="gray"></path></g><path id="node_outline11" fill="none" stroke="none" d="M904.5000294297934,445.4999999552965h33a5,5,0,0,1,5,5v12a5,5,0,0,1,-5,5h-33a5,5,0,0,1,-5,-5v-12a5,5,0,0,1,5,-5z" stroke-width="3"></path><g id="node_text11" fill="black"><text id="kity_text_175" text-rendering="inherit" font-size="12" dy=".8em" y="448.7000000288089" x="909.5000294297934">SEO</text></g></g><g id="minder_node13" opacity="1"><g id="node_expander13" style="cursor: pointer;"><path id="kity_path_382" fill="white" stroke="gray" d="M899.5000289529562,534.5000022798777A6,6,0,1,1,887.5000289529562,534.5000022798777A6,6,0,1,1,899.5000289529562,534.5000022798777"></path><path id="kity_path_383" fill="none" stroke="gray" d="M889.0000289529562,534.5000022798777L898.0000289529562,534.5000022798777"></path></g><path id="node_outline14" fill="none" stroke="none" d="M904.5000294297934,523.5000022798777h86a5,5,0,0,1,5,5v12a5,5,0,0,1,-5,5h-86a5,5,0,0,1,-5,-5v-12a5,5,0,0,1,5,-5z" stroke-width="3"></path><g id="node_text14" fill="black"><text id="kity_text_181" text-rendering="inherit" font-size="12" dy=".8em" y="526.7000023533901" x="909.5000294297934">Web Storage</text></g></g><g id="minder_node16"><g id="node_expander19" style="cursor: pointer;"><path id="kity_path_400" fill="white" stroke="gray" d="M770.5000251084566,752.500008776784A6,6,0,1,1,758.5000251084566,752.500008776784A6,6,0,1,1,770.5000251084566,752.500008776784"></path><path id="kity_path_401" fill="none" stroke="gray" d="M760.0000251084566,752.500008776784L769.0000251084566,752.500008776784"></path></g><path id="node_outline20" fill="rgb(238, 243, 246)" stroke="rgb(115, 161, 191)" d="M774.5000259131193,739.500008776784h60a3,3,0,0,1,3,3v20a3,3,0,0,1,-3,3h-60a3,3,0,0,1,-3,-3v-20a3,3,0,0,1,3,-3z" stroke-width="1"></path><g id="node_text20" fill="black"><text id="kity_text_193" text-rendering="inherit" font-size="14" dy=".8em" y="743.4000088095665" x="791.5000259131193">CSS</text></g></g><g id="minder_node17"><g id="node_expander15" style="cursor: pointer;" display="none"><path id="kity_path_388" fill="white" stroke="gray" d="M877.5000282973051,622.500004902482A6,6,0,1,1,865.5000282973051,622.500004902482A6,6,0,1,1,877.5000282973051,622.500004902482"></path><path id="kity_path_389" fill="none" stroke="gray"></path></g><path id="node_outline16" fill="none" stroke="none" d="M882.5000287741423,611.500004902482h39a5,5,0,0,1,5,5v12a5,5,0,0,1,-5,5h-39a5,5,0,0,1,-5,-5v-12a5,5,0,0,1,5,-5z" stroke-width="3"></path><g id="node_text16" fill="black"><text id="kity_text_185" text-rendering="inherit" font-size="12" dy=".8em" y="614.7000049759945" x="887.5000287741423">basic</text></g></g><g id="minder_node18"><g id="node_expander16" style="cursor: pointer;" display="none"><path id="kity_path_391" fill="white" stroke="gray" d="M877.5000282973051,674.5000064522028A6,6,0,1,1,865.5000282973051,674.5000064522028A6,6,0,1,1,877.5000282973051,674.5000064522028"></path><path id="kity_path_392" fill="none" stroke="gray"></path></g><path id="node_outline17" fill="none" stroke="none" d="M882.5000287741423,663.5000064522028h229a5,5,0,0,1,5,5v12a5,5,0,0,1,-5,5h-229a5,5,0,0,1,-5,-5v-12a5,5,0,0,1,5,-5z" stroke-width="3"></path><g id="node_text17" fill="black"><text id="kity_text_187" text-rendering="inherit" font-size="12" dy=".8em" y="666.7000065257153" x="887.5000287741423">Responsive design and Media Queries</text></g></g><g id="minder_node19"><g id="node_expander17" style="cursor: pointer;" display="none"><path id="kity_path_394" fill="white" stroke="gray" d="M877.5000282973051,726.5000080019236A6,6,0,1,1,865.5000282973051,726.5000080019236A6,6,0,1,1,877.5000282973051,726.5000080019236"></path><path id="kity_path_395" fill="none" stroke="gray"></path></g><path id="node_outline18" fill="none" stroke="none" d="M882.5000287741423,715.5000080019236h54a5,5,0,0,1,5,5v12a5,5,0,0,1,-5,5h-54a5,5,0,0,1,-5,-5v-12a5,5,0,0,1,5,-5z" stroke-width="3"></path><g id="node_text18" fill="black"><text id="kity_text_189" text-rendering="inherit" font-size="12" dy=".8em" y="718.700008075436" x="887.5000287741423">Layouts</text></g></g><g id="minder_node20"><g id="node_expander18" style="cursor: pointer;" display="none"><path id="kity_path_397" fill="white" stroke="gray" d="M877.5000282973051,778.5000095516443A6,6,0,1,1,865.5000282973051,778.5000095516443A6,6,0,1,1,877.5000282973051,778.5000095516443"></path><path id="kity_path_398" fill="none" stroke="gray"></path></g><path id="node_outline19" fill="none" stroke="none" d="M882.5000287741423,767.5000095516443h70a5,5,0,0,1,5,5v12a5,5,0,0,1,-5,5h-70a5,5,0,0,1,-5,-5v-12a5,5,0,0,1,5,-5z" stroke-width="3"></path><g id="node_text19" fill="black"><text id="kity_text_191" text-rendering="inherit" font-size="12" dy=".8em" y="770.7000096251568" x="887.5000287741423">Animation</text></g></g><g id="minder_node25"><g id="node_expander30" style="cursor: pointer;"><path id="kity_path_433" fill="white" stroke="gray" d="M770.5000251084566,1074.5000183731318A6,6,0,1,1,758.5000251084566,1074.5000183731318A6,6,0,1,1,770.5000251084566,1074.5000183731318"></path><path id="kity_path_434" fill="none" stroke="gray" d="M760.0000251084566,1074.5000183731318L769.0000251084566,1074.5000183731318"></path></g><path id="node_outline31" fill="rgb(238, 243, 246)" stroke="rgb(115, 161, 191)" d="M774.5000259131193,1061.5000183731318h101a3,3,0,0,1,3,3v20a3,3,0,0,1,-3,3h-101a3,3,0,0,1,-3,-3v-20a3,3,0,0,1,3,-3z" stroke-width="1"></path><g id="node_text31" fill="black"><text id="kity_text_215" text-rendering="inherit" font-size="14" dy=".8em" y="1065.4000184059144" x="791.5000259131193">JavaScript</text></g></g><g id="minder_node26"><g id="node_expander24" style="cursor: pointer;" display="none"><path id="kity_path_415" fill="white" stroke="gray" d="M918.5000295192003,944.5000144988298A6,6,0,1,1,906.5000295192003,944.5000144988298A6,6,0,1,1,918.5000295192003,944.5000144988298"></path><path id="kity_path_416" fill="none" stroke="gray"></path></g><path id="node_outline25" fill="none" stroke="none" d="M923.5000299960375,933.5000144988298h165a5,5,0,0,1,5,5v12a5,5,0,0,1,-5,5h-165a5,5,0,0,1,-5,-5v-12a5,5,0,0,1,5,-5z" stroke-width="3"></path><g id="node_text25" fill="black"><text id="kity_text_203" text-rendering="inherit" font-size="12" dy=".8em" y="936.7000145723423" x="928.5000299960375">Syntax and Basic Construct</text></g></g><g id="minder_node27"><g id="node_expander25" style="cursor: pointer;" display="none"><path id="kity_path_418" fill="white" stroke="gray" d="M918.5000295192003,996.5000160485506A6,6,0,1,1,906.5000295192003,996.5000160485506A6,6,0,1,1,918.5000295192003,996.5000160485506"></path><path id="kity_path_419" fill="none" stroke="gray"></path></g><path id="node_outline26" fill="none" stroke="none" d="M923.5000299960375,985.5000160485506h121a5,5,0,0,1,5,5v12a5,5,0,0,1,-5,5h-121a5,5,0,0,1,-5,-5v-12a5,5,0,0,1,5,-5z" stroke-width="3"></path><g id="node_text26" fill="black"><text id="kity_text_205" text-rendering="inherit" font-size="12" dy=".8em" y="988.7000161220631" x="928.5000299960375">DOM Manipulation</text></g></g><g id="minder_node28"><g id="node_expander26" style="cursor: pointer;" display="none"><path id="kity_path_421" fill="white" stroke="gray" d="M918.5000295192003,1048.5000175982714A6,6,0,1,1,906.5000295192003,1048.5000175982714A6,6,0,1,1,918.5000295192003,1048.5000175982714"></path><path id="kity_path_422" fill="none" stroke="gray"></path></g><path id="node_outline27" fill="none" stroke="none" d="M923.5000299960375,1037.5000175982714h119a5,5,0,0,1,5,5v12a5,5,0,0,1,-5,5h-119a5,5,0,0,1,-5,-5v-12a5,5,0,0,1,5,-5z" stroke-width="3"></path><g id="node_text27" fill="black"><text id="kity_text_207" text-rendering="inherit" font-size="12" dy=".8em" y="1040.7000176717838" x="928.5000299960375">Regular Expression</text></g></g><g id="minder_node29"><g id="node_expander27" style="cursor: pointer;" display="none"><path id="kity_path_424" fill="white" stroke="gray" d="M918.5000295192003,1100.5000191479921A6,6,0,1,1,906.5000295192003,1100.5000191479921A6,6,0,1,1,918.5000295192003,1100.5000191479921"></path><path id="kity_path_425" fill="none" stroke="gray"></path></g><path id="node_outline28" fill="none" stroke="none" d="M923.5000299960375,1089.5000191479921h138a5,5,0,0,1,5,5v12a5,5,0,0,1,-5,5h-138a5,5,0,0,1,-5,-5v-12a5,5,0,0,1,5,-5z" stroke-width="3"></path><g id="node_text28" fill="black"><text id="kity_text_209" text-rendering="inherit" font-size="12" dy=".8em" y="1092.7000192215046" x="928.5000299960375">Fetch API / AJAX(XHR)</text></g></g><g id="minder_node30"><g id="node_expander28" style="cursor: pointer;" display="none"><path id="kity_path_427" fill="white" stroke="gray" d="M918.5000295192003,1152.500020697713A6,6,0,1,1,906.5000295192003,1152.500020697713A6,6,0,1,1,918.5000295192003,1152.500020697713"></path><path id="kity_path_428" fill="none" stroke="gray"></path></g><path id="node_outline29" fill="none" stroke="none" d="M923.5000299960375,1141.500020697713h39a5,5,0,0,1,5,5v12a5,5,0,0,1,-5,5h-39a5,5,0,0,1,-5,-5v-12a5,5,0,0,1,5,-5z" stroke-width="3"></path><g id="node_text29" fill="black"><text id="kity_text_211" text-rendering="inherit" font-size="12" dy=".8em" y="1144.7000207712254" x="928.5000299960375">ES6+</text></g></g><g id="minder_node31"><g id="node_expander29" style="cursor: pointer;" display="none"><path id="kity_path_430" fill="white" stroke="gray" d="M918.5000295192003,1204.5000222474337A6,6,0,1,1,906.5000295192003,1204.5000222474337A6,6,0,1,1,918.5000295192003,1204.5000222474337"></path><path id="kity_path_431" fill="none" stroke="gray"></path></g><path id="node_outline30" fill="none" stroke="none" d="M923.5000299960375,1193.5000222474337h119a5,5,0,0,1,5,5v12a5,5,0,0,1,-5,5h-119a5,5,0,0,1,-5,-5v-12a5,5,0,0,1,5,-5z" stroke-width="3"></path><g id="node_text30" fill="black"><text id="kity_text_213" text-rendering="inherit" font-size="12" dy=".8em" y="1196.7000223209461" x="928.5000299960375">modular JavaScript</text></g></g><g id="minder_node32"><g id="node_expander33" style="cursor: pointer;"><path id="kity_path_442" fill="white" stroke="gray" d="M770.5000251084566,1292.500024870038A6,6,0,1,1,758.5000251084566,1292.500024870038A6,6,0,1,1,770.5000251084566,1292.500024870038"></path><path id="kity_path_443" fill="none" stroke="gray" d="M760.0000251084566,1292.500024870038L769.0000251084566,1292.500024870038"></path></g><path id="node_outline34" fill="rgb(238, 243, 246)" stroke="rgb(115, 161, 191)" d="M774.5000259131193,1279.500024870038h154a3,3,0,0,1,3,3v20a3,3,0,0,1,-3,3h-154a3,3,0,0,1,-3,-3v-20a3,3,0,0,1,3,-3z" stroke-width="1"></path><g id="node_text34" fill="black"><text id="kity_text_221" text-rendering="inherit" font-size="14" dy=".8em" y="1283.4000249028206" x="791.5000259131193">Package Manager</text></g></g><g id="minder_node33"><g id="node_expander31" style="cursor: pointer;" display="none"><path id="kity_path_436" fill="white" stroke="gray" d="M971.5000310987234,1266.5000240951777A6,6,0,1,1,959.5000310987234,1266.5000240951777A6,6,0,1,1,971.5000310987234,1266.5000240951777"></path><path id="kity_path_437" fill="none" stroke="gray"></path></g><path id="node_outline32" fill="none" stroke="none" d="M976.5000315755606,1255.5000240951777h36a5,5,0,0,1,5,5v12a5,5,0,0,1,-5,5h-36a5,5,0,0,1,-5,-5v-12a5,5,0,0,1,5,-5z" stroke-width="3"></path><g id="node_text32" fill="black"><text id="kity_text_217" text-rendering="inherit" font-size="12" dy=".8em" y="1258.70002416869" x="981.5000315755606">npm</text></g></g><g id="minder_node34"><g id="node_expander32" style="cursor: pointer;" display="none"><path id="kity_path_439" fill="white" stroke="gray" d="M971.5000310987234,1318.5000256448984A6,6,0,1,1,959.5000310987234,1318.5000256448984A6,6,0,1,1,971.5000310987234,1318.5000256448984"></path><path id="kity_path_440" fill="none" stroke="gray"></path></g><path id="node_outline33" fill="none" stroke="none" d="M976.5000315755606,1307.5000256448984h36a5,5,0,0,1,5,5v12a5,5,0,0,1,-5,5h-36a5,5,0,0,1,-5,-5v-12a5,5,0,0,1,5,-5z" stroke-width="3"></path><g id="node_text33" fill="black"><text id="kity_text_219" text-rendering="inherit" font-size="12" dy=".8em" y="1310.7000257184109" x="981.5000315755606">yarn</text></g></g><g id="minder_node35" opacity="1"><g id="node_expander37" style="cursor: pointer;"><path id="kity_path_454" fill="white" stroke="gray" d="M770.5000251084566,1432.5000290423632A6,6,0,1,1,758.5000251084566,1432.5000290423632A6,6,0,1,1,770.5000251084566,1432.5000290423632"></path><path id="kity_path_455" fill="none" stroke="gray" d="M760.0000251084566,1432.5000290423632L769.0000251084566,1432.5000290423632"></path></g><path id="node_outline38" fill="rgb(238, 243, 246)" stroke="rgb(115, 161, 191)" d="M774.5000259131193,1419.5000290423632h123a3,3,0,0,1,3,3v20a3,3,0,0,1,-3,3h-123a3,3,0,0,1,-3,-3v-20a3,3,0,0,1,3,-3z" stroke-width="1"></path><g id="node_text38" fill="black"><text id="kity_text_229" text-rendering="inherit" font-size="14" dy=".8em" y="1423.4000290751458" x="791.5000259131193">Web Security</text></g></g><g id="minder_node39" opacity="1"><g id="node_expander40" style="cursor: pointer;"><path id="kity_path_463" fill="white" stroke="gray" d="M770.5000251084566,1572.5000332146883A6,6,0,1,1,758.5000251084566,1572.5000332146883A6,6,0,1,1,770.5000251084566,1572.5000332146883"></path><path id="kity_path_464" fill="none" stroke="gray" d="M760.0000251084566,1572.5000332146883L769.0000251084566,1572.5000332146883"></path></g><path id="node_outline41" fill="rgb(238, 243, 246)" stroke="rgb(115, 161, 191)" d="M774.5000259131193,1559.5000332146883h192a3,3,0,0,1,3,3v20a3,3,0,0,1,-3,3h-192a3,3,0,0,1,-3,-3v-20a3,3,0,0,1,3,-3z" stroke-width="1"></path><g id="node_text41" fill="black"><text id="kity_text_235" text-rendering="inherit" font-size="14" dy=".8em" y="1563.400033247471" x="791.5000259131193">Version Control System</text></g></g><g id="minder_node42" opacity="1"><g id="node_expander44" style="cursor: pointer;"><path id="kity_path_475" fill="white" stroke="gray" d="M770.5000251084566,1712.5000373870134A6,6,0,1,1,758.5000251084566,1712.5000373870134A6,6,0,1,1,770.5000251084566,1712.5000373870134"></path><path id="kity_path_476" fill="none" stroke="gray" d="M760.0000251084566,1712.5000373870134L769.0000251084566,1712.5000373870134"></path></g><path id="node_outline45" fill="rgb(238, 243, 246)" stroke="rgb(115, 161, 191)" d="M774.5000259131193,1699.5000373870134h149a3,3,0,0,1,3,3v20a3,3,0,0,1,-3,3h-149a3,3,0,0,1,-3,-3v-20a3,3,0,0,1,3,-3z" stroke-width="1"></path><g id="node_text45" fill="black"><text id="kity_text_243" text-rendering="inherit" font-size="14" dy=".8em" y="1703.400037419796" x="791.5000259131193">Module Bundlers</text></g></g><g id="minder_node46" opacity="1"><g id="node_expander48" style="cursor: pointer;"><path id="kity_path_487" fill="white" stroke="gray" d="M364.5000130087137,484.50000078976154A6,6,0,1,1,352.5000130087137,484.50000078976154A6,6,0,1,1,364.5000130087137,484.50000078976154"></path><path id="kity_path_488" fill="none" stroke="gray" d="M354.0000130087137,484.50000078976154L363.0000130087137,484.50000078976154"></path></g><path id="node_outline49" fill="rgb(238, 243, 246)" stroke="rgb(115, 161, 191)" d="M239.50000996887684,471.50000078976154h109a3,3,0,0,1,3,3v20a3,3,0,0,1,-3,3h-109a3,3,0,0,1,-3,-3v-20a3,3,0,0,1,3,-3z" stroke-width="1"></path><g id="node_text49" fill="black"><text id="kity_text_251" text-rendering="inherit" font-size="14" dy=".8em" y="475.4000008225441" x="256.50000996887684">Framework</text></g></g><g id="minder_node50" opacity="1"><g id="node_expander49" style="cursor: pointer;" display="none"><path id="kity_path_490" fill="white" stroke="gray" d="M364.5000130087137,600.5000042468309A6,6,0,1,1,352.5000130087137,600.5000042468309A6,6,0,1,1,364.5000130087137,600.5000042468309"></path><path id="kity_path_491" fill="none" stroke="gray"></path></g><path id="node_outline50" fill="rgb(238, 243, 246)" stroke="rgb(115, 161, 191)" d="M243.50001008808613,587.5000042468309h105a3,3,0,0,1,3,3v20a3,3,0,0,1,-3,3h-105a3,3,0,0,1,-3,-3v-20a3,3,0,0,1,3,-3z" stroke-width="1"></path><g id="node_text50" fill="black"><text id="kity_text_253" text-rendering="inherit" font-size="14" dy=".8em" y="591.4000042796135" x="260.5000100880861">TypeScript</text></g></g><g id="minder_node51" opacity="1"><g id="node_expander50" style="cursor: pointer;" display="none"><path id="kity_path_493" fill="white" stroke="gray" d="M364.5000130087137,666.5000062137842A6,6,0,1,1,352.5000130087137,666.5000062137842A6,6,0,1,1,364.5000130087137,666.5000062137842"></path><path id="kity_path_494" fill="none" stroke="gray"></path></g><path id="node_outline51" fill="rgb(238, 243, 246)" stroke="rgb(115, 161, 191)" d="M214.50000922381878,653.5000062137842h134a3,3,0,0,1,3,3v20a3,3,0,0,1,-3,3h-134a3,3,0,0,1,-3,-3v-20a3,3,0,0,1,3,-3z" stroke-width="1"></path><g id="node_text51" fill="black"><text id="kity_text_255" text-rendering="inherit" font-size="14" dy=".8em" y="657.4000062465668" x="231.50000922381878">Web Assembly</text></g></g><g id="minder_node52"><g id="node_expander54" style="cursor: pointer;"><path id="kity_path_505" fill="white" stroke="gray" d="M364.5000130087137,782.5000096708536A6,6,0,1,1,352.5000130087137,782.5000096708536A6,6,0,1,1,364.5000130087137,782.5000096708536"></path><path id="kity_path_506" fill="none" stroke="gray" d="M354.0000130087137,782.5000096708536L363.0000130087137,782.5000096708536"></path></g><path id="node_outline55" fill="rgb(238, 243, 246)" stroke="rgb(115, 161, 191)" d="M254.50001041591167,769.5000096708536h94a3,3,0,0,1,3,3v20a3,3,0,0,1,-3,3h-94a3,3,0,0,1,-3,-3v-20a3,3,0,0,1,3,-3z" stroke-width="1"></path><g id="node_text55" fill="black"><text id="kity_text_263" text-rendering="inherit" font-size="14" dy=".8em" y="773.4000097036362" x="271.5000104159117">Unit Test</text></g></g><g id="minder_node53"><g id="node_expander51" style="cursor: pointer;" display="none"><path id="kity_path_496" fill="white" stroke="gray" d="M223.50000880658627,730.5000081211329A6,6,0,1,1,211.50000880658627,730.5000081211329A6,6,0,1,1,223.50000880658627,730.5000081211329"></path><path id="kity_path_497" fill="none" stroke="gray"></path></g><path id="node_outline52" fill="none" stroke="none" d="M150.50000695884228,719.5000081211329h56a5,5,0,0,1,5,5v12a5,5,0,0,1,-5,5h-56a5,5,0,0,1,-5,-5v-12a5,5,0,0,1,5,-5z" stroke-width="3"></path><g id="node_text52" fill="black"><text id="kity_text_257" text-rendering="inherit" font-size="12" dy=".8em" y="722.7000081946453" x="155.50000695884228">Jasmine</text></g></g><g id="minder_node54"><g id="node_expander52" style="cursor: pointer;" display="none"><path id="kity_path_499" fill="white" stroke="gray" d="M223.50000880658627,782.5000096708536A6,6,0,1,1,211.50000880658627,782.5000096708536A6,6,0,1,1,223.50000880658627,782.5000096708536"></path><path id="kity_path_500" fill="none" stroke="gray"></path></g><path id="node_outline53" fill="none" stroke="none" d="M159.50000722706318,771.5000096708536h47a5,5,0,0,1,5,5v12a5,5,0,0,1,-5,5h-47a5,5,0,0,1,-5,-5v-12a5,5,0,0,1,5,-5z" stroke-width="3"></path><g id="node_text53" fill="black"><text id="kity_text_259" text-rendering="inherit" font-size="12" dy=".8em" y="774.7000097443661" x="164.50000722706318">Karma</text></g></g><g id="minder_node55"><g id="node_expander53" style="cursor: pointer;" display="none"><path id="kity_path_502" fill="white" stroke="gray" d="M223.50000880658627,834.5000112205744A6,6,0,1,1,211.50000880658627,834.5000112205744A6,6,0,1,1,223.50000880658627,834.5000112205744"></path><path id="kity_path_503" fill="none" stroke="gray"></path></g><path id="node_outline54" fill="none" stroke="none" d="M174.50000767409801,823.5000112205744h32a5,5,0,0,1,5,5v12a5,5,0,0,1,-5,5h-32a5,5,0,0,1,-5,-5v-12a5,5,0,0,1,5,-5z" stroke-width="3"></path><g id="node_text54" fill="black"><text id="kity_text_261" text-rendering="inherit" font-size="12" dy=".8em" y="826.7000112940868" x="179.50000767409801">Jest</text></g></g><g id="minder_node56" opacity="1"><g id="node_expander57" style="cursor: pointer;"><path id="kity_path_514" fill="white" stroke="gray" d="M364.5000130087137,1026.5000169426203A6,6,0,1,1,352.5000130087137,1026.5000169426203A6,6,0,1,1,364.5000130087137,1026.5000169426203"></path><path id="kity_path_515" fill="none" stroke="gray" d="M354.0000130087137,1026.5000169426203L363.0000130087137,1026.5000169426203"></path></g><path id="node_outline58" fill="rgb(238, 243, 246)" stroke="rgb(115, 161, 191)" d="M217.50000931322575,1013.5000169426203h131a3,3,0,0,1,3,3v20a3,3,0,0,1,-3,3h-131a3,3,0,0,1,-3,-3v-20a3,3,0,0,1,3,-3z" stroke-width="1"></path><g id="node_text58" fill="black"><text id="kity_text_269" text-rendering="inherit" font-size="14" dy=".8em" y="1017.4000169754029" x="234.50000931322575">Data Structure</text></g></g><g id="minder_node59" opacity="1"><g id="node_expander59" style="cursor: pointer;"><path id="kity_path_520" fill="white" stroke="gray" d="M364.5000130087137,1220.5000227242708A6,6,0,1,1,352.5000130087137,1220.5000227242708A6,6,0,1,1,364.5000130087137,1220.5000227242708"></path><path id="kity_path_521" fill="none" stroke="gray" d="M354.0000130087137,1220.5000227242708L363.0000130087137,1220.5000227242708"></path></g><path id="node_outline60" fill="rgb(238, 243, 246)" stroke="rgb(115, 161, 191)" d="M170.5000079125166,1207.5000227242708h178a3,3,0,0,1,3,3v20a3,3,0,0,1,-3,3h-178a3,3,0,0,1,-3,-3v-20a3,3,0,0,1,3,-3z" stroke-width="1"></path><g id="node_text60" fill="black"><text id="kity_text_273" text-rendering="inherit" font-size="14" dy=".8em" y="1211.4000227570534" x="187.5000079125166">Progressive Web App</text></g></g><g id="minder_node61" opacity="1"><g id="node_expander63" style="cursor: pointer;"><path id="kity_path_532" fill="white" stroke="gray" d="M364.5000130087137,1336.5000261813402A6,6,0,1,1,352.5000130087137,1336.5000261813402A6,6,0,1,1,364.5000130087137,1336.5000261813402"></path><path id="kity_path_533" fill="none" stroke="gray" d="M354.0000130087137,1336.5000261813402L363.0000130087137,1336.5000261813402"></path></g><path id="node_outline64" fill="rgb(238, 243, 246)" stroke="rgb(115, 161, 191)" d="M278.5000111311674,1323.5000261813402h70a3,3,0,0,1,3,3v20a3,3,0,0,1,-3,3h-70a3,3,0,0,1,-3,-3v-20a3,3,0,0,1,3,-3z" stroke-width="1"></path><g id="node_text64" fill="black"><text id="kity_text_281" text-rendering="inherit" font-size="14" dy=".8em" y="1327.4000262141228" x="295.5000111311674">Tools</text></g></g><g id="minder_node65"><g id="node_expander64" style="cursor: pointer;" display="none"><path id="kity_path_546" fill="white" stroke="gray" d="M877.5000282973051,830.5000111013651A6,6,0,1,1,865.5000282973051,830.5000111013651A6,6,0,1,1,877.5000282973051,830.5000111013651"></path><path id="kity_path_547" fill="none" stroke="gray"></path></g><path id="node_outline65" fill="none" stroke="none" d="M882.5000287741423,819.5000111013651h35a5,5,0,0,1,5,5v12a5,5,0,0,1,-5,5h-35a5,5,0,0,1,-5,-5v-12a5,5,0,0,1,5,-5z" stroke-width="3"></path><g id="node_text65" fill="black"><text id="kity_text_543" text-rendering="inherit" font-size="12" dy=".8em" y="822.7000111748775" x="887.5000287741423">Scss</text></g></g><g id="minder_node66"><g id="node_expander65" style="cursor: pointer;" display="none"><path id="kity_path_554" fill="white" stroke="gray" d="M877.5000282973051,882.5000126510859A6,6,0,1,1,865.5000282973051,882.5000126510859A6,6,0,1,1,877.5000282973051,882.5000126510859"></path><path id="kity_path_555" fill="none" stroke="gray"></path></g><path id="node_outline66" fill="none" stroke="none" d="M882.5000287741423,871.5000126510859h35a5,5,0,0,1,5,5v12a5,5,0,0,1,-5,5h-35a5,5,0,0,1,-5,-5v-12a5,5,0,0,1,5,-5z" stroke-width="3"></path><g id="node_text66" fill="black"><text id="kity_text_551" text-rendering="inherit" font-size="12" dy=".8em" y="874.7000127245983" x="887.5000287741423">Less</text></g></g><g id="minder_node62"><g id="node_expander60" style="cursor: pointer;" display="none"><path id="kity_path_523" fill="white" stroke="gray" d="M247.500009521842,1284.5000246316195A6,6,0,1,1,235.500009521842,1284.5000246316195A6,6,0,1,1,247.500009521842,1284.5000246316195"></path><path id="kity_path_524" fill="none" stroke="gray"></path></g><path id="node_outline61" fill="none" stroke="none" d="M170.50000755488873,1273.5000246316195h60a5,5,0,0,1,5,5v12a5,5,0,0,1,-5,5h-60a5,5,0,0,1,-5,-5v-12a5,5,0,0,1,5,-5z" stroke-width="3"></path><g id="node_text61" fill="black"><text id="kity_text_275" text-rendering="inherit" font-size="12" dy=".8em" y="1276.700024705132" x="175.50000755488873">Postman</text></g></g><g id="minder_node63"><g id="node_expander61" style="cursor: pointer;" display="none"><path id="kity_path_526" fill="white" stroke="gray" d="M247.500009521842,1336.5000261813402A6,6,0,1,1,235.500009521842,1336.5000261813402A6,6,0,1,1,247.500009521842,1336.5000261813402"></path><path id="kity_path_527" fill="none" stroke="gray"></path></g><path id="node_outline62" fill="none" stroke="none" d="M180.50000785291195,1325.5000261813402h50a5,5,0,0,1,5,5v12a5,5,0,0,1,-5,5h-50a5,5,0,0,1,-5,-5v-12a5,5,0,0,1,5,-5z" stroke-width="3"></path><g id="node_text62" fill="black"><text id="kity_text_277" text-rendering="inherit" font-size="12" dy=".8em" y="1328.7000262548527" x="185.50000785291195">Fiddler</text></g></g><g id="minder_node64"><g id="node_expander62" style="cursor: pointer;" display="none"><path id="kity_path_529" fill="white" stroke="gray" d="M247.500009521842,1388.500027731061A6,6,0,1,1,235.500009521842,1388.500027731061A6,6,0,1,1,247.500009521842,1388.500027731061"></path><path id="kity_path_530" fill="none" stroke="gray"></path></g><path id="node_outline63" fill="none" stroke="none" d="M167.50000746548176,1377.500027731061h63a5,5,0,0,1,5,5v12a5,5,0,0,1,-5,5h-63a5,5,0,0,1,-5,-5v-12a5,5,0,0,1,5,-5z" stroke-width="3"></path><g id="node_text63" fill="black"><text id="kity_text_279" text-rendering="inherit" font-size="12" dy=".8em" y="1380.7000278045734" x="172.50000746548176">DevTools</text></g></g><g id="minder_node60"><g id="node_expander58" style="cursor: pointer;" display="none"><path id="kity_path_517" fill="white" stroke="gray" d="M139.50000630319118,1220.5000227242708A6,6,0,1,1,127.50000630319118,1220.5000227242708A6,6,0,1,1,139.50000630319118,1220.5000227242708"></path><path id="kity_path_518" fill="none" stroke="gray"></path></g><path id="node_outline59" fill="none" stroke="none" d="M25.50000323355198,1209.5000227242708h97a5,5,0,0,1,5,5v12a5,5,0,0,1,-5,5h-97a5,5,0,0,1,-5,-5v-12a5,5,0,0,1,5,-5z" stroke-width="3"></path><g id="node_text59" fill="black"><text id="kity_text_271" text-rendering="inherit" font-size="12" dy=".8em" y="1212.7000227977833" x="30.50000323355198">Service Worker</text></g></g><g id="minder_node57"><g id="node_expander55" style="cursor: pointer;" display="none"><path id="kity_path_508" fill="white" stroke="gray" d="M186.50000770390034,896.5000130683184A6,6,0,1,1,174.50000770390034,896.5000130683184A6,6,0,1,1,186.50000770390034,896.5000130683184"></path><path id="kity_path_509" fill="none" stroke="gray"></path></g><path id="node_outline56" fill="none" stroke="none" d="M98.50000540912151,885.5000130683184h71a5,5,0,0,1,5,5v12a5,5,0,0,1,-5,5h-71a5,5,0,0,1,-5,-5v-12a5,5,0,0,1,5,-5z" stroke-width="3"></path><g id="node_text56" fill="black"><text id="kity_text_265" text-rendering="inherit" font-size="12" dy=".8em" y="888.7000131418308" x="103.50000540912151">Quick Sort</text></g></g><g id="minder_node58"><g id="node_expander56" style="cursor: pointer;" display="none"><path id="kity_path_511" fill="white" stroke="gray" d="M186.50000770390034,948.5000146180391A6,6,0,1,1,174.50000770390034,948.5000146180391A6,6,0,1,1,186.50000770390034,948.5000146180391"></path><path id="kity_path_512" fill="none" stroke="gray"></path></g><path id="node_outline57" fill="none" stroke="none" d="M106.50000564754009,937.5000146180391h63a5,5,0,0,1,5,5v12a5,5,0,0,1,-5,5h-63a5,5,0,0,1,-5,-5v-12a5,5,0,0,1,5,-5z" stroke-width="3"></path><g id="node_text57" fill="black"><text id="kity_text_267" text-rendering="inherit" font-size="12" dy=".8em" y="940.7000146915516" x="111.50000564754009">AVL Tree</text></g></g><g id="minder_node67"><g id="node_expander66" style="cursor: pointer;" display="none"><path id="kity_path_571" fill="white" stroke="gray" d="M186.50000770390034,1000.5000161677599A6,6,0,1,1,174.50000770390034,1000.5000161677599A6,6,0,1,1,186.50000770390034,1000.5000161677599"></path><path id="kity_path_572" fill="none" stroke="gray"></path></g><path id="node_outline67" fill="none" stroke="none" d="M73.50000466406345,989.5000161677599h96a5,5,0,0,1,5,5v12a5,5,0,0,1,-5,5h-96a5,5,0,0,1,-5,-5v-12a5,5,0,0,1,5,-5z" stroke-width="3"></path><g id="node_text67" fill="black"><text id="kity_text_568" text-rendering="inherit" font-size="12" dy=".8em" y="992.7000162412724" x="78.50000466406345">Red-Black Tree</text></g></g><g id="minder_node68"><g id="node_expander67" style="cursor: pointer;" display="none"><path id="kity_path_579" fill="white" stroke="gray" d="M186.50000770390034,1052.5000177174807A6,6,0,1,1,174.50000770390034,1052.5000177174807A6,6,0,1,1,186.50000770390034,1052.5000177174807"></path><path id="kity_path_580" fill="none" stroke="gray"></path></g><path id="node_outline68" fill="none" stroke="none" d="M53.500004068017006,1041.5000177174807h116a5,5,0,0,1,5,5v12a5,5,0,0,1,-5,5h-116a5,5,0,0,1,-5,-5v-12a5,5,0,0,1,5,-5z" stroke-width="3"></path><g id="node_text68" fill="black"><text id="kity_text_576" text-rendering="inherit" font-size="12" dy=".8em" y="1044.7000177909931" x="58.500004068017006">Binary Search Tree</text></g></g><g id="minder_node69"><g id="node_expander68" style="cursor: pointer;" display="none"><path id="kity_path_587" fill="white" stroke="gray" d="M186.50000770390034,1104.5000192672014A6,6,0,1,1,174.50000770390034,1104.5000192672014A6,6,0,1,1,186.50000770390034,1104.5000192672014"></path><path id="kity_path_588" fill="none" stroke="gray"></path></g><path id="node_outline69" fill="none" stroke="none" d="M52.50000403821468,1093.5000192672014h117a5,5,0,0,1,5,5v12a5,5,0,0,1,-5,5h-117a5,5,0,0,1,-5,-5v-12a5,5,0,0,1,5,-5z" stroke-width="3"></path><g id="node_text69" fill="black"><text id="kity_text_584" text-rendering="inherit" font-size="12" dy=".8em" y="1096.7000193407139" x="57.50000403821468">Depth-First Search</text></g></g><g id="minder_node70"><g id="node_expander69" style="cursor: pointer;" display="none"><path id="kity_path_595" fill="white" stroke="gray" d="M186.50000770390034,1156.5000208169222A6,6,0,1,1,174.50000770390034,1156.5000208169222A6,6,0,1,1,186.50000770390034,1156.5000208169222"></path><path id="kity_path_596" fill="none" stroke="gray"></path></g><path id="node_outline70" fill="none" stroke="none" d="M43.50000376999378,1145.5000208169222h126a5,5,0,0,1,5,5v12a5,5,0,0,1,-5,5h-126a5,5,0,0,1,-5,-5v-12a5,5,0,0,1,5,-5z" stroke-width="3"></path><g id="node_text70" fill="black"><text id="kity_text_592" text-rendering="inherit" font-size="12" dy=".8em" y="1148.7000208904346" x="48.50000376999378">Breadth-First Search</text></g></g><g id="minder_node14"><g id="node_expander11" style="cursor: pointer;" display="none"><path id="kity_path_376" fill="white" stroke="gray" d="M1035.500033006072,508.5000015050173A6,6,0,1,1,1023.500033006072,508.5000015050173A6,6,0,1,1,1035.500033006072,508.5000015050173"></path><path id="kity_path_377" fill="none" stroke="gray"></path></g><path id="node_outline12" fill="none" stroke="none" d="M1040.5000334829092,497.5000015050173h73a5,5,0,0,1,5,5v12a5,5,0,0,1,-5,5h-73a5,5,0,0,1,-5,-5v-12a5,5,0,0,1,5,-5z" stroke-width="3"></path><g id="node_text12" fill="black"><text id="kity_text_177" text-rendering="inherit" font-size="12" dy=".8em" y="500.7000015785297" x="1045.5000334829092">IndecedDB</text></g></g><g id="minder_node15"><g id="node_expander12" style="cursor: pointer;" display="none"><path id="kity_path_379" fill="white" stroke="gray" d="M1035.500033006072,560.500003054738A6,6,0,1,1,1023.500033006072,560.500003054738A6,6,0,1,1,1035.500033006072,560.500003054738"></path><path id="kity_path_380" fill="none" stroke="gray"></path></g><path id="node_outline13" fill="none" stroke="none" d="M1040.5000334829092,549.500003054738h84a5,5,0,0,1,5,5v12a5,5,0,0,1,-5,5h-84a5,5,0,0,1,-5,-5v-12a5,5,0,0,1,5,-5z" stroke-width="3"></path><g id="node_text13" fill="black"><text id="kity_text_179" text-rendering="inherit" font-size="12" dy=".8em" y="552.7000031282505" x="1045.5000334829092">LocalStorage</text></g></g><g id="minder_node47"><g id="node_expander45" style="cursor: pointer;" display="none"><path id="kity_path_478" fill="white" stroke="gray" d="M208.50000835955143,432.4999992400408A6,6,0,1,1,196.50000835955143,432.4999992400408A6,6,0,1,1,208.50000835955143,432.4999992400408"></path><path id="kity_path_479" fill="none" stroke="gray"></path></g><path id="node_outline46" fill="none" stroke="none" d="M149.50000692903996,421.4999992400408h42a5,5,0,0,1,5,5v12a5,5,0,0,1,-5,5h-42a5,5,0,0,1,-5,-5v-12a5,5,0,0,1,5,-5z" stroke-width="3"></path><g id="node_text46" fill="black"><text id="kity_text_245" text-rendering="inherit" font-size="12" dy=".8em" y="424.6999993135532" x="154.50000692903996">React</text></g></g><g id="minder_node48"><g id="node_expander46" style="cursor: pointer;" display="none"><path id="kity_path_481" fill="white" stroke="gray" d="M208.50000835955143,484.50000078976154A6,6,0,1,1,196.50000835955143,484.50000078976154A6,6,0,1,1,208.50000835955143,484.50000078976154"></path><path id="kity_path_482" fill="none" stroke="gray"></path></g><path id="node_outline47" fill="none" stroke="none" d="M134.50000648200512,473.50000078976154h57a5,5,0,0,1,5,5v12a5,5,0,0,1,-5,5h-57a5,5,0,0,1,-5,-5v-12a5,5,0,0,1,5,-5z" stroke-width="3"></path><g id="node_text47" fill="black"><text id="kity_text_247" text-rendering="inherit" font-size="12" dy=".8em" y="476.70000086327394" x="139.50000648200512">Angular</text></g></g><g id="minder_node49"><g id="node_expander47" style="cursor: pointer;" display="none"><path id="kity_path_484" fill="white" stroke="gray" d="M208.50000835955143,536.5000023394823A6,6,0,1,1,196.50000835955143,536.5000023394823A6,6,0,1,1,208.50000835955143,536.5000023394823"></path><path id="kity_path_485" fill="none" stroke="gray"></path></g><path id="node_outline48" fill="none" stroke="none" d="M158.50000719726086,525.5000023394823h33a5,5,0,0,1,5,5v12a5,5,0,0,1,-5,5h-33a5,5,0,0,1,-5,-5v-12a5,5,0,0,1,5,-5z" stroke-width="3"></path><g id="node_text48" fill="black"><text id="kity_text_249" text-rendering="inherit" font-size="12" dy=".8em" y="528.7000024129948" x="163.50000719726086">Vue</text></g></g><g id="kity_g_12" display="none"><path id="kity_path_13" fill="none" stroke="rgb(66, 94, 112)" d="M476.5000170916319,890.5000134855509h170a5,5,0,0,1,5,5v30a5,5,0,0,1,-5,5h-170a5,5,0,0,1,-5,-5v-30a5,5,0,0,1,5,-5z" stroke-width="5"></path></g><g id="minder_node36"><g id="node_expander34" style="cursor: pointer;" display="none"><path id="kity_path_445" fill="white" stroke="gray" d="M940.5000301748514,1380.5000274926424A6,6,0,1,1,928.5000301748514,1380.5000274926424A6,6,0,1,1,940.5000301748514,1380.5000274926424"></path><path id="kity_path_446" fill="none" stroke="gray"></path></g><path id="node_outline35" fill="none" stroke="none" d="M945.5000306516886,1369.5000274926424h47a5,5,0,0,1,5,5v12a5,5,0,0,1,-5,5h-47a5,5,0,0,1,-5,-5v-12a5,5,0,0,1,5,-5z" stroke-width="3"></path><g id="node_text35" fill="black"><text id="kity_text_223" text-rendering="inherit" font-size="12" dy=".8em" y="1372.7000275661549" x="950.5000306516886">HTTPS</text></g></g><g id="minder_node37"><g id="node_expander35" style="cursor: pointer;" display="none"><path id="kity_path_448" fill="white" stroke="gray" d="M940.5000301748514,1432.5000290423632A6,6,0,1,1,928.5000301748514,1432.5000290423632A6,6,0,1,1,940.5000301748514,1432.5000290423632"></path><path id="kity_path_449" fill="none" stroke="gray"></path></g><path id="node_outline36" fill="none" stroke="none" d="M945.5000306516886,1421.5000290423632h143a5,5,0,0,1,5,5v12a5,5,0,0,1,-5,5h-143a5,5,0,0,1,-5,-5v-12a5,5,0,0,1,5,-5z" stroke-width="3"></path><g id="node_text36" fill="black"><text id="kity_text_225" text-rendering="inherit" font-size="12" dy=".8em" y="1424.7000291158756" x="950.5000306516886">Content Security Policy</text></g></g><g id="minder_node38"><g id="node_expander36" style="cursor: pointer;" display="none"><path id="kity_path_451" fill="white" stroke="gray" d="M940.5000301748514,1484.500030592084A6,6,0,1,1,928.5000301748514,1484.500030592084A6,6,0,1,1,940.5000301748514,1484.500030592084"></path><path id="kity_path_452" fill="none" stroke="gray"></path></g><path id="node_outline37" fill="none" stroke="none" d="M945.5000306516886,1473.500030592084h43a5,5,0,0,1,5,5v12a5,5,0,0,1,-5,5h-43a5,5,0,0,1,-5,-5v-12a5,5,0,0,1,5,-5z" stroke-width="3"></path><g id="node_text37" fill="black"><text id="kity_text_227" text-rendering="inherit" font-size="12" dy=".8em" y="1476.7000306655964" x="950.5000306516886">CORS</text></g></g><g id="minder_node40"><g id="node_expander38" style="cursor: pointer;" display="none"><path id="kity_path_457" fill="white" stroke="gray" d="M1009.5000322312117,1546.500032439828A6,6,0,1,1,997.5000322312117,1546.500032439828A6,6,0,1,1,1009.5000322312117,1546.500032439828"></path><path id="kity_path_458" fill="none" stroke="gray"></path></g><path id="node_outline39" fill="none" stroke="none" d="M1014.5000327080488,1535.500032439828h27a5,5,0,0,1,5,5v12a5,5,0,0,1,-5,5h-27a5,5,0,0,1,-5,-5v-12a5,5,0,0,1,5,-5z" stroke-width="3"></path><g id="node_text39" fill="black"><text id="kity_text_231" text-rendering="inherit" font-size="12" dy=".8em" y="1538.7000325133404" x="1019.5000327080488">Git</text></g></g><g id="minder_node41"><g id="node_expander39" style="cursor: pointer;" display="none"><path id="kity_path_460" fill="white" stroke="gray" d="M1009.5000322312117,1598.5000339895487A6,6,0,1,1,997.5000322312117,1598.5000339895487A6,6,0,1,1,1009.5000322312117,1598.5000339895487"></path><path id="kity_path_461" fill="none" stroke="gray"></path></g><path id="node_outline40" fill="none" stroke="none" d="M1014.5000327080488,1587.5000339895487h35a5,5,0,0,1,5,5v12a5,5,0,0,1,-5,5h-35a5,5,0,0,1,-5,-5v-12a5,5,0,0,1,5,-5z" stroke-width="3"></path><g id="node_text40" fill="black"><text id="kity_text_233" text-rendering="inherit" font-size="12" dy=".8em" y="1590.7000340630611" x="1019.5000327080488">SVN</text></g></g><g id="minder_node43"><g id="node_expander41" style="cursor: pointer;" display="none"><path id="kity_path_466" fill="white" stroke="gray" d="M966.5000309497118,1660.5000358372927A6,6,0,1,1,954.5000309497118,1660.5000358372927A6,6,0,1,1,966.5000309497118,1660.5000358372927"></path><path id="kity_path_467" fill="none" stroke="gray"></path></g><path id="node_outline42" fill="none" stroke="none" d="M971.500031426549,1649.5000358372927h65a5,5,0,0,1,5,5v12a5,5,0,0,1,-5,5h-65a5,5,0,0,1,-5,-5v-12a5,5,0,0,1,5,-5z" stroke-width="3"></path><g id="node_text42" fill="black"><text id="kity_text_237" text-rendering="inherit" font-size="12" dy=".8em" y="1652.7000359108051" x="976.500031426549">Webpack</text></g></g><g id="minder_node44"><g id="node_expander42" style="cursor: pointer;" display="none"><path id="kity_path_469" fill="white" stroke="gray" d="M966.5000309497118,1712.5000373870134A6,6,0,1,1,954.5000309497118,1712.5000373870134A6,6,0,1,1,966.5000309497118,1712.5000373870134"></path><path id="kity_path_470" fill="none" stroke="gray"></path></g><path id="node_outline43" fill="none" stroke="none" d="M971.500031426549,1701.5000373870134h47a5,5,0,0,1,5,5v12a5,5,0,0,1,-5,5h-47a5,5,0,0,1,-5,-5v-12a5,5,0,0,1,5,-5z" stroke-width="3"></path><g id="node_text43" fill="black"><text id="kity_text_239" text-rendering="inherit" font-size="12" dy=".8em" y="1704.700037460526" x="976.500031426549">Rollup</text></g></g><g id="minder_node45"><g id="node_expander43" style="cursor: pointer;" display="none"><path id="kity_path_472" fill="white" stroke="gray" d="M966.5000309497118,1764.5000389367342A6,6,0,1,1,954.5000309497118,1764.5000389367342A6,6,0,1,1,966.5000309497118,1764.5000389367342"></path><path id="kity_path_473" fill="none" stroke="gray"></path></g><path id="node_outline44" fill="none" stroke="none" d="M971.500031426549,1753.5000389367342h45a5,5,0,0,1,5,5v12a5,5,0,0,1,-5,5h-45a5,5,0,0,1,-5,-5v-12a5,5,0,0,1,5,-5z" stroke-width="3"></path><g id="node_text44" fill="black"><text id="kity_text_241" text-rendering="inherit" font-size="12" dy=".8em" y="1756.7000390102467" x="976.500031426549">Parcel</text></g></g></g></g></svg>