<svg id="kity_svg_6" xmlns="http://www.w3.org/2000/svg" xmlns:xlink="http://www.w3.org/1999/xlink" version="1.1" width="1286" height="1727" style="background: rgb(251, 251, 251); visibility: visible;" viewBox="0 0 1286 1727"><defs id="kity_defs_7"><linearGradient id="kity_linearGradient_17" x1="0" y1="0" x2="0" y2="1"><stop id="kity_stop_18" offset="0" stop-color="rgb(255, 255, 255)"></stop><stop id="kity_stop_19" offset="1" stop-color="rgb(204, 204, 204)"></stop></linearGradient><marker id="kity_marker_4" orient="auto" refX="6" refY="0" viewBox="-7 -7 14 14" markerWidth="7" markerHeight="7" markerUnits="userSpaceOnUse"><path id="kity_path_5" fill="rgb(115, 161, 191)" stroke="none" d="M6,0A6,6,0,1,1,-6,0A6,6,0,1,1,6,0"></path></marker><marker id="kity_marker_2" orient="auto" refX="6" refY="0" viewBox="-7 -7 14 14" markerWidth="7" markerHeight="7" markerUnits="userSpaceOnUse"><path id="kity_path_3" fill="rgb(115, 161, 191)" stroke="none" d="M6,0A6,6,0,1,1,-6,0A6,6,0,1,1,6,0"></path></marker></defs><g id="kity_g_8"><g id="minder1" text-rendering="geometricPrecision"><g id="minder_connect_group1"><path id="kity_path_31" fill="none" stroke="rgb(115, 161, 191)" stroke-width="1" d="M628.5000167042017,835.4999861568213A215,702,0,0,0,413.5000167042017,133.49998615682125"></path><path id="kity_path_41" fill="none" stroke="rgb(115, 161, 191)" stroke-width="1" d="M628.5000167042017,835.4999861568213A208,589,0,0,1,836.5000167042017,246.49998615682125"></path><path id="kity_path_59" fill="none" stroke="rgb(115, 161, 191)" stroke-width="1" d="M628.5000167042017,835.4999861568213A208,150,0,0,1,836.5000167042017,685.4999861568213"></path><path id="kity_path_61" fill="none" stroke="rgb(115, 161, 191)" stroke-width="1" d="M904.5000167042017,685.4999861568213C919.5000167042017,685.4999861568213,919.5000167042017,551.4999861568213,934.5000167042017,551.4999861568213L1061.5000167042017,551.4999861568213"></path><path id="kity_path_63" fill="none" stroke="rgb(115, 161, 191)" stroke-width="1" d="M904.5000167042017,685.4999861568213C919.5000167042017,685.4999861568213,919.5000167042017,615.4999861568213,934.5000167042017,615.4999861568213L1252.5000167042017,615.4999861568213"></path><path id="kity_path_65" fill="none" stroke="rgb(115, 161, 191)" stroke-width="1" d="M904.5000167042017,685.4999861568213C919.5000167042017,685.4999861568213,919.5000167042017,679.4999861568213,934.5000167042017,679.4999861568213L1077.5000167042017,679.4999861568213"></path><path id="kity_path_67" fill="none" stroke="rgb(115, 161, 191)" stroke-width="1" d="M904.5000167042017,685.4999861568213C919.5000167042017,685.4999861568213,919.5000167042017,743.4999861568213,934.5000167042017,743.4999861568213L1093.5000167042017,743.4999861568213"></path><path id="kity_path_69" fill="none" stroke="rgb(115, 161, 191)" stroke-width="1" d="M904.5000167042017,685.4999861568213C919.5000167042017,685.4999861568213,919.5000167042017,807.4999861568213,934.5000167042017,807.4999861568213L1057.5000167042017,807.4999861568213"></path><path id="kity_path_71" fill="none" stroke="rgb(115, 161, 191)" stroke-width="1" d="M904.5000167042017,685.4999861568213C919.5000167042017,685.4999861568213,919.5000167042017,859.4999861568213,934.5000167042017,859.4999861568213L989.5000167042017,859.4999861568213"></path><path id="kity_path_73" fill="none" stroke="rgb(115, 161, 191)" stroke-width="1" d="M628.5000167042017,835.4999861568213A208,238,0,0,0,836.5000167042017,1073.4999861568213"></path><path id="kity_path_75" fill="none" stroke="rgb(115, 161, 191)" stroke-width="1" d="M946.5000167042017,1073.4999861568213C961.5000167042017,1073.4999861568213,961.5000167042017,933.4999861568213,976.5000167042017,933.4999861568213L1229.5000167042017,933.4999861568213"></path><path id="kity_path_77" fill="none" stroke="rgb(115, 161, 191)" stroke-width="1" d="M946.5000167042017,1073.4999861568213C961.5000167042017,1073.4999861568213,961.5000167042017,997.4999861568213,976.5000167042017,997.4999861568213L1185.5000167042017,997.4999861568213"></path><path id="kity_path_79" fill="none" stroke="rgb(115, 161, 191)" stroke-width="1" d="M946.5000167042017,1073.4999861568213C961.5000167042017,1073.4999861568213,961.5000167042017,1061.4999861568213,976.5000167042017,1061.4999861568213L1183.5000167042017,1061.4999861568213"></path><path id="kity_path_81" fill="none" stroke="rgb(115, 161, 191)" stroke-width="1" d="M946.5000167042017,1073.4999861568213C961.5000167042017,1073.4999861568213,961.5000167042017,1125.4999861568213,976.5000167042017,1125.4999861568213L1202.5000167042017,1125.4999861568213"></path><path id="kity_path_83" fill="none" stroke="rgb(115, 161, 191)" stroke-width="1" d="M946.5000167042017,1073.4999861568213C961.5000167042017,1073.4999861568213,961.5000167042017,1189.4999861568213,976.5000167042017,1189.4999861568213L1103.5000167042017,1189.4999861568213"></path><path id="kity_path_85" fill="none" stroke="rgb(115, 161, 191)" stroke-width="1" d="M946.5000167042017,1073.4999861568213C961.5000167042017,1073.4999861568213,961.5000167042017,1253.4999861568213,976.5000167042017,1253.4999861568213L1184.5000167042017,1253.4999861568213"></path><path id="kity_path_87" fill="none" stroke="rgb(115, 161, 191)" stroke-width="1" d="M628.5000167042017,835.4999861568213A208,498,0,0,0,836.5000167042017,1333.4999861568213"></path><path id="kity_path_89" fill="none" stroke="rgb(115, 161, 191)" stroke-width="1" d="M998.5000167042017,1333.4999861568213C1013.5000167042017,1333.4999861568213,1013.5000167042017,1327.4999861568213,1028.5000167042017,1327.4999861568213L1152.5000167042017,1327.4999861568213"></path><path id="kity_path_91" fill="none" stroke="rgb(115, 161, 191)" stroke-width="1" d="M998.5000167042017,1333.4999861568213C1013.5000167042017,1333.4999861568213,1013.5000167042017,1379.4999861568213,1028.5000167042017,1379.4999861568213L1084.5000167042017,1379.4999861568213"></path><path id="kity_path_93" fill="none" stroke="rgb(115, 161, 191)" stroke-width="1" d="M628.5000167042017,835.4999861568213A208,662,0,0,0,836.5000167042017,1497.4999861568213"></path><path id="kity_path_101" fill="none" stroke="rgb(115, 161, 191)" stroke-width="1" d="M628.5000167042017,835.4999861568213A208,826,0,0,0,836.5000167042017,1661.4999861568213"></path><path id="kity_path_115" fill="none" stroke="rgb(115, 161, 191)" stroke-width="1" d="M628.5000167042017,835.4999861568213A143,815,0,0,1,485.5000167042017,1650.4999861568213"></path><path id="kity_path_117" fill="none" stroke="rgb(115, 161, 191)" stroke-width="1" d="M628.5000167042017,835.4999861568213A208,550,0,0,0,420.5000167042017,285.49998615682125"></path><path id="kity_path_119" fill="none" stroke="rgb(115, 161, 191)" stroke-width="1" d="M628.5000167042017,835.4999861568213A208,422,0,0,0,420.5000167042017,413.49998615682125"></path><path id="kity_path_121" fill="none" stroke="rgb(115, 161, 191)" stroke-width="1" d="M317.5000167042017,413.49998615682125C302.5000167042017,413.49998615682125,302.5000167042017,363.49998615682125,287.5000167042017,363.49998615682125L210.5000167042017,363.49998615682125"></path><path id="kity_path_123" fill="none" stroke="rgb(115, 161, 191)" stroke-width="1" d="M317.5000167042017,413.49998615682125C302.5000167042017,413.49998615682125,302.5000167042017,427.49998615682125,287.5000167042017,427.49998615682125L152.5000167042017,427.49998615682125"></path><path id="kity_path_125" fill="none" stroke="rgb(115, 161, 191)" stroke-width="1" d="M317.5000167042017,413.49998615682125C302.5000167042017,413.49998615682125,302.5000167042017,491.49998615682125,287.5000167042017,491.49998615682125L166.5000167042017,491.49998615682125"></path><path id="kity_path_127" fill="none" stroke="rgb(115, 161, 191)" stroke-width="1" d="M628.5000167042017,835.4999861568213A208,154,0,0,0,420.5000167042017,681.4999861568213"></path><path id="kity_path_129" fill="none" stroke="rgb(115, 161, 191)" stroke-width="1" d="M281.5000167042017,681.4999861568213C266.5000167042017,681.4999861568213,266.5000167042017,565.4999861568213,251.5000167042017,565.4999861568213L92.5000167042017,565.4999861568213"></path><path id="kity_path_131" fill="none" stroke="rgb(115, 161, 191)" stroke-width="1" d="M281.5000167042017,681.4999861568213C266.5000167042017,681.4999861568213,266.5000167042017,617.4999861568213,251.5000167042017,617.4999861568213L168.5000167042017,617.4999861568213"></path><path id="kity_path_133" fill="none" stroke="rgb(115, 161, 191)" stroke-width="1" d="M281.5000167042017,681.4999861568213C266.5000167042017,681.4999861568213,266.5000167042017,669.4999861568213,251.5000167042017,669.4999861568213L135.5000167042017,669.4999861568213"></path><path id="kity_path_135" fill="none" stroke="rgb(115, 161, 191)" stroke-width="1" d="M281.5000167042017,681.4999861568213C266.5000167042017,681.4999861568213,266.5000167042017,733.4999861568213,251.5000167042017,733.4999861568213L47.5000167042017,733.4999861568213"></path><path id="kity_path_137" fill="none" stroke="rgb(115, 161, 191)" stroke-width="1" d="M281.5000167042017,681.4999861568213C266.5000167042017,681.4999861568213,266.5000167042017,785.4999861568213,251.5000167042017,785.4999861568213L114.5000167042017,785.4999861568213"></path><path id="kity_path_139" fill="none" stroke="rgb(115, 161, 191)" stroke-width="1" d="M281.5000167042017,681.4999861568213C266.5000167042017,681.4999861568213,266.5000167042017,837.4999861568213,251.5000167042017,837.4999861568213L105.5000167042017,837.4999861568213"></path><path id="kity_path_141" fill="none" stroke="rgb(115, 161, 191)" stroke-width="1" d="M628.5000167042017,835.4999861568213A208,56,0,0,1,420.5000167042017,891.4999861568213"></path><path id="kity_path_143" fill="none" stroke="rgb(115, 161, 191)" stroke-width="1" d="M234.5000167042017,891.4999861568213C219.5000167042017,891.4999861568213,219.5000167042017,911.4999861568213,204.5000167042017,911.4999861568213L19.5000167042017,911.4999861568213"></path><path id="kity_path_145" fill="none" stroke="rgb(115, 161, 191)" stroke-width="1" d="M628.5000167042017,835.4999861568213A208,188,0,0,1,420.5000167042017,1023.4999861568213"></path><path id="kity_path_147" fill="none" stroke="rgb(115, 161, 191)" stroke-width="1" d="M341.5000167042017,1023.4999861568213C326.5000167042017,1023.4999861568213,326.5000167042017,973.4999861568213,311.5000167042017,973.4999861568213L231.5000167042017,973.4999861568213"></path><path id="kity_path_157" fill="none" stroke="rgb(115, 161, 191)" stroke-width="1" d="M341.5000167042017,1023.4999861568213C326.5000167042017,1023.4999861568213,326.5000167042017,1037.4999861568213,311.5000167042017,1037.4999861568213L173.5000167042017,1037.4999861568213"></path><path id="kity_path_159" fill="none" stroke="rgb(115, 161, 191)" stroke-width="1" d="M341.5000167042017,1023.4999861568213C326.5000167042017,1023.4999861568213,326.5000167042017,1101.4999861568213,311.5000167042017,1101.4999861568213L159.5000167042017,1101.4999861568213"></path><path id="kity_path_563" fill="none" stroke="rgb(115, 161, 191)" stroke-width="1" d="M628.5000167042017,835.4999861568213A208,372,0,0,1,420.5000167042017,1207.4999861568213"></path><path id="kity_path_571" fill="none" stroke="rgb(115, 161, 191)" stroke-width="1" d="M263.5000167042017,1207.4999861568213C248.5000167042017,1207.4999861568213,248.5000167042017,1175.4999861568213,233.5000167042017,1175.4999861568213L80.5000167042017,1175.4999861568213"></path><path id="kity_path_579" fill="none" stroke="rgb(115, 161, 191)" stroke-width="1" d="M263.5000167042017,1207.4999861568213C248.5000167042017,1207.4999861568213,248.5000167042017,1227.4999861568213,233.5000167042017,1227.4999861568213L166.5000167042017,1227.4999861568213"></path><path id="kity_path_587" fill="none" stroke="rgb(115, 161, 191)" stroke-width="1" d="M263.5000167042017,1207.4999861568213C248.5000167042017,1207.4999861568213,248.5000167042017,1279.4999861568213,233.5000167042017,1279.4999861568213L168.5000167042017,1279.4999861568213"></path><path id="kity_path_629" fill="none" stroke="rgb(115, 161, 191)" stroke-width="1" d="M926.5000167042017,246.49998615682125C941.5000167042017,246.49998615682125,941.5000167042017,93.49998615682125,956.5000167042017,93.49998615682125L1083.5000167042017,93.49998615682125"></path><path id="kity_path_630" fill="none" stroke="rgb(115, 161, 191)" stroke-width="1" d="M926.5000167042017,246.49998615682125C941.5000167042017,246.49998615682125,941.5000167042017,157.49998615682125,956.5000167042017,157.49998615682125L1151.5000167042017,157.49998615682125"></path><path id="kity_path_631" fill="none" stroke="rgb(115, 161, 191)" stroke-width="1" d="M926.5000167042017,246.49998615682125C941.5000167042017,246.49998615682125,941.5000167042017,221.49998615682125,956.5000167042017,221.49998615682125L1182.5000167042017,221.49998615682125"></path><path id="kity_path_632" fill="none" stroke="rgb(115, 161, 191)" stroke-width="1" d="M926.5000167042017,246.49998615682125C941.5000167042017,246.49998615682125,941.5000167042017,285.49998615682125,956.5000167042017,285.49998615682125L1125.5000167042017,285.49998615682125"></path><path id="kity_path_633" fill="none" stroke="rgb(115, 161, 191)" stroke-width="1" d="M926.5000167042017,246.49998615682125C941.5000167042017,246.49998615682125,941.5000167042017,349.49998615682125,956.5000167042017,349.49998615682125L1078.5000167042017,349.49998615682125"></path><path id="kity_path_634" fill="none" stroke="rgb(115, 161, 191)" stroke-width="1" d="M1062.5000167042017,439.49998615682125C1077.5000167042017,439.49998615682125,1077.5000167042017,413.49998615682125,1092.5000167042017,413.49998615682125L1253.5000167042017,413.49998615682125"></path><path id="kity_path_635" fill="none" stroke="rgb(115, 161, 191)" stroke-width="1" d="M1062.5000167042017,439.49998615682125C1077.5000167042017,439.49998615682125,1077.5000167042017,477.49998615682125,1092.5000167042017,477.49998615682125L1265.5000167042017,477.49998615682125"></path><path id="kity_path_636" fill="none" stroke="rgb(115, 161, 191)" stroke-width="1" d="M926.5000167042017,246.49998615682125C941.5000167042017,246.49998615682125,941.5000167042017,439.49998615682125,956.5000167042017,439.49998615682125L1062.5000167042017,439.49998615682125"></path><path id="kity_path_660" fill="none" stroke="rgb(115, 161, 191)" stroke-width="1" d="M1036.5000167042017,1661.4999861568213C1051.5000167042017,1661.4999861568213,1051.5000167042017,1655.4999861568213,1066.5000167042017,1655.4999861568213L1181.5000167042017,1655.4999861568213"></path><path id="kity_path_661" fill="none" stroke="rgb(115, 161, 191)" stroke-width="1" d="M1036.5000167042017,1661.4999861568213C1051.5000167042017,1661.4999861568213,1051.5000167042017,1707.4999861568213,1066.5000167042017,1707.4999861568213L1121.5000167042017,1707.4999861568213"></path><path id="kity_path_665" fill="none" stroke="rgb(115, 161, 191)" stroke-width="1" d="M968.5000167042017,1497.4999861568213C983.5000167042017,1497.4999861568213,983.5000167042017,1453.4999861568213,998.5000167042017,1453.4999861568213L1133.5000167042017,1453.4999861568213"></path><path id="kity_path_666" fill="none" stroke="rgb(115, 161, 191)" stroke-width="1" d="M968.5000167042017,1497.4999861568213C983.5000167042017,1497.4999861568213,983.5000167042017,1517.4999861568213,998.5000167042017,1517.4999861568213L1229.5000167042017,1517.4999861568213"></path><path id="kity_path_667" fill="none" stroke="rgb(115, 161, 191)" stroke-width="1" d="M968.5000167042017,1497.4999861568213C983.5000167042017,1497.4999861568213,983.5000167042017,1581.4999861568213,998.5000167042017,1581.4999861568213L1129.5000167042017,1581.4999861568213"></path><path id="kity_path_675" fill="none" stroke="rgb(115, 161, 191)" stroke-width="1" d="M628.5000167042017,835.4999861568213A208,550,0,0,1,420.5000167042017,1385.4999861568213"></path><path id="kity_path_683" fill="none" stroke="rgb(115, 161, 191)" stroke-width="1" d="M303.5000167042017,1385.4999861568213C288.5000167042017,1385.4999861568213,288.5000167042017,1341.4999861568213,273.5000167042017,1341.4999861568213L211.5000167042017,1341.4999861568213"></path><path id="kity_path_691" fill="none" stroke="rgb(115, 161, 191)" stroke-width="1" d="M303.5000167042017,1385.4999861568213C288.5000167042017,1385.4999861568213,288.5000167042017,1405.4999861568213,273.5000167042017,1405.4999861568213L128.5000167042017,1405.4999861568213"></path><path id="kity_path_699" fill="none" stroke="rgb(115, 161, 191)" stroke-width="1" d="M303.5000167042017,1385.4999861568213C288.5000167042017,1385.4999861568213,288.5000167042017,1457.4999861568213,273.5000167042017,1457.4999861568213L219.5000167042017,1457.4999861568213"></path><path id="kity_path_906" fill="none" stroke="rgb(115, 161, 191)" stroke-width="1" d="M313.5000167042017,133.49998615682125C298.5000167042017,133.49998615682125,298.5000167042017,57.49998615682125,283.5000167042017,57.49998615682125L154.5000167042017,57.49998615682125"></path><path id="kity_path_907" fill="none" stroke="rgb(115, 161, 191)" stroke-width="1" d="M313.5000167042017,133.49998615682125C298.5000167042017,133.49998615682125,298.5000167042017,121.49998615682125,283.5000167042017,121.49998615682125L161.5000167042017,121.49998615682125"></path><path id="kity_path_908" fill="none" stroke="rgb(115, 161, 191)" stroke-width="1" d="M313.5000167042017,133.49998615682125C298.5000167042017,133.49998615682125,298.5000167042017,185.49998615682125,283.5000167042017,185.49998615682125L159.5000167042017,185.49998615682125"></path><path id="kity_path_909" fill="none" stroke="rgb(115, 161, 191)" stroke-width="1" d="M313.5000167042017,133.49998615682125C298.5000167042017,133.49998615682125,298.5000167042017,249.49998615682125,283.5000167042017,249.49998615682125L173.5000167042017,249.49998615682125"></path></g><g id="minder_node1"><path id="kity_path_725" fill="rgba(0, 0, 0, .25)" stroke="none" d="M578.5000167042017,793.4999861568213h174a47,47,0,0,1,47,47v0a47,47,0,0,1,-47,47h-174a47,47,0,0,1,-47,-47v0a47,47,0,0,1,47,-47z" display="none"></path><path id="node_outline1" fill="rgb(115, 161, 191)" stroke="rgb(115, 161, 191)" d="M543.5000167042017,815.4999861568213h170a5,5,0,0,1,5,5v30a5,5,0,0,1,-5,5h-170a5,5,0,0,1,-5,-5v-30a5,5,0,0,1,5,-5z" stroke-width="3"></path><g id="node_text1" fill="white"><text id="kity_text_22" text-rendering="inherit" font-size="16" dy=".8em" y="825.0999859899282" x="562.5000167042017">Front-End Recipe</text></g></g><g id="kity_g_14" display="none"><path id="kity_path_15" fill="rgba(0, 92, 153, 0.5)" stroke="none" d="M838.5000167042017,1484.4999861568213h198v20h-198z"></path><path id="kity_path_16" fill="none" stroke="rgb(0, 76, 128)" d="M838.5000167042017,1504.4999861568213L1036.5000167042017,1504.4999861568213" stroke-width="1"></path></g><g id="minder_node2" opacity="1"><path id="kity_path_710" fill="rgba(0, 0, 0, .25)" stroke="none" d="M322.50000987946987,124.49996523559093h97a5,5,0,0,1,5,5v18a5,5,0,0,1,-5,5h-97a5,5,0,0,1,-5,-5v-18a5,5,0,0,1,5,-5z" display="none"></path><g id="node_expander5" style="cursor: pointer;"><path id="kity_path_368" fill="white" stroke="gray" d="M312.50000907480717,133.49996523559093A6,6,0,1,1,300.50000907480717,133.49996523559093A6,6,0,1,1,312.50000907480717,133.49996523559093"></path><path id="kity_path_369" fill="none" stroke="gray" d="M302.00000907480717,133.49996523559093L311.00000907480717,133.49996523559093"></path></g><path id="node_outline6" fill="rgb(238, 243, 246)" stroke="rgb(115, 161, 191)" d="M316.50000987946987,120.49996523559093h92a3,3,0,0,1,3,3v20a3,3,0,0,1,-3,3h-92a3,3,0,0,1,-3,-3v-20a3,3,0,0,1,3,-3z" stroke-width="1"></path><g id="node_text6" fill="black"><text id="kity_text_169" text-rendering="inherit" font-size="14" dy=".8em" y="124.39996526837348" x="333.50000987946987">Network</text></g></g><g id="minder_node7" opacity="1"><path id="kity_path_711" fill="rgba(0, 0, 0, .25)" stroke="none" d="M847.5000255256891,237.49996860325336h85a5,5,0,0,1,5,5v18a5,5,0,0,1,-5,5h-85a5,5,0,0,1,-5,-5v-18a5,5,0,0,1,5,-5z" display="none"></path><g id="node_expander14" style="cursor: pointer;"><path id="kity_path_395" fill="white" stroke="gray" d="M837.5000247210264,246.49996860325336A6,6,0,1,1,825.5000247210264,246.49996860325336A6,6,0,1,1,837.5000247210264,246.49996860325336"></path><path id="kity_path_396" fill="none" stroke="gray" d="M827.0000247210264,246.49996860325336L836.0000247210264,246.49996860325336"></path></g><path id="node_outline15" fill="rgb(238, 243, 246)" stroke="rgb(115, 161, 191)" d="M841.5000255256891,233.49996860325336h82a3,3,0,0,1,3,3v20a3,3,0,0,1,-3,3h-82a3,3,0,0,1,-3,-3v-20a3,3,0,0,1,3,-3z" stroke-width="1"></path><g id="node_text15" fill="black"><text id="kity_text_187" text-rendering="inherit" font-size="14" dy=".8em" y="237.3999686360359" x="858.5000255256891">HTML5</text></g></g><g id="minder_node16"><path id="kity_path_712" fill="rgba(0, 0, 0, .25)" stroke="none" d="M847.5000255256891,676.4999816864729h59a5,5,0,0,1,5,5v18a5,5,0,0,1,-5,5h-59a5,5,0,0,1,-5,-5v-18a5,5,0,0,1,5,-5z" display="none"></path><g id="node_expander21" style="cursor: pointer;"><path id="kity_path_416" fill="white" stroke="gray" d="M837.5000247210264,685.4999816864729A6,6,0,1,1,825.5000247210264,685.4999816864729A6,6,0,1,1,837.5000247210264,685.4999816864729"></path><path id="kity_path_417" fill="none" stroke="gray" d="M827.0000247210264,685.4999816864729L836.0000247210264,685.4999816864729"></path></g><path id="node_outline22" fill="rgb(238, 243, 246)" stroke="rgb(115, 161, 191)" d="M841.5000255256891,672.4999816864729h60a3,3,0,0,1,3,3v20a3,3,0,0,1,-3,3h-60a3,3,0,0,1,-3,-3v-20a3,3,0,0,1,3,-3z" stroke-width="1"></path><g id="node_text22" fill="black"><text id="kity_text_201" text-rendering="inherit" font-size="14" dy=".8em" y="676.3999817192555" x="858.5000255256891">CSS</text></g></g><g id="minder_node17"><g id="node_expander15" style="cursor: pointer;" display="none"><path id="kity_path_398" fill="white" stroke="gray" d="M944.5000279098749,531.4999770969152A6,6,0,1,1,932.5000279098749,531.4999770969152A6,6,0,1,1,944.5000279098749,531.4999770969152"></path><path id="kity_path_399" fill="none" stroke="gray"></path></g><path id="node_outline16" fill="none" stroke="none" d="M949.5000283867121,514.4999770969152h107a5,5,0,0,1,5,5v24a5,5,0,0,1,-5,5h-107a5,5,0,0,1,-5,-5v-24a5,5,0,0,1,5,-5z" stroke-width="3"></path><g id="node_text16" fill="black"><text id="kity_text_189" text-rendering="inherit" font-size="12" dy=".8em" y="523.6999771704277" x="954.5000283867121">basic</text></g><g id="kity_g_862"><g id="kity_g_863"><path id="kity_path_864" fill="rgb(255, 244, 179)" stroke="none" d="M988.500029399991,518.4999770671129h63v24h-63z"></path><text id="kity_text_865" text-rendering="geometricPrecision" font-size="12" dy="5" x="996.500029399991" fill="rgb(77, 65, 0)" y="530.4999770671129">vantage</text></g></g></g><g id="minder_node18"><g id="node_expander16" style="cursor: pointer;" display="none"><path id="kity_path_401" fill="white" stroke="gray" d="M944.5000279098749,595.4999790042639A6,6,0,1,1,932.5000279098749,595.4999790042639A6,6,0,1,1,944.5000279098749,595.4999790042639"></path><path id="kity_path_402" fill="none" stroke="gray"></path></g><path id="node_outline17" fill="none" stroke="none" d="M949.5000283867121,578.4999790042639h298a5,5,0,0,1,5,5v24a5,5,0,0,1,-5,5h-298a5,5,0,0,1,-5,-5v-24a5,5,0,0,1,5,-5z" stroke-width="3"></path><g id="node_text17" fill="black"><text id="kity_text_191" text-rendering="inherit" font-size="12" dy=".8em" y="587.6999790777763" x="954.5000283867121">Responsive design and Media Queries</text></g><g id="kity_g_858"><g id="kity_g_859"><path id="kity_path_860" fill="rgb(255, 244, 179)" stroke="none" d="M1179.5000350922346,582.4999789744616h63v24h-63z"></path><text id="kity_text_861" text-rendering="geometricPrecision" font-size="12" dy="5" x="1187.5000350922346" fill="rgb(77, 65, 0)" y="594.4999789744616">vantage</text></g></g></g><g id="minder_node19"><g id="node_expander17" style="cursor: pointer;" display="none"><path id="kity_path_404" fill="white" stroke="gray" d="M944.5000279098749,659.4999809116125A6,6,0,1,1,932.5000279098749,659.4999809116125A6,6,0,1,1,944.5000279098749,659.4999809116125"></path><path id="kity_path_405" fill="none" stroke="gray"></path></g><path id="node_outline18" fill="none" stroke="none" d="M949.5000283867121,642.4999809116125h123a5,5,0,0,1,5,5v24a5,5,0,0,1,-5,5h-123a5,5,0,0,1,-5,-5v-24a5,5,0,0,1,5,-5z" stroke-width="3"></path><g id="node_text18" fill="black"><text id="kity_text_193" text-rendering="inherit" font-size="12" dy=".8em" y="651.699980985125" x="954.5000283867121">Layouts</text></g><g id="kity_g_854"><g id="kity_g_855"><path id="kity_path_856" fill="rgb(255, 244, 179)" stroke="none" d="M1004.5000298768282,646.4999808818102h63v24h-63z"></path><text id="kity_text_857" text-rendering="geometricPrecision" font-size="12" dy="5" x="1012.5000298768282" fill="rgb(77, 65, 0)" y="658.4999808818102">vantage</text></g></g></g><g id="minder_node20"><g id="node_expander18" style="cursor: pointer;" display="none"><path id="kity_path_407" fill="white" stroke="gray" d="M944.5000279098749,723.4999828189611A6,6,0,1,1,932.5000279098749,723.4999828189611A6,6,0,1,1,944.5000279098749,723.4999828189611"></path><path id="kity_path_408" fill="none" stroke="gray"></path></g><path id="node_outline19" fill="none" stroke="none" d="M949.5000283867121,706.4999828189611h139a5,5,0,0,1,5,5v24a5,5,0,0,1,-5,5h-139a5,5,0,0,1,-5,-5v-24a5,5,0,0,1,5,-5z" stroke-width="3"></path><g id="node_text19" fill="black"><text id="kity_text_195" text-rendering="inherit" font-size="12" dy=".8em" y="715.6999828924736" x="954.5000283867121">Animation</text></g><g id="kity_g_850"><g id="kity_g_851"><path id="kity_path_852" fill="rgb(255, 244, 179)" stroke="none" d="M1020.5000303536654,710.4999827891588h63v24h-63z"></path><text id="kity_text_853" text-rendering="geometricPrecision" font-size="12" dy="5" x="1028.5000303536654" fill="rgb(77, 65, 0)" y="722.4999827891588">vantage</text></g></g></g><g id="minder_node21"><g id="node_expander19" style="cursor: pointer;" display="none"><path id="kity_path_410" fill="white" stroke="gray" d="M944.5000279098749,787.4999847263098A6,6,0,1,1,932.5000279098749,787.4999847263098A6,6,0,1,1,944.5000279098749,787.4999847263098"></path><path id="kity_path_411" fill="none" stroke="gray"></path></g><path id="node_outline20" fill="none" stroke="none" d="M949.5000283867121,770.4999847263098h103a5,5,0,0,1,5,5v24a5,5,0,0,1,-5,5h-103a5,5,0,0,1,-5,-5v-24a5,5,0,0,1,5,-5z" stroke-width="3"></path><g id="node_text20" fill="black"><text id="kity_text_197" text-rendering="inherit" font-size="12" dy=".8em" y="779.6999847998222" x="954.5000283867121">Scss</text></g><g id="kity_g_846"><g id="kity_g_847"><path id="kity_path_848" fill="rgb(255, 244, 179)" stroke="none" d="M984.5000292807817,774.4999846965075h63v24h-63z"></path><text id="kity_text_849" text-rendering="geometricPrecision" font-size="12" dy="5" x="992.5000292807817" fill="rgb(77, 65, 0)" y="786.4999846965075">vantage</text></g></g></g><g id="minder_node22"><g id="node_expander20" style="cursor: pointer;" display="none"><path id="kity_path_413" fill="white" stroke="gray" d="M944.5000279098749,845.4999864548445A6,6,0,1,1,932.5000279098749,845.4999864548445A6,6,0,1,1,944.5000279098749,845.4999864548445"></path><path id="kity_path_414" fill="none" stroke="gray"></path></g><path id="node_outline21" fill="none" stroke="none" d="M949.5000283867121,834.4999864548445h35a5,5,0,0,1,5,5v12a5,5,0,0,1,-5,5h-35a5,5,0,0,1,-5,-5v-12a5,5,0,0,1,5,-5z" stroke-width="3"></path><g id="node_text21" fill="black"><text id="kity_text_199" text-rendering="inherit" font-size="12" dy=".8em" y="837.6999865283569" x="954.5000283867121">Less</text></g></g><g id="minder_node23"><path id="kity_path_713" fill="rgba(0, 0, 0, .25)" stroke="none" d="M847.5000255256891,1064.499993249774h107a5,5,0,0,1,5,5v18a5,5,0,0,1,-5,5h-107a5,5,0,0,1,-5,-5v-18a5,5,0,0,1,5,-5z" display="none"></path><g id="node_expander28" style="cursor: pointer;"><path id="kity_path_437" fill="white" stroke="gray" d="M837.5000247210264,1073.499993249774A6,6,0,1,1,825.5000247210264,1073.499993249774A6,6,0,1,1,837.5000247210264,1073.499993249774"></path><path id="kity_path_438" fill="none" stroke="gray" d="M827.0000247210264,1073.499993249774L836.0000247210264,1073.499993249774"></path></g><path id="node_outline29" fill="rgb(238, 243, 246)" stroke="rgb(115, 161, 191)" d="M841.5000255256891,1060.499993249774h102a3,3,0,0,1,3,3v20a3,3,0,0,1,-3,3h-102a3,3,0,0,1,-3,-3v-20a3,3,0,0,1,3,-3z" stroke-width="1"></path><g id="node_text29" fill="black"><text id="kity_text_215" text-rendering="inherit" font-size="14" dy=".8em" y="1064.3999932825566" x="858.5000255256891">JavaScript</text></g></g><g id="minder_node24"><g id="node_expander22" style="cursor: pointer;" display="none"><path id="kity_path_419" fill="white" stroke="gray" d="M986.5000291615725,913.4999884814024A6,6,0,1,1,974.5000291615725,913.4999884814024A6,6,0,1,1,986.5000291615725,913.4999884814024"></path><path id="kity_path_420" fill="none" stroke="gray"></path></g><path id="node_outline23" fill="none" stroke="none" d="M991.5000296384096,896.4999884814024h233a5,5,0,0,1,5,5v24a5,5,0,0,1,-5,5h-233a5,5,0,0,1,-5,-5v-24a5,5,0,0,1,5,-5z" stroke-width="3"></path><g id="node_text23" fill="black"><text id="kity_text_203" text-rendering="inherit" font-size="12" dy=".8em" y="905.6999885549149" x="996.5000296384096">Syntax and Basic Construct</text></g><g id="kity_g_838"><g id="kity_g_839"><path id="kity_path_840" fill="rgb(255, 244, 179)" stroke="none" d="M1156.5000344067812,900.4999884516001h63v24h-63z"></path><text id="kity_text_841" text-rendering="geometricPrecision" font-size="12" dy="5" x="1164.5000344067812" fill="rgb(77, 65, 0)" y="912.4999884516001">vantage</text></g></g></g><g id="minder_node25"><g id="node_expander23" style="cursor: pointer;" display="none"><path id="kity_path_422" fill="white" stroke="gray" d="M986.5000291615725,977.499990388751A6,6,0,1,1,974.5000291615725,977.499990388751A6,6,0,1,1,986.5000291615725,977.499990388751"></path><path id="kity_path_423" fill="none" stroke="gray"></path></g><path id="node_outline24" fill="none" stroke="none" d="M991.5000296384096,960.499990388751h189a5,5,0,0,1,5,5v24a5,5,0,0,1,-5,5h-189a5,5,0,0,1,-5,-5v-24a5,5,0,0,1,5,-5z" stroke-width="3"></path><g id="node_text24" fill="black"><text id="kity_text_205" text-rendering="inherit" font-size="12" dy=".8em" y="969.6999904622635" x="996.5000296384096">DOM Manipulation</text></g><g id="kity_g_834"><g id="kity_g_835"><path id="kity_path_836" fill="rgb(255, 244, 179)" stroke="none" d="M1112.500033095479,964.4999903589487h63v24h-63z"></path><text id="kity_text_837" text-rendering="geometricPrecision" font-size="12" dy="5" x="1120.500033095479" fill="rgb(77, 65, 0)" y="976.4999903589487">vantage</text></g></g></g><g id="minder_node26"><g id="node_expander24" style="cursor: pointer;" display="none"><path id="kity_path_425" fill="white" stroke="gray" d="M986.5000291615725,1041.4999922960997A6,6,0,1,1,974.5000291615725,1041.4999922960997A6,6,0,1,1,986.5000291615725,1041.4999922960997"></path><path id="kity_path_426" fill="none" stroke="gray"></path></g><path id="node_outline25" fill="none" stroke="none" d="M991.5000296384096,1024.4999922960997h187a5,5,0,0,1,5,5v24a5,5,0,0,1,-5,5h-187a5,5,0,0,1,-5,-5v-24a5,5,0,0,1,5,-5z" stroke-width="3"></path><g id="node_text25" fill="black"><text id="kity_text_207" text-rendering="inherit" font-size="12" dy=".8em" y="1033.6999923696121" x="996.5000296384096">Regular Expression</text></g><g id="kity_g_830"><g id="kity_g_831"><path id="kity_path_832" fill="rgb(255, 244, 179)" stroke="none" d="M1110.5000330358744,1028.4999922662973h63v24h-63z"></path><text id="kity_text_833" text-rendering="geometricPrecision" font-size="12" dy="5" x="1118.5000330358744" fill="rgb(77, 65, 0)" y="1040.4999922662973">vantage</text></g></g></g><g id="minder_node27"><g id="node_expander25" style="cursor: pointer;" display="none"><path id="kity_path_428" fill="white" stroke="gray" d="M986.5000291615725,1105.4999942034483A6,6,0,1,1,974.5000291615725,1105.4999942034483A6,6,0,1,1,986.5000291615725,1105.4999942034483"></path><path id="kity_path_429" fill="none" stroke="gray"></path></g><path id="node_outline26" fill="none" stroke="none" d="M991.5000296384096,1088.4999942034483h206a5,5,0,0,1,5,5v24a5,5,0,0,1,-5,5h-206a5,5,0,0,1,-5,-5v-24a5,5,0,0,1,5,-5z" stroke-width="3"></path><g id="node_text26" fill="black"><text id="kity_text_209" text-rendering="inherit" font-size="12" dy=".8em" y="1097.6999942769608" x="996.5000296384096">Fetch API / AJAX(XHR)</text></g><g id="kity_g_826"><g id="kity_g_827"><path id="kity_path_828" fill="rgb(255, 244, 179)" stroke="none" d="M1129.5000336021185,1092.499994173646h63v24h-63z"></path><text id="kity_text_829" text-rendering="geometricPrecision" font-size="12" dy="5" x="1137.5000336021185" fill="rgb(77, 65, 0)" y="1104.499994173646">vantage</text></g></g></g><g id="minder_node28"><g id="node_expander26" style="cursor: pointer;" display="none"><path id="kity_path_431" fill="white" stroke="gray" d="M986.5000291615725,1169.499996110797A6,6,0,1,1,974.5000291615725,1169.499996110797A6,6,0,1,1,986.5000291615725,1169.499996110797"></path><path id="kity_path_432" fill="none" stroke="gray"></path></g><path id="node_outline27" fill="none" stroke="none" d="M991.5000296384096,1152.499996110797h107a5,5,0,0,1,5,5v24a5,5,0,0,1,-5,5h-107a5,5,0,0,1,-5,-5v-24a5,5,0,0,1,5,-5z" stroke-width="3"></path><g id="node_text27" fill="black"><text id="kity_text_211" text-rendering="inherit" font-size="12" dy=".8em" y="1161.6999961843094" x="996.5000296384096">ES6+</text></g><g id="kity_g_842"><g id="kity_g_843"><path id="kity_path_844" fill="rgb(255, 244, 179)" stroke="none" d="M1030.5000306516886,1156.4999960809946h63v24h-63z"></path><text id="kity_text_845" text-rendering="geometricPrecision" font-size="12" dy="5" x="1038.5000306516886" fill="rgb(77, 65, 0)" y="1168.4999960809946">vantage</text></g></g></g><g id="minder_node29"><g id="node_expander27" style="cursor: pointer;" display="none"><path id="kity_path_434" fill="white" stroke="gray" d="M986.5000291615725,1233.4999980181456A6,6,0,1,1,974.5000291615725,1233.4999980181456A6,6,0,1,1,986.5000291615725,1233.4999980181456"></path><path id="kity_path_435" fill="none" stroke="gray"></path></g><path id="node_outline28" fill="none" stroke="none" d="M991.5000296384096,1216.4999980181456h188a5,5,0,0,1,5,5v24a5,5,0,0,1,-5,5h-188a5,5,0,0,1,-5,-5v-24a5,5,0,0,1,5,-5z" stroke-width="3"></path><g id="node_text28" fill="black"><text id="kity_text_213" text-rendering="inherit" font-size="12" dy=".8em" y="1225.699998091658" x="996.5000296384096">modular JavaScript</text></g><g id="kity_g_822"><g id="kity_g_823"><path id="kity_path_824" fill="rgb(255, 244, 179)" stroke="none" d="M1111.5000330656767,1220.4999979883432h63v24h-63z"></path><text id="kity_text_825" text-rendering="geometricPrecision" font-size="12" dy="5" x="1119.5000330656767" fill="rgb(77, 65, 0)" y="1232.4999979883432">vantage</text></g></g></g><g id="minder_node30"><path id="kity_path_714" fill="rgba(0, 0, 0, .25)" stroke="none" d="M847.5000255256891,1324.5000009983778h168a5,5,0,0,1,5,5v18a5,5,0,0,1,-5,5h-168a5,5,0,0,1,-5,-5v-18a5,5,0,0,1,5,-5z" display="none"></path><g id="node_expander31" style="cursor: pointer;"><path id="kity_path_446" fill="white" stroke="gray" d="M837.5000247210264,1333.5000009983778A6,6,0,1,1,825.5000247210264,1333.5000009983778A6,6,0,1,1,837.5000247210264,1333.5000009983778"></path><path id="kity_path_447" fill="none" stroke="gray" d="M827.0000247210264,1333.5000009983778L836.0000247210264,1333.5000009983778"></path></g><path id="node_outline32" fill="rgb(238, 243, 246)" stroke="rgb(115, 161, 191)" d="M841.5000255256891,1320.5000009983778h154a3,3,0,0,1,3,3v20a3,3,0,0,1,-3,3h-154a3,3,0,0,1,-3,-3v-20a3,3,0,0,1,3,-3z" stroke-width="1"></path><g id="node_text32" fill="black"><text id="kity_text_221" text-rendering="inherit" font-size="14" dy=".8em" y="1324.4000010311604" x="858.5000255256891">Package Manager</text></g></g><g id="minder_node31"><g id="node_expander29" style="cursor: pointer;" display="none"><path id="kity_path_440" fill="white" stroke="gray" d="M1038.5000307112932,1307.5000002235174A6,6,0,1,1,1026.5000307112932,1307.5000002235174A6,6,0,1,1,1038.5000307112932,1307.5000002235174"></path><path id="kity_path_441" fill="none" stroke="gray"></path></g><path id="node_outline30" fill="none" stroke="none" d="M1043.5000311881304,1290.5000002235174h104a5,5,0,0,1,5,5v24a5,5,0,0,1,-5,5h-104a5,5,0,0,1,-5,-5v-24a5,5,0,0,1,5,-5z" stroke-width="3"></path><g id="node_text30" fill="black"><text id="kity_text_217" text-rendering="inherit" font-size="12" dy=".8em" y="1299.7000002970299" x="1048.5000311881304">npm</text></g><g id="kity_g_818"><g id="kity_g_819"><path id="kity_path_820" fill="rgb(255, 244, 179)" stroke="none" d="M1079.5000321120024,1294.500000193715h63v24h-63z"></path><text id="kity_text_821" text-rendering="geometricPrecision" font-size="12" dy="5" x="1087.5000321120024" fill="rgb(77, 65, 0)" y="1306.500000193715">vantage</text></g></g></g><g id="minder_node32"><g id="node_expander30" style="cursor: pointer;" display="none"><path id="kity_path_443" fill="white" stroke="gray" d="M1038.5000307112932,1365.5000019520521A6,6,0,1,1,1026.5000307112932,1365.5000019520521A6,6,0,1,1,1038.5000307112932,1365.5000019520521"></path><path id="kity_path_444" fill="none" stroke="gray"></path></g><path id="node_outline31" fill="none" stroke="none" d="M1043.5000311881304,1354.5000019520521h36a5,5,0,0,1,5,5v12a5,5,0,0,1,-5,5h-36a5,5,0,0,1,-5,-5v-12a5,5,0,0,1,5,-5z" stroke-width="3"></path><g id="node_text31" fill="black"><text id="kity_text_219" text-rendering="inherit" font-size="12" dy=".8em" y="1357.7000020255646" x="1048.5000311881304">yarn</text></g></g><g id="minder_node33" opacity="1"><path id="kity_path_715" fill="rgba(0, 0, 0, .25)" stroke="none" d="M847.5000255256891,1488.5000058859587h133a5,5,0,0,1,5,5v18a5,5,0,0,1,-5,5h-133a5,5,0,0,1,-5,-5v-18a5,5,0,0,1,5,-5z" display="none"></path><g id="node_expander35" style="cursor: pointer;"><path id="kity_path_458" fill="white" stroke="gray" d="M837.5000247210264,1497.5000058859587A6,6,0,1,1,825.5000247210264,1497.5000058859587A6,6,0,1,1,837.5000247210264,1497.5000058859587"></path><path id="kity_path_459" fill="none" stroke="gray" d="M827.0000247210264,1497.5000058859587L836.0000247210264,1497.5000058859587"></path></g><path id="node_outline36" fill="rgb(238, 243, 246)" stroke="rgb(115, 161, 191)" d="M841.5000255256891,1484.5000058859587h124a3,3,0,0,1,3,3v20a3,3,0,0,1,-3,3h-124a3,3,0,0,1,-3,-3v-20a3,3,0,0,1,3,-3z" stroke-width="1"></path><g id="node_text36" fill="black"><text id="kity_text_229" text-rendering="inherit" font-size="14" dy=".8em" y="1488.4000059187413" x="858.5000255256891">Web Security</text></g></g><g id="minder_node37" opacity="1"><path id="kity_path_716" fill="rgba(0, 0, 0, .25)" stroke="none" d="M847.5000255256891,1652.5000107735395h211a5,5,0,0,1,5,5v18a5,5,0,0,1,-5,5h-211a5,5,0,0,1,-5,-5v-18a5,5,0,0,1,5,-5z" display="none"></path><g id="node_expander38" style="cursor: pointer;"><path id="kity_path_467" fill="white" stroke="gray" d="M837.5000247210264,1661.5000107735395A6,6,0,1,1,825.5000247210264,1661.5000107735395A6,6,0,1,1,837.5000247210264,1661.5000107735395"></path><path id="kity_path_468" fill="none" stroke="gray" d="M827.0000247210264,1661.5000107735395L836.0000247210264,1661.5000107735395"></path></g><path id="node_outline39" fill="rgb(238, 243, 246)" stroke="rgb(115, 161, 191)" d="M841.5000255256891,1648.5000107735395h192a3,3,0,0,1,3,3v20a3,3,0,0,1,-3,3h-192a3,3,0,0,1,-3,-3v-20a3,3,0,0,1,3,-3z" stroke-width="1"></path><g id="node_text39" fill="black"><text id="kity_text_235" text-rendering="inherit" font-size="14" dy=".8em" y="1652.4000108063221" x="858.5000255256891">Version Control System</text></g></g><g id="minder_node44" opacity="1"><path id="kity_path_717" fill="rgba(0, 0, 0, .25)" stroke="none" d="M313.50000961124897,1641.500010445714h111a5,5,0,0,1,5,5v18a5,5,0,0,1,-5,5h-111a5,5,0,0,1,-5,-5v-18a5,5,0,0,1,5,-5z" display="none"></path><g id="node_expander43" style="cursor: pointer;" display="none"><path id="kity_path_482" fill="white" stroke="gray" d="M303.50000880658627,1650.500010445714A6,6,0,1,1,291.50000880658627,1650.500010445714A6,6,0,1,1,303.50000880658627,1650.500010445714"></path><path id="kity_path_483" fill="none" stroke="gray"></path></g><path id="node_outline44" fill="rgb(238, 243, 246)" stroke="rgb(115, 161, 191)" d="M307.50000961124897,1632.500010445714h173a3,3,0,0,1,3,3v30a3,3,0,0,1,-3,3h-173a3,3,0,0,1,-3,-3v-30a3,3,0,0,1,3,-3z" stroke-width="1"></path><g id="node_text44" fill="black"><text id="kity_text_245" text-rendering="inherit" font-size="14" dy=".8em" y="1641.4000104784966" x="324.50000961124897">TypeScript</text></g><g id="kity_g_798"><g id="kity_g_799"><path id="kity_path_800" fill="rgb(255, 244, 179)" stroke="none" d="M400.50001187622547,1637.5000104159117h63v24h-63z"></path><text id="kity_text_801" text-rendering="geometricPrecision" font-size="12" dy="5" x="408.50001187622547" fill="rgb(77, 65, 0)" y="1649.5000104159117">vantage</text></g></g></g><g id="minder_node45"><path id="kity_path_718" fill="rgba(0, 0, 0, .25)" stroke="none" d="M286.50000880658627,276.49996976554394h145a5,5,0,0,1,5,5v18a5,5,0,0,1,-5,5h-145a5,5,0,0,1,-5,-5v-18a5,5,0,0,1,5,-5z" display="none"></path><g id="node_expander44" style="cursor: pointer;" display="none"><path id="kity_path_485" fill="white" stroke="gray" d="M431.50001262128353,285.49996976554394A6,6,0,1,1,419.50001262128353,285.49996976554394A6,6,0,1,1,431.50001262128353,285.49996976554394"></path><path id="kity_path_486" fill="none" stroke="gray"></path></g><path id="node_outline45" fill="rgb(238, 243, 246)" stroke="rgb(115, 161, 191)" d="M280.50000880658627,272.49996976554394h135a3,3,0,0,1,3,3v20a3,3,0,0,1,-3,3h-135a3,3,0,0,1,-3,-3v-20a3,3,0,0,1,3,-3z" stroke-width="1"></path><g id="node_text45" fill="black"><text id="kity_text_247" text-rendering="inherit" font-size="14" dy=".8em" y="276.3999697983265" x="297.50000880658627">Web Assembly</text></g></g><g id="minder_node46"><path id="kity_path_719" fill="rgba(0, 0, 0, .25)" stroke="none" d="M326.50000999867916,404.4999735802412h98a5,5,0,0,1,5,5v18a5,5,0,0,1,-5,5h-98a5,5,0,0,1,-5,-5v-18a5,5,0,0,1,5,-5z" display="none"></path><g id="node_expander48" style="cursor: pointer;"><path id="kity_path_497" fill="white" stroke="gray" d="M431.50001262128353,413.4999735802412A6,6,0,1,1,419.50001262128353,413.4999735802412A6,6,0,1,1,431.50001262128353,413.4999735802412"></path><path id="kity_path_498" fill="none" stroke="gray" d="M421.00001262128353,413.4999735802412L430.00001262128353,413.4999735802412"></path></g><path id="node_outline49" fill="rgb(238, 243, 246)" stroke="rgb(115, 161, 191)" d="M320.50000999867916,400.4999735802412h95a3,3,0,0,1,3,3v20a3,3,0,0,1,-3,3h-95a3,3,0,0,1,-3,-3v-20a3,3,0,0,1,3,-3z" stroke-width="1"></path><g id="node_text49" fill="black"><text id="kity_text_255" text-rendering="inherit" font-size="14" dy=".8em" y="404.39997361302375" x="337.50000999867916">Unit Test</text></g></g><g id="minder_node47"><g id="node_expander45" style="cursor: pointer;" display="none"><path id="kity_path_488" fill="white" stroke="gray" d="M289.50000838935375,349.49997167289257A6,6,0,1,1,277.50000838935375,349.49997167289257A6,6,0,1,1,289.50000838935375,349.49997167289257"></path><path id="kity_path_489" fill="none" stroke="gray"></path></g><path id="node_outline46" fill="none" stroke="none" d="M215.50000651180744,338.49997167289257h57a5,5,0,0,1,5,5v12a5,5,0,0,1,-5,5h-57a5,5,0,0,1,-5,-5v-12a5,5,0,0,1,5,-5z" stroke-width="3"></path><g id="node_text46" fill="black"><text id="kity_text_249" text-rendering="inherit" font-size="12" dy=".8em" y="341.69997174640497" x="220.50000651180744">Jasmine</text></g></g><g id="minder_node48"><g id="node_expander46" style="cursor: pointer;" display="none"><path id="kity_path_491" fill="white" stroke="gray" d="M289.50000838935375,407.49997340142727A6,6,0,1,1,277.50000838935375,407.49997340142727A6,6,0,1,1,289.50000838935375,407.49997340142727"></path><path id="kity_path_492" fill="none" stroke="gray"></path></g><path id="node_outline47" fill="none" stroke="none" d="M157.50000478327274,390.49997340142727h115a5,5,0,0,1,5,5v24a5,5,0,0,1,-5,5h-115a5,5,0,0,1,-5,-5v-24a5,5,0,0,1,5,-5z" stroke-width="3"></path><g id="node_text47" fill="black"><text id="kity_text_251" text-rendering="inherit" font-size="12" dy=".8em" y="399.69997347493967" x="162.50000478327274">Karma</text></g><g id="kity_g_766"><g id="kity_g_767"><path id="kity_path_768" fill="rgb(255, 244, 179)" stroke="none" d="M204.50000603497028,394.49997337162495h63v24h-63z"></path><text id="kity_text_769" text-rendering="geometricPrecision" font-size="12" dy="5" x="212.50000603497028" fill="rgb(77, 65, 0)" y="406.49997337162495">vantage</text></g></g></g><g id="minder_node49"><g id="node_expander47" style="cursor: pointer;" display="none"><path id="kity_path_494" fill="white" stroke="gray" d="M289.50000838935375,471.4999753087759A6,6,0,1,1,277.50000838935375,471.4999753087759A6,6,0,1,1,289.50000838935375,471.4999753087759"></path><path id="kity_path_495" fill="none" stroke="gray"></path></g><path id="node_outline48" fill="none" stroke="none" d="M171.50000520050526,454.4999753087759h101a5,5,0,0,1,5,5v24a5,5,0,0,1,-5,5h-101a5,5,0,0,1,-5,-5v-24a5,5,0,0,1,5,-5z" stroke-width="3"></path><g id="node_text48" fill="black"><text id="kity_text_253" text-rendering="inherit" font-size="12" dy=".8em" y="463.6999753822883" x="176.50000520050526">Jest</text></g><g id="kity_g_762"><g id="kity_g_763"><path id="kity_path_764" fill="rgb(255, 244, 179)" stroke="none" d="M204.50000603497028,458.4999752789736h63v24h-63z"></path><text id="kity_text_765" text-rendering="geometricPrecision" font-size="12" dy="5" x="212.50000603497028" fill="rgb(77, 65, 0)" y="470.4999752789736">vantage</text></g></g></g><g id="minder_node50"><path id="kity_path_720" fill="rgba(0, 0, 0, .25)" stroke="none" d="M290.50000892579556,672.4999815672636h141a5,5,0,0,1,5,5v18a5,5,0,0,1,-5,5h-141a5,5,0,0,1,-5,-5v-18a5,5,0,0,1,5,-5z" display="none"></path><g id="node_expander55" style="cursor: pointer;"><path id="kity_path_518" fill="white" stroke="gray" d="M431.50001262128353,681.4999815672636A6,6,0,1,1,419.50001262128353,681.4999815672636A6,6,0,1,1,431.50001262128353,681.4999815672636"></path><path id="kity_path_519" fill="none" stroke="gray" d="M421.00001262128353,681.4999815672636L430.00001262128353,681.4999815672636"></path></g><path id="node_outline56" fill="rgb(238, 243, 246)" stroke="rgb(115, 161, 191)" d="M284.50000892579556,668.4999815672636h131a3,3,0,0,1,3,3v20a3,3,0,0,1,-3,3h-131a3,3,0,0,1,-3,-3v-20a3,3,0,0,1,3,-3z" stroke-width="1"></path><g id="node_text56" fill="black"><text id="kity_text_269" text-rendering="inherit" font-size="14" dy=".8em" y="672.3999816000462" x="301.50000892579556">Data Structure</text></g></g><g id="minder_node51"><g id="node_expander49" style="cursor: pointer;" display="none"><path id="kity_path_500" fill="white" stroke="gray" d="M253.50000731647015,545.4999775141478A6,6,0,1,1,241.50000731647015,545.4999775141478A6,6,0,1,1,253.50000731647015,545.4999775141478"></path><path id="kity_path_501" fill="none" stroke="gray"></path></g><path id="node_outline50" fill="none" stroke="none" d="M97.5000029951334,528.4999775141478h139a5,5,0,0,1,5,5v24a5,5,0,0,1,-5,5h-139a5,5,0,0,1,-5,-5v-24a5,5,0,0,1,5,-5z" stroke-width="3"></path><g id="node_text50" fill="black"><text id="kity_text_257" text-rendering="inherit" font-size="12" dy=".8em" y="537.6999775876602" x="102.5000029951334">Quick Sort</text></g><g id="kity_g_770"><g id="kity_g_771"><path id="kity_path_772" fill="rgb(255, 244, 179)" stroke="none" d="M168.50000496208668,532.4999774843454h63v24h-63z"></path><text id="kity_text_773" text-rendering="geometricPrecision" font-size="12" dy="5" x="176.50000496208668" fill="rgb(77, 65, 0)" y="544.4999774843454">vantage</text></g></g></g><g id="minder_node52"><g id="node_expander50" style="cursor: pointer;" display="none"><path id="kity_path_503" fill="white" stroke="gray" d="M253.50000731647015,603.4999792426825A6,6,0,1,1,241.50000731647015,603.4999792426825A6,6,0,1,1,253.50000731647015,603.4999792426825"></path><path id="kity_path_504" fill="none" stroke="gray"></path></g><path id="node_outline51" fill="none" stroke="none" d="M173.5000052601099,592.4999792426825h63a5,5,0,0,1,5,5v12a5,5,0,0,1,-5,5h-63a5,5,0,0,1,-5,-5v-12a5,5,0,0,1,5,-5z" stroke-width="3"></path><g id="node_text51" fill="black"><text id="kity_text_259" text-rendering="inherit" font-size="12" dy=".8em" y="595.6999793161949" x="178.5000052601099">AVL Tree</text></g></g><g id="minder_node53"><g id="node_expander51" style="cursor: pointer;" display="none"><path id="kity_path_506" fill="white" stroke="gray" d="M253.50000731647015,655.4999807924032A6,6,0,1,1,241.50000731647015,655.4999807924032A6,6,0,1,1,253.50000731647015,655.4999807924032"></path><path id="kity_path_507" fill="none" stroke="gray"></path></g><path id="node_outline52" fill="none" stroke="none" d="M140.50000427663326,644.4999807924032h96a5,5,0,0,1,5,5v12a5,5,0,0,1,-5,5h-96a5,5,0,0,1,-5,-5v-12a5,5,0,0,1,5,-5z" stroke-width="3"></path><g id="node_text52" fill="black"><text id="kity_text_261" text-rendering="inherit" font-size="12" dy=".8em" y="647.6999808659157" x="145.50000427663326">Red-Black Tree</text></g></g><g id="minder_node54"><g id="node_expander52" style="cursor: pointer;" display="none"><path id="kity_path_509" fill="white" stroke="gray" d="M253.50000731647015,713.4999825209379A6,6,0,1,1,241.50000731647015,713.4999825209379A6,6,0,1,1,253.50000731647015,713.4999825209379"></path><path id="kity_path_510" fill="none" stroke="gray"></path></g><path id="node_outline53" fill="none" stroke="none" d="M52.50000165402889,696.4999825209379h184a5,5,0,0,1,5,5v24a5,5,0,0,1,-5,5h-184a5,5,0,0,1,-5,-5v-24a5,5,0,0,1,5,-5z" stroke-width="3"></path><g id="node_text53" fill="black"><text id="kity_text_263" text-rendering="inherit" font-size="12" dy=".8em" y="705.6999825944504" x="57.50000165402889">Binary Search Tree</text></g><g id="kity_g_774"><g id="kity_g_775"><path id="kity_path_776" fill="rgb(255, 244, 179)" stroke="none" d="M168.50000496208668,700.4999824911356h63v24h-63z"></path><text id="kity_text_777" text-rendering="geometricPrecision" font-size="12" dy="5" x="176.50000496208668" fill="rgb(77, 65, 0)" y="712.4999824911356">vantage</text></g></g></g><g id="minder_node55"><g id="node_expander53" style="cursor: pointer;" display="none"><path id="kity_path_512" fill="white" stroke="gray" d="M253.50000731647015,771.4999842494726A6,6,0,1,1,241.50000731647015,771.4999842494726A6,6,0,1,1,253.50000731647015,771.4999842494726"></path><path id="kity_path_513" fill="none" stroke="gray"></path></g><path id="node_outline54" fill="none" stroke="none" d="M119.50000365078449,760.4999842494726h117a5,5,0,0,1,5,5v12a5,5,0,0,1,-5,5h-117a5,5,0,0,1,-5,-5v-12a5,5,0,0,1,5,-5z" stroke-width="3"></path><g id="node_text54" fill="black"><text id="kity_text_265" text-rendering="inherit" font-size="12" dy=".8em" y="763.6999843229851" x="124.50000365078449">Depth-First Search</text></g></g><g id="minder_node56"><g id="node_expander54" style="cursor: pointer;" display="none"><path id="kity_path_515" fill="white" stroke="gray" d="M253.50000731647015,823.4999857991934A6,6,0,1,1,241.50000731647015,823.4999857991934A6,6,0,1,1,253.50000731647015,823.4999857991934"></path><path id="kity_path_516" fill="none" stroke="gray"></path></g><path id="node_outline55" fill="none" stroke="none" d="M110.50000338256359,812.4999857991934h126a5,5,0,0,1,5,5v12a5,5,0,0,1,-5,5h-126a5,5,0,0,1,-5,-5v-12a5,5,0,0,1,5,-5z" stroke-width="3"></path><g id="node_text55" fill="black"><text id="kity_text_267" text-rendering="inherit" font-size="12" dy=".8em" y="815.6999858727058" x="115.50000338256359">Breadth-First Search</text></g></g><g id="minder_node57"><path id="kity_path_721" fill="rgba(0, 0, 0, .25)" stroke="none" d="M243.5000075250864,882.4999878257513h195a5,5,0,0,1,5,5v18a5,5,0,0,1,-5,5h-195a5,5,0,0,1,-5,-5v-18a5,5,0,0,1,5,-5z" display="none"></path><g id="node_expander57" style="cursor: pointer;"><path id="kity_path_524" fill="white" stroke="gray" d="M431.50001262128353,891.4999878257513A6,6,0,1,1,419.50001262128353,891.4999878257513A6,6,0,1,1,431.50001262128353,891.4999878257513"></path><path id="kity_path_525" fill="none" stroke="gray" d="M421.00001262128353,891.4999878257513L430.00001262128353,891.4999878257513"></path></g><path id="node_outline58" fill="rgb(238, 243, 246)" stroke="rgb(115, 161, 191)" d="M237.5000075250864,878.4999878257513h178a3,3,0,0,1,3,3v20a3,3,0,0,1,-3,3h-178a3,3,0,0,1,-3,-3v-20a3,3,0,0,1,3,-3z" stroke-width="1"></path><g id="node_text58" fill="black"><text id="kity_text_273" text-rendering="inherit" font-size="14" dy=".8em" y="882.3999878585339" x="254.5000075250864">Progressive Web App</text></g></g><g id="minder_node58"><g id="node_expander56" style="cursor: pointer;" display="none"><path id="kity_path_521" fill="white" stroke="gray" d="M206.500005915761,891.4999878257513A6,6,0,1,1,194.500005915761,891.4999878257513A6,6,0,1,1,206.500005915761,891.4999878257513"></path><path id="kity_path_522" fill="none" stroke="gray"></path></g><path id="node_outline57" fill="none" stroke="none" d="M24.500000819563866,874.4999878257513h165a5,5,0,0,1,5,5v24a5,5,0,0,1,-5,5h-165a5,5,0,0,1,-5,-5v-24a5,5,0,0,1,5,-5z" stroke-width="3"></path><g id="node_text57" fill="black"><text id="kity_text_271" text-rendering="inherit" font-size="12" dy=".8em" y="883.6999878992638" x="29.500000819563866">Service Worker</text></g><g id="kity_g_778"><g id="kity_g_779"><path id="kity_path_780" fill="rgb(255, 244, 179)" stroke="none" d="M121.50000356137753,878.499987795949h63v24h-63z"></path><text id="kity_text_781" text-rendering="geometricPrecision" font-size="12" dy="5" x="129.50000356137753" fill="rgb(77, 65, 0)" y="890.499987795949">vantage</text></g></g></g><g id="minder_node59"><path id="kity_path_722" fill="rgba(0, 0, 0, .25)" stroke="none" d="M350.5000107139349,1014.4999917596579h72a5,5,0,0,1,5,5v18a5,5,0,0,1,-5,5h-72a5,5,0,0,1,-5,-5v-18a5,5,0,0,1,5,-5z" display="none"></path><g id="node_expander65" style="cursor: pointer;"><path id="kity_path_548" fill="white" stroke="gray" d="M431.50001262128353,1023.4999917596579A6,6,0,1,1,419.50001262128353,1023.4999917596579A6,6,0,1,1,431.50001262128353,1023.4999917596579"></path><path id="kity_path_549" fill="none" stroke="gray" d="M421.00001262128353,1023.4999917596579L430.00001262128353,1023.4999917596579"></path></g><path id="node_outline66" fill="rgb(238, 243, 246)" stroke="rgb(115, 161, 191)" d="M344.5000107139349,1010.4999917596579h71a3,3,0,0,1,3,3v20a3,3,0,0,1,-3,3h-71a3,3,0,0,1,-3,-3v-20a3,3,0,0,1,3,-3z" stroke-width="1"></path><g id="node_text66" fill="black"><text id="kity_text_289" text-rendering="inherit" font-size="14" dy=".8em" y="1014.3999917924405" x="361.5000107139349">Tools</text></g></g><g id="minder_node60"><g id="node_expander62" style="cursor: pointer;" display="none"><path id="kity_path_539" fill="white" stroke="gray" d="M313.5000091046095,959.4999898523092A6,6,0,1,1,301.5000091046095,959.4999898523092A6,6,0,1,1,313.5000091046095,959.4999898523092"></path><path id="kity_path_540" fill="none" stroke="gray" d="M303.0000091046095,959.4999898523092L312.0000091046095,959.4999898523092"></path></g><path id="node_outline63" fill="none" stroke="none" d="M236.5000071376562,948.4999898523092h60a5,5,0,0,1,5,5v12a5,5,0,0,1,-5,5h-60a5,5,0,0,1,-5,-5v-12a5,5,0,0,1,5,-5z" stroke-width="3"></path><g id="node_text63" fill="black"><text id="kity_text_283" text-rendering="inherit" font-size="12" dy=".8em" y="951.6999899258217" x="241.5000071376562">Postman</text></g></g><g id="minder_node65"><g id="node_expander63" style="cursor: pointer;" display="none"><path id="kity_path_542" fill="white" stroke="gray" d="M313.5000091046095,1017.4999915808439A6,6,0,1,1,301.5000091046095,1017.4999915808439A6,6,0,1,1,313.5000091046095,1017.4999915808439"></path><path id="kity_path_543" fill="none" stroke="gray"></path></g><path id="node_outline64" fill="none" stroke="none" d="M178.5000054091215,1000.4999915808439h118a5,5,0,0,1,5,5v24a5,5,0,0,1,-5,5h-118a5,5,0,0,1,-5,-5v-24a5,5,0,0,1,5,-5z" stroke-width="3"></path><g id="node_text64" fill="black"><text id="kity_text_285" text-rendering="inherit" font-size="12" dy=".8em" y="1009.6999916543564" x="183.5000054091215">Fiddler</text></g><g id="kity_g_786"><g id="kity_g_787"><path id="kity_path_788" fill="rgb(255, 244, 179)" stroke="none" d="M228.50000675022602,1004.4999915510416h63v24h-63z"></path><text id="kity_text_789" text-rendering="geometricPrecision" font-size="12" dy="5" x="236.50000675022602" fill="rgb(77, 65, 0)" y="1016.4999915510416">vantage</text></g></g></g><g id="minder_node66"><g id="node_expander64" style="cursor: pointer;" display="none"><path id="kity_path_545" fill="white" stroke="gray" d="M313.5000091046095,1081.4999934881926A6,6,0,1,1,301.5000091046095,1081.4999934881926A6,6,0,1,1,313.5000091046095,1081.4999934881926"></path><path id="kity_path_546" fill="none" stroke="gray"></path></g><path id="node_outline65" fill="none" stroke="none" d="M164.500004991889,1064.4999934881926h132a5,5,0,0,1,5,5v24a5,5,0,0,1,-5,5h-132a5,5,0,0,1,-5,-5v-24a5,5,0,0,1,5,-5z" stroke-width="3"></path><g id="node_text65" fill="black"><text id="kity_text_287" text-rendering="inherit" font-size="12" dy=".8em" y="1073.699993561705" x="169.500004991889">DevTools</text></g><g id="kity_g_782"><g id="kity_g_783"><path id="kity_path_784" fill="rgb(255, 244, 179)" stroke="none" d="M228.50000675022602,1068.4999934583902h63v24h-63z"></path><text id="kity_text_785" text-rendering="geometricPrecision" font-size="12" dy="5" x="236.50000675022602" fill="rgb(77, 65, 0)" y="1080.4999934583902">vantage</text></g></g></g><g id="minder_node67"><path id="kity_path_723" fill="rgba(0, 0, 0, .25)" stroke="none" d="M272.50000838935375,1198.4999972432852h161a5,5,0,0,1,5,5v18a5,5,0,0,1,-5,5h-161a5,5,0,0,1,-5,-5v-18a5,5,0,0,1,5,-5z" display="none"></path><g id="node_expander66" style="cursor: pointer;"><path id="kity_path_568" fill="white" stroke="gray" d="M431.50001262128353,1207.4999972432852A6,6,0,1,1,419.50001262128353,1207.4999972432852A6,6,0,1,1,431.50001262128353,1207.4999972432852"></path><path id="kity_path_569" fill="none" stroke="gray" d="M421.00001262128353,1207.4999972432852L430.00001262128353,1207.4999972432852"></path></g><path id="node_outline67" fill="rgb(238, 243, 246)" stroke="rgb(115, 161, 191)" d="M266.50000838935375,1194.4999972432852h149a3,3,0,0,1,3,3v20a3,3,0,0,1,-3,3h-149a3,3,0,0,1,-3,-3v-20a3,3,0,0,1,3,-3z" stroke-width="1"></path><g id="node_text67" fill="black"><text id="kity_text_565" text-rendering="inherit" font-size="14" dy=".8em" y="1198.3999972760678" x="283.50000838935375">Module Bundlers</text></g></g><g id="minder_node68"><g id="node_expander67" style="cursor: pointer;" display="none"><path id="kity_path_576" fill="white" stroke="gray" d="M235.50000678002834,1155.4999956935644A6,6,0,1,1,223.50000678002834,1155.4999956935644A6,6,0,1,1,235.50000678002834,1155.4999956935644"></path><path id="kity_path_577" fill="none" stroke="gray"></path></g><path id="node_outline68" fill="none" stroke="none" d="M85.50000263750553,1138.4999956935644h133a5,5,0,0,1,5,5v24a5,5,0,0,1,-5,5h-133a5,5,0,0,1,-5,-5v-24a5,5,0,0,1,5,-5z" stroke-width="3"></path><g id="node_text68" fill="black"><text id="kity_text_573" text-rendering="inherit" font-size="12" dy=".8em" y="1147.6999957670769" x="90.50000263750553">Webpack</text></g><g id="kity_g_790"><g id="kity_g_791"><path id="kity_path_792" fill="rgb(255, 244, 179)" stroke="none" d="M150.50000442564487,1142.499995663762h63v24h-63z"></path><text id="kity_text_793" text-rendering="geometricPrecision" font-size="12" dy="5" x="158.50000442564487" fill="rgb(77, 65, 0)" y="1154.499995663762">vantage</text></g></g></g><g id="minder_node69"><g id="node_expander68" style="cursor: pointer;" display="none"><path id="kity_path_584" fill="white" stroke="gray" d="M235.50000678002834,1213.499997422099A6,6,0,1,1,223.50000678002834,1213.499997422099A6,6,0,1,1,235.50000678002834,1213.499997422099"></path><path id="kity_path_585" fill="none" stroke="gray"></path></g><path id="node_outline69" fill="none" stroke="none" d="M171.50000520050526,1202.499997422099h47a5,5,0,0,1,5,5v12a5,5,0,0,1,-5,5h-47a5,5,0,0,1,-5,-5v-12a5,5,0,0,1,5,-5z" stroke-width="3"></path><g id="node_text69" fill="black"><text id="kity_text_581" text-rendering="inherit" font-size="12" dy=".8em" y="1205.6999974956116" x="176.50000520050526">Rollup</text></g></g><g id="minder_node70"><g id="node_expander69" style="cursor: pointer;" display="none"><path id="kity_path_592" fill="white" stroke="gray" d="M235.50000678002834,1265.4999989718199A6,6,0,1,1,223.50000678002834,1265.4999989718199A6,6,0,1,1,235.50000678002834,1265.4999989718199"></path><path id="kity_path_593" fill="none" stroke="gray"></path></g><path id="node_outline70" fill="none" stroke="none" d="M173.5000052601099,1254.4999989718199h45a5,5,0,0,1,5,5v12a5,5,0,0,1,-5,5h-45a5,5,0,0,1,-5,-5v-12a5,5,0,0,1,5,-5z" stroke-width="3"></path><g id="node_text70" fill="black"><text id="kity_text_589" text-rendering="inherit" font-size="12" dy=".8em" y="1257.6999990453323" x="178.5000052601099">Parcel</text></g></g><g id="minder_node8"><g id="node_expander6" style="cursor: pointer;" display="none"><path id="kity_path_371" fill="white" stroke="gray" d="M966.500028565526,73.49996344745159A6,6,0,1,1,954.500028565526,73.49996344745159A6,6,0,1,1,966.500028565526,73.49996344745159"></path><path id="kity_path_372" fill="none" stroke="gray"></path></g><path id="node_outline7" fill="none" stroke="none" d="M971.5000290423632,56.49996344745159h107a5,5,0,0,1,5,5v24a5,5,0,0,1,-5,5h-107a5,5,0,0,1,-5,-5v-24a5,5,0,0,1,5,-5z" stroke-width="3"></path><g id="node_text7" fill="black"><text id="kity_text_171" text-rendering="inherit" font-size="12" dy=".8em" y="65.69996352096399" x="976.5000290423632">basic</text></g><g id="kity_g_894"><g id="kity_g_895"><path id="kity_path_896" fill="rgb(255, 244, 179)" stroke="none" d="M1010.5000300556421,60.49996341764927h63v24h-63z"></path><text id="kity_text_897" text-rendering="geometricPrecision" font-size="12" dy="5" x="1018.5000300556421" fill="rgb(77, 65, 0)" y="72.49996341764927">vantage</text></g></g></g><g id="minder_node9"><g id="node_expander7" style="cursor: pointer;" display="none"><path id="kity_path_374" fill="white" stroke="gray" d="M966.500028565526,137.49996535480022A6,6,0,1,1,954.500028565526,137.49996535480022A6,6,0,1,1,966.500028565526,137.49996535480022"></path><path id="kity_path_375" fill="none" stroke="gray"></path></g><path id="node_outline8" fill="none" stroke="none" d="M971.5000290423632,120.49996535480022h175a5,5,0,0,1,5,5v24a5,5,0,0,1,-5,5h-175a5,5,0,0,1,-5,-5v-24a5,5,0,0,1,5,-5z" stroke-width="3"></path><g id="node_text8" fill="black"><text id="kity_text_173" text-rendering="inherit" font-size="12" dy=".8em" y="129.69996542831262" x="976.5000290423632">Semantic HTML5</text></g><g id="kity_g_890"><g id="kity_g_891"><path id="kity_path_892" fill="rgb(255, 244, 179)" stroke="none" d="M1078.5000320822,124.4999653249979h63v24h-63z"></path><text id="kity_text_893" text-rendering="geometricPrecision" font-size="12" dy="5" x="1086.5000320822" fill="rgb(77, 65, 0)" y="136.4999653249979">vantage</text></g></g></g><g id="minder_node10"><g id="node_expander8" style="cursor: pointer;" display="none"><path id="kity_path_377" fill="white" stroke="gray" d="M966.500028565526,201.49996726214886A6,6,0,1,1,954.500028565526,201.49996726214886A6,6,0,1,1,966.500028565526,201.49996726214886"></path><path id="kity_path_378" fill="none" stroke="gray"></path></g><path id="node_outline9" fill="none" stroke="none" d="M971.5000290423632,184.49996726214886h206a5,5,0,0,1,5,5v24a5,5,0,0,1,-5,5h-206a5,5,0,0,1,-5,-5v-24a5,5,0,0,1,5,-5z" stroke-width="3"></path><g id="node_text9" fill="black"><text id="kity_text_175" text-rendering="inherit" font-size="12" dy=".8em" y="193.69996733566126" x="976.5000290423632">Forms and Validations</text></g><g id="kity_g_886"><g id="kity_g_887"><path id="kity_path_888" fill="rgb(255, 244, 179)" stroke="none" d="M1109.500033006072,188.49996723234653h63v24h-63z"></path><text id="kity_text_889" text-rendering="geometricPrecision" font-size="12" dy="5" x="1117.500033006072" fill="rgb(77, 65, 0)" y="200.49996723234653">vantage</text></g></g></g><g id="minder_node11"><g id="node_expander9" style="cursor: pointer;" display="none"><path id="kity_path_380" fill="white" stroke="gray" d="M966.500028565526,265.4999691694975A6,6,0,1,1,954.500028565526,265.4999691694975A6,6,0,1,1,966.500028565526,265.4999691694975"></path><path id="kity_path_381" fill="none" stroke="gray"></path></g><path id="node_outline10" fill="none" stroke="none" d="M971.5000290423632,248.4999691694975h149a5,5,0,0,1,5,5v24a5,5,0,0,1,-5,5h-149a5,5,0,0,1,-5,-5v-24a5,5,0,0,1,5,-5z" stroke-width="3"></path><g id="node_text10" fill="black"><text id="kity_text_177" text-rendering="inherit" font-size="12" dy=".8em" y="257.6999692430099" x="976.5000290423632">Accessibility</text></g><g id="kity_g_882"><g id="kity_g_883"><path id="kity_path_884" fill="rgb(255, 244, 179)" stroke="none" d="M1052.5000313073397,252.49996913969517h63v24h-63z"></path><text id="kity_text_885" text-rendering="geometricPrecision" font-size="12" dy="5" x="1060.5000313073397" fill="rgb(77, 65, 0)" y="264.49996913969517">vantage</text></g></g></g><g id="minder_node12"><g id="node_expander10" style="cursor: pointer;" display="none"><path id="kity_path_383" fill="white" stroke="gray" d="M966.500028565526,329.4999710768461A6,6,0,1,1,954.500028565526,329.4999710768461A6,6,0,1,1,966.500028565526,329.4999710768461"></path><path id="kity_path_384" fill="none" stroke="gray"></path></g><path id="node_outline11" fill="none" stroke="none" d="M971.5000290423632,312.4999710768461h102a5,5,0,0,1,5,5v24a5,5,0,0,1,-5,5h-102a5,5,0,0,1,-5,-5v-24a5,5,0,0,1,5,-5z" stroke-width="3"></path><g id="node_text11" fill="black"><text id="kity_text_179" text-rendering="inherit" font-size="12" dy=".8em" y="321.6999711503585" x="976.5000290423632">SEO</text></g><g id="kity_g_878"><g id="kity_g_879"><path id="kity_path_880" fill="rgb(255, 244, 179)" stroke="none" d="M1005.5000299066305,316.4999710470438h63v24h-63z"></path><text id="kity_text_881" text-rendering="geometricPrecision" font-size="12" dy="5" x="1013.5000299066305" fill="rgb(77, 65, 0)" y="328.4999710470438">vantage</text></g></g></g><g id="minder_node14"><g id="node_expander11" style="cursor: pointer;" display="none"><path id="kity_path_386" fill="white" stroke="gray" d="M1102.5000326186419,393.49997298419476A6,6,0,1,1,1090.5000326186419,393.49997298419476A6,6,0,1,1,1102.5000326186419,393.49997298419476"></path><path id="kity_path_387" fill="none" stroke="gray"></path></g><path id="node_outline12" fill="none" stroke="none" d="M1107.500033095479,376.49997298419476h141a5,5,0,0,1,5,5v24a5,5,0,0,1,-5,5h-141a5,5,0,0,1,-5,-5v-24a5,5,0,0,1,5,-5z" stroke-width="3"></path><g id="node_text12" fill="black"><text id="kity_text_181" text-rendering="inherit" font-size="12" dy=".8em" y="385.69997305770715" x="1112.500033095479">IndecedDB</text></g><g id="kity_g_874"><g id="kity_g_875"><path id="kity_path_876" fill="rgb(255, 244, 179)" stroke="none" d="M1180.500035122037,380.49997295439243h63v24h-63z"></path><text id="kity_text_877" text-rendering="geometricPrecision" font-size="12" dy="5" x="1188.500035122037" fill="rgb(77, 65, 0)" y="392.49997295439243">vantage</text></g></g></g><g id="minder_node15"><g id="node_expander12" style="cursor: pointer;" display="none"><path id="kity_path_389" fill="white" stroke="gray" d="M1102.5000326186419,457.4999748915434A6,6,0,1,1,1090.5000326186419,457.4999748915434A6,6,0,1,1,1102.5000326186419,457.4999748915434"></path><path id="kity_path_390" fill="none" stroke="gray"></path></g><path id="node_outline13" fill="none" stroke="none" d="M1107.500033095479,440.4999748915434h153a5,5,0,0,1,5,5v24a5,5,0,0,1,-5,5h-153a5,5,0,0,1,-5,-5v-24a5,5,0,0,1,5,-5z" stroke-width="3"></path><g id="node_text13" fill="black"><text id="kity_text_183" text-rendering="inherit" font-size="12" dy=".8em" y="449.6999749650558" x="1112.500033095479">LocalStorage</text></g><g id="kity_g_870"><g id="kity_g_871"><path id="kity_path_872" fill="rgb(255, 244, 179)" stroke="none" d="M1192.5000354796648,444.49997486174107h63v24h-63z"></path><text id="kity_text_873" text-rendering="geometricPrecision" font-size="12" dy="5" x="1200.5000354796648" fill="rgb(77, 65, 0)" y="456.49997486174107">vantage</text></g></g></g><g id="minder_node13"><g id="node_expander13" style="cursor: pointer;"><path id="kity_path_392" fill="white" stroke="gray" d="M966.500028565526,425.4999739378691A6,6,0,1,1,954.500028565526,425.4999739378691A6,6,0,1,1,966.500028565526,425.4999739378691"></path><path id="kity_path_393" fill="none" stroke="gray" d="M956.000028565526,425.4999739378691L965.000028565526,425.4999739378691"></path></g><path id="node_outline14" fill="none" stroke="none" d="M971.5000290423632,414.4999739378691h86a5,5,0,0,1,5,5v12a5,5,0,0,1,-5,5h-86a5,5,0,0,1,-5,-5v-12a5,5,0,0,1,5,-5z" stroke-width="3"></path><g id="node_text14" fill="black"><text id="kity_text_185" text-rendering="inherit" font-size="12" dy=".8em" y="417.69997401138147" x="976.5000290423632">Web Storage</text></g><g id="kity_g_866" display="none"><g id="kity_g_867"><path id="kity_path_868" fill="rgb(255, 244, 179)" stroke="none" d="M1057.5000314563513,412.49997390806675h63v24h-63z"></path><text id="kity_text_869" text-rendering="geometricPrecision" font-size="12" dy="5" x="1065.5000314563513" fill="rgb(77, 65, 0)" y="424.49997390806675">vantage</text></g></g></g><g id="minder_node38"><g id="node_expander36" style="cursor: pointer;" display="none"><path id="kity_path_461" fill="white" stroke="gray" d="M1076.5000318437815,1635.5000099986792A6,6,0,1,1,1064.5000318437815,1635.5000099986792A6,6,0,1,1,1076.5000318437815,1635.5000099986792"></path><path id="kity_path_462" fill="none" stroke="gray"></path></g><path id="node_outline37" fill="none" stroke="none" d="M1081.5000323206186,1618.5000099986792h95a5,5,0,0,1,5,5v24a5,5,0,0,1,-5,5h-95a5,5,0,0,1,-5,-5v-24a5,5,0,0,1,5,-5z" stroke-width="3"></path><g id="node_text37" fill="black"><text id="kity_text_231" text-rendering="inherit" font-size="12" dy=".8em" y="1627.7000100721916" x="1086.5000323206186">Git</text></g><g id="kity_g_802"><g id="kity_g_803"><path id="kity_path_804" fill="rgb(255, 244, 179)" stroke="none" d="M1108.5000329762697,1622.5000099688768h63v24h-63z"></path><text id="kity_text_805" text-rendering="geometricPrecision" font-size="12" dy="5" x="1116.5000329762697" fill="rgb(77, 65, 0)" y="1634.5000099688768">vantage</text></g></g></g><g id="minder_node39"><g id="node_expander37" style="cursor: pointer;" display="none"><path id="kity_path_464" fill="white" stroke="gray" d="M1076.5000318437815,1693.5000117272139A6,6,0,1,1,1064.5000318437815,1693.5000117272139A6,6,0,1,1,1076.5000318437815,1693.5000117272139"></path><path id="kity_path_465" fill="none" stroke="gray"></path></g><path id="node_outline38" fill="none" stroke="none" d="M1081.5000323206186,1682.5000117272139h35a5,5,0,0,1,5,5v12a5,5,0,0,1,-5,5h-35a5,5,0,0,1,-5,-5v-12a5,5,0,0,1,5,-5z" stroke-width="3"></path><g id="node_text38" fill="black"><text id="kity_text_233" text-rendering="inherit" font-size="12" dy=".8em" y="1685.7000118007263" x="1086.5000323206186">SVN</text></g></g><g id="minder_node34"><g id="node_expander32" style="cursor: pointer;" display="none"><path id="kity_path_449" fill="white" stroke="gray" d="M1008.5000298172235,1433.50000397861A6,6,0,1,1,996.5000298172235,1433.50000397861A6,6,0,1,1,1008.5000298172235,1433.50000397861"></path><path id="kity_path_450" fill="none" stroke="gray"></path></g><path id="node_outline33" fill="none" stroke="none" d="M1013.5000302940607,1416.50000397861h115a5,5,0,0,1,5,5v24a5,5,0,0,1,-5,5h-115a5,5,0,0,1,-5,-5v-24a5,5,0,0,1,5,-5z" stroke-width="3"></path><g id="node_text33" fill="black"><text id="kity_text_223" text-rendering="inherit" font-size="12" dy=".8em" y="1425.7000040521225" x="1018.5000302940607">HTTPS</text></g><g id="kity_g_814"><g id="kity_g_815"><path id="kity_path_816" fill="rgb(255, 244, 179)" stroke="none" d="M1060.5000315457582,1420.5000039488077h63v24h-63z"></path><text id="kity_text_817" text-rendering="geometricPrecision" font-size="12" dy="5" x="1068.5000315457582" fill="rgb(77, 65, 0)" y="1432.5000039488077">vantage</text></g></g></g><g id="minder_node35"><g id="node_expander33" style="cursor: pointer;" display="none"><path id="kity_path_452" fill="white" stroke="gray" d="M1008.5000298172235,1497.5000058859587A6,6,0,1,1,996.5000298172235,1497.5000058859587A6,6,0,1,1,1008.5000298172235,1497.5000058859587"></path><path id="kity_path_453" fill="none" stroke="gray"></path></g><path id="node_outline34" fill="none" stroke="none" d="M1013.5000302940607,1480.5000058859587h211a5,5,0,0,1,5,5v24a5,5,0,0,1,-5,5h-211a5,5,0,0,1,-5,-5v-24a5,5,0,0,1,5,-5z" stroke-width="3"></path><g id="node_text34" fill="black"><text id="kity_text_225" text-rendering="inherit" font-size="12" dy=".8em" y="1489.7000059594711" x="1018.5000302940607">Content Security Policy</text></g><g id="kity_g_810"><g id="kity_g_811"><path id="kity_path_812" fill="rgb(255, 244, 179)" stroke="none" d="M1156.5000344067812,1484.5000058561563h63v24h-63z"></path><text id="kity_text_813" text-rendering="geometricPrecision" font-size="12" dy="5" x="1164.5000344067812" fill="rgb(77, 65, 0)" y="1496.5000058561563">vantage</text></g></g></g><g id="minder_node36"><g id="node_expander34" style="cursor: pointer;" display="none"><path id="kity_path_455" fill="white" stroke="gray" d="M1008.5000298172235,1561.5000077933073A6,6,0,1,1,996.5000298172235,1561.5000077933073A6,6,0,1,1,1008.5000298172235,1561.5000077933073"></path><path id="kity_path_456" fill="none" stroke="gray"></path></g><path id="node_outline35" fill="none" stroke="none" d="M1013.5000302940607,1544.5000077933073h111a5,5,0,0,1,5,5v24a5,5,0,0,1,-5,5h-111a5,5,0,0,1,-5,-5v-24a5,5,0,0,1,5,-5z" stroke-width="3"></path><g id="node_text35" fill="black"><text id="kity_text_227" text-rendering="inherit" font-size="12" dy=".8em" y="1553.7000078668198" x="1018.5000302940607">CORS</text></g><g id="kity_g_806"><g id="kity_g_807"><path id="kity_path_808" fill="rgb(255, 244, 179)" stroke="none" d="M1056.500031426549,1548.500007763505h63v24h-63z"></path><text id="kity_text_809" text-rendering="geometricPrecision" font-size="12" dy="5" x="1064.500031426549" fill="rgb(77, 65, 0)" y="1560.500007763505">vantage</text></g></g></g><g id="minder_node71"><path id="kity_path_724" fill="rgba(0, 0, 0, .25)" stroke="none" d="M312.50000958144665,1376.5000025480986h116a5,5,0,0,1,5,5v18a5,5,0,0,1,-5,5h-116a5,5,0,0,1,-5,-5v-18a5,5,0,0,1,5,-5z" display="none"></path><g id="node_expander70" style="cursor: pointer;"><path id="kity_path_680" fill="white" stroke="gray" d="M431.50001262128353,1385.5000025480986A6,6,0,1,1,419.50001262128353,1385.5000025480986A6,6,0,1,1,431.50001262128353,1385.5000025480986"></path><path id="kity_path_681" fill="none" stroke="gray" d="M421.00001262128353,1385.5000025480986L430.00001262128353,1385.5000025480986"></path></g><path id="node_outline71" fill="rgb(238, 243, 246)" stroke="rgb(115, 161, 191)" d="M306.50000958144665,1372.5000025480986h109a3,3,0,0,1,3,3v20a3,3,0,0,1,-3,3h-109a3,3,0,0,1,-3,-3v-20a3,3,0,0,1,3,-3z" stroke-width="1"></path><g id="node_text71" fill="black"><text id="kity_text_677" text-rendering="inherit" font-size="14" dy=".8em" y="1376.4000025808812" x="323.50000958144665">Framework</text></g></g><g id="minder_node72"><g id="node_expander71" style="cursor: pointer;" display="none"><path id="kity_path_688" fill="white" stroke="gray" d="M275.50000797212124,1327.5000008195639A6,6,0,1,1,263.50000797212124,1327.5000008195639A6,6,0,1,1,275.50000797212124,1327.5000008195639"></path><path id="kity_path_689" fill="none" stroke="gray"></path></g><path id="node_outline72" fill="none" stroke="none" d="M216.50000654160976,1316.5000008195639h42a5,5,0,0,1,5,5v12a5,5,0,0,1,-5,5h-42a5,5,0,0,1,-5,-5v-12a5,5,0,0,1,5,-5z" stroke-width="3"></path><g id="node_text72" fill="black"><text id="kity_text_685" text-rendering="inherit" font-size="12" dy=".8em" y="1319.7000008930763" x="221.50000654160976">React</text></g></g><g id="minder_node73"><g id="node_expander72" style="cursor: pointer;" display="none"><path id="kity_path_696" fill="white" stroke="gray" d="M275.50000797212124,1385.5000025480986A6,6,0,1,1,263.50000797212124,1385.5000025480986A6,6,0,1,1,275.50000797212124,1385.5000025480986"></path><path id="kity_path_697" fill="none" stroke="gray"></path></g><path id="node_outline73" fill="none" stroke="none" d="M133.500004068017,1368.5000025480986h125a5,5,0,0,1,5,5v24a5,5,0,0,1,-5,5h-125a5,5,0,0,1,-5,-5v-24a5,5,0,0,1,5,-5z" stroke-width="3"></path><g id="node_text73" fill="black"><text id="kity_text_693" text-rendering="inherit" font-size="12" dy=".8em" y="1377.700002621611" x="138.500004068017">Angular</text></g><g id="kity_g_794"><g id="kity_g_795"><path id="kity_path_796" fill="rgb(255, 244, 179)" stroke="none" d="M190.50000561773777,1372.5000025182962h63v24h-63z"></path><text id="kity_text_797" text-rendering="geometricPrecision" font-size="12" dy="5" x="198.50000561773777" fill="rgb(77, 65, 0)" y="1384.5000025182962">vantage</text></g></g></g><g id="minder_node74"><g id="node_expander73" style="cursor: pointer;" display="none"><path id="kity_path_704" fill="white" stroke="gray" d="M275.50000797212124,1443.5000042766333A6,6,0,1,1,263.50000797212124,1443.5000042766333A6,6,0,1,1,275.50000797212124,1443.5000042766333"></path><path id="kity_path_705" fill="none" stroke="gray"></path></g><path id="node_outline74" fill="none" stroke="none" d="M224.50000678002834,1432.5000042766333h34a5,5,0,0,1,5,5v12a5,5,0,0,1,-5,5h-34a5,5,0,0,1,-5,-5v-12a5,5,0,0,1,5,-5z" stroke-width="3"></path><g id="node_text74" fill="black"><text id="kity_text_701" text-rendering="inherit" font-size="12" dy=".8em" y="1435.7000043501457" x="229.50000678002834">Vue</text></g></g><g id="kity_g_12" display="none"><path id="kity_path_13" fill="none" stroke="rgb(66, 94, 112)" d="M281.5000167042017,321.49998615682125h134a3,3,0,0,1,3,3v20a3,3,0,0,1,-3,3h-134a3,3,0,0,1,-3,-3v-20a3,3,0,0,1,3,-3z" stroke-width="5"></path></g><g id="minder_node3"><g id="node_expander1" style="cursor: pointer;" display="none"><path id="kity_path_356" fill="white" stroke="gray" d="M285.50000827014446,37.499962374567986A6,6,0,1,1,273.50000827014446,37.499962374567986A6,6,0,1,1,285.50000827014446,37.499962374567986"></path><path id="kity_path_357" fill="none" stroke="gray"></path></g><path id="node_outline2" fill="none" stroke="none" d="M159.5000048428774,20.499962374567986h109a5,5,0,0,1,5,5v24a5,5,0,0,1,-5,5h-109a5,5,0,0,1,-5,-5v-24a5,5,0,0,1,5,-5z" stroke-width="3"></path><g id="node_text2" fill="black"><text id="kity_text_161" text-rendering="inherit" font-size="12" dy=".8em" y="29.699962448080385" x="164.5000048428774">HTTP</text></g><g id="kity_g_758"><g id="kity_g_759"><path id="kity_path_760" fill="rgb(255, 244, 179)" stroke="none" d="M200.500005915761,24.499962344765663h63v24h-63z"></path><text id="kity_text_761" text-rendering="geometricPrecision" font-size="12" dy="5" x="208.500005915761" fill="rgb(77, 65, 0)" y="36.49996234476566">vantage</text></g></g></g><g id="minder_node4"><g id="node_expander2" style="cursor: pointer;" display="none"><path id="kity_path_359" fill="white" stroke="gray" d="M285.50000827014446,101.49996428191662A6,6,0,1,1,273.50000827014446,101.49996428191662A6,6,0,1,1,285.50000827014446,101.49996428191662"></path><path id="kity_path_360" fill="none" stroke="gray"></path></g><path id="node_outline3" fill="none" stroke="none" d="M166.50000505149364,84.49996428191662h102a5,5,0,0,1,5,5v24a5,5,0,0,1,-5,5h-102a5,5,0,0,1,-5,-5v-24a5,5,0,0,1,5,-5z" stroke-width="3"></path><g id="node_text3" fill="black"><text id="kity_text_163" text-rendering="inherit" font-size="12" dy=".8em" y="93.69996435542902" x="171.50000505149364">TCP</text></g><g id="kity_g_754"><g id="kity_g_755"><path id="kity_path_756" fill="rgb(255, 244, 179)" stroke="none" d="M200.500005915761,88.4999642521143h63v24h-63z"></path><text id="kity_text_757" text-rendering="geometricPrecision" font-size="12" dy="5" x="208.500005915761" fill="rgb(77, 65, 0)" y="100.4999642521143">vantage</text></g></g></g><g id="minder_node5"><g id="node_expander3" style="cursor: pointer;" display="none"><path id="kity_path_362" fill="white" stroke="gray" d="M285.50000827014446,165.49996618926525A6,6,0,1,1,273.50000827014446,165.49996618926525A6,6,0,1,1,285.50000827014446,165.49996618926525"></path><path id="kity_path_363" fill="none" stroke="gray"></path></g><path id="node_outline4" fill="none" stroke="none" d="M164.500004991889,148.49996618926525h104a5,5,0,0,1,5,5v24a5,5,0,0,1,-5,5h-104a5,5,0,0,1,-5,-5v-24a5,5,0,0,1,5,-5z" stroke-width="3"></path><g id="node_text4" fill="black"><text id="kity_text_165" text-rendering="inherit" font-size="12" dy=".8em" y="157.69996626277765" x="169.500004991889">UDP</text></g><g id="kity_g_750"><g id="kity_g_751"><path id="kity_path_752" fill="rgb(255, 244, 179)" stroke="none" d="M200.500005915761,152.49996615946293h63v24h-63z"></path><text id="kity_text_753" text-rendering="geometricPrecision" font-size="12" dy="5" x="208.500005915761" fill="rgb(77, 65, 0)" y="164.49996615946293">vantage</text></g></g></g><g id="minder_node6"><g id="node_expander4" style="cursor: pointer;" display="none"><path id="kity_path_365" fill="white" stroke="gray" d="M285.50000827014446,229.49996809661388A6,6,0,1,1,273.50000827014446,229.49996809661388A6,6,0,1,1,285.50000827014446,229.49996809661388"></path><path id="kity_path_366" fill="none" stroke="gray"></path></g><path id="node_outline5" fill="none" stroke="none" d="M178.5000054091215,212.49996809661388h90a5,5,0,0,1,5,5v24a5,5,0,0,1,-5,5h-90a5,5,0,0,1,-5,-5v-24a5,5,0,0,1,5,-5z" stroke-width="3"></path><g id="node_text5" fill="black"><text id="kity_text_167" text-rendering="inherit" font-size="12" dy=".8em" y="221.69996817012628" x="183.5000054091215">IP</text></g><g id="kity_g_746"><g id="kity_g_747"><path id="kity_path_748" fill="rgb(255, 244, 179)" stroke="none" d="M200.500005915761,216.49996806681156h63v24h-63z"></path><text id="kity_text_749" text-rendering="geometricPrecision" font-size="12" dy="5" x="208.500005915761" fill="rgb(77, 65, 0)" y="228.49996806681156">vantage</text></g></g></g></g></g></svg>